G75*
G70*
%OFA0B0*%
%FSLAX24Y24*%
%IPPOS*%
%LPD*%
%AMOC8*
5,1,8,0,0,1.08239X$1,22.5*
%
%ADD10C,0.0820*%
%ADD11R,0.0356X0.0434*%
%ADD12R,0.0580X0.0300*%
%ADD13R,0.0300X0.0580*%
%ADD14R,0.0580X0.0330*%
%ADD15R,0.0710X0.0631*%
%ADD16R,0.0395X0.0395*%
%ADD17R,0.0434X0.0356*%
%ADD18R,0.0297X0.0552*%
%ADD19C,0.1380*%
%ADD20R,0.0395X0.0434*%
%ADD21R,0.1891X0.0474*%
%ADD22R,0.1419X0.0710*%
D10*
X013333Y007833D03*
X014333Y007833D03*
X015333Y007833D03*
X016333Y007833D03*
X017333Y007833D03*
X018333Y007833D03*
X019333Y007833D03*
X020333Y007833D03*
X021333Y007833D03*
X022333Y007833D03*
X020333Y010583D03*
X019333Y010583D03*
X018333Y010583D03*
X017333Y010583D03*
X016333Y010583D03*
X015333Y010583D03*
X015333Y016333D03*
X015333Y019083D03*
X016333Y019083D03*
X017333Y019083D03*
X018333Y019083D03*
X019333Y019083D03*
X020333Y019083D03*
X020333Y021833D03*
X019333Y021833D03*
X018333Y021833D03*
X017333Y021833D03*
X016333Y021833D03*
X015333Y021833D03*
D11*
X015077Y020333D03*
X015589Y020333D03*
X016077Y020333D03*
X016589Y020333D03*
X017077Y020333D03*
X017589Y020333D03*
X018077Y020333D03*
X018589Y020333D03*
X019077Y020333D03*
X019589Y020333D03*
X020077Y020333D03*
X020589Y020333D03*
X020589Y009333D03*
X020077Y009333D03*
X019589Y009333D03*
X019077Y009333D03*
X018589Y009333D03*
X018077Y009333D03*
X017589Y009333D03*
X017077Y009333D03*
X016589Y009333D03*
X016077Y009333D03*
X015589Y009333D03*
X015077Y009333D03*
D12*
G36*
X017729Y012957D02*
X017320Y012548D01*
X017107Y012761D01*
X017516Y013170D01*
X017729Y012957D01*
G37*
G36*
X017506Y013180D02*
X017097Y012771D01*
X016884Y012984D01*
X017293Y013393D01*
X017506Y013180D01*
G37*
G36*
X017283Y013402D02*
X016874Y012993D01*
X016661Y013206D01*
X017070Y013615D01*
X017283Y013402D01*
G37*
G36*
X017061Y013625D02*
X016652Y013216D01*
X016439Y013429D01*
X016848Y013838D01*
X017061Y013625D01*
G37*
G36*
X016838Y013848D02*
X016429Y013439D01*
X016216Y013652D01*
X016625Y014061D01*
X016838Y013848D01*
G37*
G36*
X016615Y014070D02*
X016206Y013661D01*
X015993Y013874D01*
X016402Y014283D01*
X016615Y014070D01*
G37*
G36*
X016393Y014293D02*
X015984Y013884D01*
X015771Y014097D01*
X016180Y014506D01*
X016393Y014293D01*
G37*
G36*
X016170Y014516D02*
X015761Y014107D01*
X015548Y014320D01*
X015957Y014729D01*
X016170Y014516D01*
G37*
G36*
X019228Y016238D02*
X018819Y015829D01*
X018606Y016042D01*
X019015Y016451D01*
X019228Y016238D01*
G37*
G36*
X019005Y016460D02*
X018596Y016051D01*
X018383Y016264D01*
X018792Y016673D01*
X019005Y016460D01*
G37*
G36*
X018783Y016683D02*
X018374Y016274D01*
X018161Y016487D01*
X018570Y016896D01*
X018783Y016683D01*
G37*
G36*
X018560Y016906D02*
X018151Y016497D01*
X017938Y016710D01*
X018347Y017119D01*
X018560Y016906D01*
G37*
G36*
X019451Y016015D02*
X019042Y015606D01*
X018829Y015819D01*
X019238Y016228D01*
X019451Y016015D01*
G37*
G36*
X019673Y015792D02*
X019264Y015383D01*
X019051Y015596D01*
X019460Y016005D01*
X019673Y015792D01*
G37*
G36*
X019896Y015570D02*
X019487Y015161D01*
X019274Y015374D01*
X019683Y015783D01*
X019896Y015570D01*
G37*
G36*
X020119Y015347D02*
X019710Y014938D01*
X019497Y015151D01*
X019906Y015560D01*
X020119Y015347D01*
G37*
D13*
G36*
X020119Y014320D02*
X019906Y014107D01*
X019497Y014516D01*
X019710Y014729D01*
X020119Y014320D01*
G37*
G36*
X019896Y014097D02*
X019683Y013884D01*
X019274Y014293D01*
X019487Y014506D01*
X019896Y014097D01*
G37*
G36*
X019673Y013874D02*
X019460Y013661D01*
X019051Y014070D01*
X019264Y014283D01*
X019673Y013874D01*
G37*
G36*
X019451Y013652D02*
X019238Y013439D01*
X018829Y013848D01*
X019042Y014061D01*
X019451Y013652D01*
G37*
G36*
X019228Y013429D02*
X019015Y013216D01*
X018606Y013625D01*
X018819Y013838D01*
X019228Y013429D01*
G37*
G36*
X019005Y013206D02*
X018792Y012993D01*
X018383Y013402D01*
X018596Y013615D01*
X019005Y013206D01*
G37*
G36*
X018783Y012984D02*
X018570Y012771D01*
X018161Y013180D01*
X018374Y013393D01*
X018783Y012984D01*
G37*
G36*
X018560Y012761D02*
X018347Y012548D01*
X017938Y012957D01*
X018151Y013170D01*
X018560Y012761D01*
G37*
G36*
X016170Y015151D02*
X015957Y014938D01*
X015548Y015347D01*
X015761Y015560D01*
X016170Y015151D01*
G37*
G36*
X016393Y015374D02*
X016180Y015161D01*
X015771Y015570D01*
X015984Y015783D01*
X016393Y015374D01*
G37*
G36*
X016615Y015596D02*
X016402Y015383D01*
X015993Y015792D01*
X016206Y016005D01*
X016615Y015596D01*
G37*
G36*
X016838Y015819D02*
X016625Y015606D01*
X016216Y016015D01*
X016429Y016228D01*
X016838Y015819D01*
G37*
G36*
X017061Y016042D02*
X016848Y015829D01*
X016439Y016238D01*
X016652Y016451D01*
X017061Y016042D01*
G37*
G36*
X017283Y016264D02*
X017070Y016051D01*
X016661Y016460D01*
X016874Y016673D01*
X017283Y016264D01*
G37*
G36*
X017506Y016487D02*
X017293Y016274D01*
X016884Y016683D01*
X017097Y016896D01*
X017506Y016487D01*
G37*
G36*
X017729Y016710D02*
X017516Y016497D01*
X017107Y016906D01*
X017320Y017119D01*
X017729Y016710D01*
G37*
D14*
X011833Y017656D03*
X011833Y018010D03*
X011333Y012010D03*
X011333Y011656D03*
X012333Y011656D03*
X012333Y012010D03*
D15*
X011333Y014282D03*
X011333Y015385D03*
X014333Y015385D03*
X014333Y014282D03*
D16*
X014129Y019333D03*
X013538Y019333D03*
D17*
X012833Y018089D03*
X012833Y017577D03*
X015333Y015089D03*
X015333Y014577D03*
D18*
X013207Y014321D03*
X012459Y014321D03*
X012459Y015345D03*
X012833Y015345D03*
X013207Y015345D03*
D19*
X011833Y021333D03*
X023833Y021333D03*
X023833Y008333D03*
X011833Y008333D03*
D20*
X013833Y011400D03*
X013459Y012227D03*
X014207Y012227D03*
X014959Y012227D03*
X015707Y012227D03*
X016459Y012227D03*
X017207Y012227D03*
X018459Y012227D03*
X019207Y012227D03*
X019959Y012227D03*
X020707Y012227D03*
X021459Y012227D03*
X022207Y012227D03*
X021833Y011400D03*
X020333Y011400D03*
X018833Y011400D03*
X016833Y011400D03*
X015333Y011400D03*
X014959Y017440D03*
X014207Y017440D03*
X013459Y017440D03*
X013833Y018266D03*
X015333Y018266D03*
X015707Y017440D03*
X016459Y017440D03*
X017207Y017440D03*
X018459Y017440D03*
X019207Y017440D03*
X019959Y017440D03*
X020707Y017440D03*
X021459Y017440D03*
X022207Y017440D03*
X021833Y018266D03*
X020333Y018266D03*
X018833Y018266D03*
X016833Y018266D03*
D21*
X021955Y015617D03*
X021955Y014829D03*
X021955Y014042D03*
D22*
X024003Y013097D03*
X024003Y016562D03*
M02*
