G75*
G70*
%OFA0B0*%
%FSLAX24Y24*%
%IPPOS*%
%LPD*%
%AMOC8*
5,1,8,0,0,1.08239X$1,22.5*
%
%ADD10C,0.0080*%
%ADD11C,0.0110*%
%ADD12C,0.0070*%
%ADD13C,0.0060*%
%ADD14C,0.0700*%
%ADD15C,0.0150*%
%ADD16C,0.0010*%
%ADD17R,0.0160X0.0280*%
%ADD18C,0.0160*%
%ADD19C,0.0050*%
%ADD20R,0.0280X0.0160*%
D10*
X013223Y008423D02*
X013223Y008844D01*
X013434Y008844D01*
X013504Y008774D01*
X013504Y008634D01*
X013434Y008563D01*
X013223Y008563D01*
X013684Y008423D02*
X013824Y008563D01*
X013964Y008423D01*
X013964Y008844D01*
X014144Y008844D02*
X014354Y008844D01*
X014424Y008774D01*
X014424Y008634D01*
X014354Y008563D01*
X014144Y008563D01*
X014144Y008423D02*
X014144Y008844D01*
X014284Y008563D02*
X014424Y008423D01*
X013684Y008423D02*
X013684Y008844D01*
X015223Y008774D02*
X015223Y008704D01*
X015293Y008634D01*
X015434Y008634D01*
X015504Y008563D01*
X015504Y008493D01*
X015434Y008423D01*
X015293Y008423D01*
X015223Y008493D01*
X015223Y008774D02*
X015293Y008844D01*
X015434Y008844D01*
X015504Y008774D01*
X015684Y008844D02*
X015684Y008423D01*
X015964Y008423D01*
X016144Y008423D02*
X016144Y008844D01*
X016354Y008844D01*
X016424Y008774D01*
X016424Y008634D01*
X016354Y008563D01*
X016144Y008563D01*
X016284Y008563D02*
X016424Y008423D01*
X015964Y008844D02*
X015684Y008844D01*
X015684Y008634D02*
X015824Y008634D01*
X017323Y008844D02*
X017463Y008844D01*
X017393Y008844D02*
X017393Y008423D01*
X017323Y008423D02*
X017463Y008423D01*
X017630Y008423D02*
X017910Y008704D01*
X017910Y008774D01*
X017840Y008844D01*
X017700Y008844D01*
X017630Y008774D01*
X018091Y008774D02*
X018091Y008493D01*
X018161Y008423D01*
X018301Y008423D01*
X018371Y008493D01*
X018371Y008774D02*
X018301Y008844D01*
X018161Y008844D01*
X018091Y008774D01*
X017910Y008423D02*
X017630Y008423D01*
X020323Y008493D02*
X020393Y008423D01*
X020534Y008423D01*
X020604Y008493D01*
X020604Y008563D01*
X020534Y008634D01*
X020393Y008634D01*
X020323Y008704D01*
X020323Y008774D01*
X020393Y008844D01*
X020534Y008844D01*
X020604Y008774D01*
X020784Y008844D02*
X020994Y008844D01*
X021064Y008774D01*
X021064Y008634D01*
X020994Y008563D01*
X020784Y008563D01*
X020784Y008423D02*
X020784Y008844D01*
X021244Y008844D02*
X021384Y008844D01*
X021314Y008844D02*
X021314Y008423D01*
X021244Y008423D02*
X021384Y008423D01*
X022365Y009363D02*
X022445Y009363D01*
X022525Y009443D01*
X022525Y009844D01*
X022285Y009844D01*
X022205Y009764D01*
X022205Y009603D01*
X022285Y009523D01*
X022525Y009523D01*
X022720Y009523D02*
X022720Y009844D01*
X022800Y009844D01*
X022880Y009764D01*
X022960Y009844D01*
X023041Y009764D01*
X023041Y009523D01*
X022880Y009523D02*
X022880Y009764D01*
X023236Y009764D02*
X023236Y009603D01*
X023316Y009523D01*
X023476Y009523D01*
X023556Y009683D02*
X023236Y009683D01*
X023236Y009764D02*
X023316Y009844D01*
X023476Y009844D01*
X023556Y009764D01*
X023556Y009683D01*
X023752Y009523D02*
X023752Y009844D01*
X023992Y009844D01*
X024072Y009764D01*
X024072Y009523D01*
X024347Y009603D02*
X024347Y009924D01*
X024267Y009844D02*
X024427Y009844D01*
X024347Y009603D02*
X024427Y009523D01*
X022841Y010273D02*
X022841Y010514D01*
X022760Y010594D01*
X022520Y010594D01*
X022520Y010273D01*
X022325Y010433D02*
X022005Y010433D01*
X022005Y010353D02*
X022005Y010514D01*
X022085Y010594D01*
X022245Y010594D01*
X022325Y010514D01*
X022325Y010433D01*
X022245Y010273D02*
X022085Y010273D01*
X022005Y010353D01*
X021809Y010353D02*
X021809Y010514D01*
X021729Y010594D01*
X021489Y010594D01*
X021489Y010113D01*
X021414Y010004D02*
X021253Y010004D01*
X021173Y009924D01*
X021173Y009844D01*
X021253Y009764D01*
X021414Y009764D01*
X021494Y009683D01*
X021494Y009603D01*
X021414Y009523D01*
X021253Y009523D01*
X021173Y009603D01*
X021494Y009924D02*
X021414Y010004D01*
X021489Y010273D02*
X021729Y010273D01*
X021809Y010353D01*
X021294Y010353D02*
X021294Y010674D01*
X021214Y010754D01*
X021053Y010754D01*
X020973Y010674D01*
X020973Y010353D01*
X021053Y010273D01*
X021214Y010273D01*
X021294Y010353D01*
X021769Y009844D02*
X021929Y009844D01*
X022009Y009764D01*
X022009Y009683D01*
X021689Y009683D01*
X021689Y009603D02*
X021689Y009764D01*
X021769Y009844D01*
X021689Y009603D02*
X021769Y009523D01*
X021929Y009523D01*
X022148Y011558D02*
X022385Y011558D01*
X022385Y011873D01*
X021518Y011558D02*
X021282Y011558D01*
X021282Y011873D01*
X020885Y011873D02*
X020885Y011558D01*
X020648Y011558D01*
X020018Y011558D02*
X019782Y011558D01*
X019782Y011873D01*
X019385Y011873D02*
X019385Y011558D01*
X019148Y011558D01*
X018518Y011558D02*
X018282Y011558D01*
X018282Y011873D01*
X017385Y011873D02*
X017385Y011558D01*
X017148Y011558D01*
X016518Y011558D02*
X016282Y011558D01*
X016282Y011873D01*
X015885Y011873D02*
X015885Y011558D01*
X015648Y011558D01*
X015018Y011558D02*
X014782Y011558D01*
X014782Y011873D01*
X014385Y011873D02*
X014385Y011558D01*
X014148Y011558D01*
X013518Y011558D02*
X013282Y011558D01*
X013282Y011873D01*
X012727Y012148D02*
X012727Y011518D01*
X012722Y011502D01*
X012714Y011486D01*
X012704Y011472D01*
X012692Y011460D01*
X012677Y011450D01*
X012661Y011443D01*
X012644Y011439D01*
X012627Y011438D01*
X012609Y011440D01*
X012058Y011440D02*
X012038Y011438D01*
X012019Y011440D01*
X012000Y011446D01*
X011983Y011455D01*
X011967Y011467D01*
X011955Y011482D01*
X011946Y011500D01*
X011940Y011518D01*
X011940Y012148D01*
X011940Y012149D02*
X011946Y012167D01*
X011955Y012185D01*
X011967Y012200D01*
X011983Y012212D01*
X012000Y012221D01*
X012019Y012227D01*
X012038Y012229D01*
X012058Y012227D01*
X011727Y012148D02*
X011727Y011518D01*
X011722Y011502D01*
X011714Y011486D01*
X011704Y011472D01*
X011692Y011460D01*
X011677Y011450D01*
X011661Y011443D01*
X011644Y011439D01*
X011627Y011438D01*
X011609Y011440D01*
X011058Y011440D02*
X011038Y011438D01*
X011019Y011440D01*
X011000Y011446D01*
X010983Y011455D01*
X010967Y011467D01*
X010955Y011482D01*
X010946Y011500D01*
X010940Y011518D01*
X010940Y012148D01*
X010940Y012149D02*
X010946Y012167D01*
X010955Y012185D01*
X010967Y012200D01*
X010983Y012212D01*
X011000Y012221D01*
X011019Y012227D01*
X011038Y012229D01*
X011058Y012227D01*
X011609Y012227D02*
X011627Y012229D01*
X011644Y012228D01*
X011661Y012224D01*
X011677Y012217D01*
X011692Y012207D01*
X011704Y012195D01*
X011714Y012181D01*
X011722Y012165D01*
X011727Y012149D01*
X012609Y012227D02*
X012627Y012229D01*
X012644Y012228D01*
X012661Y012224D01*
X012677Y012217D01*
X012692Y012207D01*
X012704Y012195D01*
X012714Y012181D01*
X012722Y012165D01*
X012727Y012149D01*
X012301Y010494D02*
X012161Y010494D01*
X012091Y010424D01*
X012091Y010143D01*
X012161Y010073D01*
X012301Y010073D01*
X012371Y010143D01*
X011910Y010073D02*
X011630Y010073D01*
X011910Y010354D01*
X011910Y010424D01*
X011840Y010494D01*
X011700Y010494D01*
X011630Y010424D01*
X011463Y010494D02*
X011323Y010494D01*
X011393Y010494D02*
X011393Y010073D01*
X011323Y010073D02*
X011463Y010073D01*
X012301Y010494D02*
X012371Y010424D01*
X011648Y013849D02*
X011018Y013849D01*
X010861Y014007D01*
X010861Y014440D01*
X011806Y014440D02*
X011806Y014007D01*
X011648Y013849D01*
X012728Y014514D02*
X012939Y014514D01*
X013393Y014664D02*
X013393Y015002D01*
X013861Y015227D02*
X013861Y015818D01*
X014806Y015818D01*
X014806Y015227D01*
X015083Y015833D02*
X015583Y015833D01*
X015833Y016083D01*
X015833Y016583D01*
X015583Y016833D01*
X015083Y016833D01*
X014833Y016583D01*
X014833Y016083D01*
X015083Y015833D01*
X014806Y014440D02*
X014806Y014007D01*
X014648Y013849D01*
X014018Y013849D01*
X013861Y014007D01*
X013861Y014440D01*
X012273Y014664D02*
X012273Y015002D01*
X011806Y015227D02*
X011806Y015818D01*
X010861Y015818D01*
X010861Y015227D01*
X011440Y017518D02*
X011440Y018148D01*
X011440Y018149D02*
X011446Y018167D01*
X011455Y018185D01*
X011467Y018200D01*
X011483Y018212D01*
X011500Y018221D01*
X011519Y018227D01*
X011538Y018229D01*
X011558Y018227D01*
X012109Y018227D02*
X012127Y018229D01*
X012144Y018228D01*
X012161Y018224D01*
X012177Y018217D01*
X012192Y018207D01*
X012204Y018195D01*
X012214Y018181D01*
X012222Y018165D01*
X012227Y018149D01*
X012227Y018148D02*
X012227Y017518D01*
X012222Y017502D01*
X012214Y017486D01*
X012204Y017472D01*
X012192Y017460D01*
X012177Y017450D01*
X012161Y017443D01*
X012144Y017439D01*
X012127Y017438D01*
X012109Y017440D01*
X011558Y017440D02*
X011538Y017438D01*
X011519Y017440D01*
X011500Y017446D01*
X011483Y017455D01*
X011467Y017467D01*
X011455Y017482D01*
X011446Y017500D01*
X011440Y017518D01*
X013282Y017794D02*
X013282Y018109D01*
X013518Y018109D01*
X014148Y018109D02*
X014385Y018109D01*
X014385Y017794D01*
X014782Y017794D02*
X014782Y018109D01*
X015018Y018109D01*
X015648Y018109D02*
X015885Y018109D01*
X015885Y017794D01*
X016282Y017794D02*
X016282Y018109D01*
X016518Y018109D01*
X017148Y018109D02*
X017385Y018109D01*
X017385Y017794D01*
X018282Y017794D02*
X018282Y018109D01*
X018518Y018109D01*
X019148Y018109D02*
X019385Y018109D01*
X019385Y017794D01*
X019782Y017794D02*
X019782Y018109D01*
X020018Y018109D01*
X020648Y018109D02*
X020885Y018109D01*
X020885Y017794D01*
X021282Y017794D02*
X021282Y018109D01*
X021518Y018109D01*
X022148Y018109D02*
X022385Y018109D01*
X022385Y017794D01*
X023018Y016798D02*
X021640Y016798D01*
X021640Y016483D01*
X022625Y016483D01*
X022625Y016010D01*
X024593Y016010D02*
X024593Y013648D01*
X023018Y012861D02*
X021640Y012861D01*
X021640Y013176D01*
X022625Y013176D01*
X022625Y013648D01*
X013888Y019247D02*
X013772Y019323D01*
X013766Y019333D02*
X013888Y019425D01*
X013766Y019514D02*
X013766Y019333D01*
X013766Y019152D01*
X013684Y019723D02*
X013824Y019863D01*
X013964Y019723D01*
X013964Y020144D01*
X014144Y020144D02*
X014354Y020144D01*
X014424Y020074D01*
X014424Y019934D01*
X014354Y019863D01*
X014144Y019863D01*
X014144Y019723D02*
X014144Y020144D01*
X013684Y020144D02*
X013684Y019723D01*
X013504Y019934D02*
X013434Y019863D01*
X013223Y019863D01*
X013223Y019723D02*
X013223Y020144D01*
X013434Y020144D01*
X013504Y020074D01*
X013504Y019934D01*
X014284Y019863D02*
X014424Y019723D01*
X017023Y020773D02*
X017023Y021194D01*
X017304Y021194D01*
X017484Y021194D02*
X017764Y021194D01*
X017624Y021194D02*
X017624Y020773D01*
X017944Y020773D02*
X018154Y020773D01*
X018224Y020843D01*
X018224Y021124D01*
X018154Y021194D01*
X017944Y021194D01*
X017944Y020773D01*
X018405Y020773D02*
X018545Y020773D01*
X018475Y020773D02*
X018475Y021194D01*
X018405Y021194D02*
X018545Y021194D01*
X017163Y020984D02*
X017023Y020984D01*
X014574Y021623D02*
X014364Y021834D01*
X014294Y021763D02*
X014574Y022044D01*
X014294Y022044D02*
X014294Y021623D01*
X014114Y021623D02*
X013834Y021623D01*
X013834Y022044D01*
X013654Y021974D02*
X013654Y021904D01*
X013584Y021834D01*
X013373Y021834D01*
X013373Y022044D02*
X013584Y022044D01*
X013654Y021974D01*
X013584Y021834D02*
X013654Y021763D01*
X013654Y021693D01*
X013584Y021623D01*
X013373Y021623D01*
X013373Y022044D01*
X021073Y021974D02*
X021073Y021693D01*
X021143Y021623D01*
X021284Y021623D01*
X021354Y021693D01*
X021354Y021834D01*
X021213Y021834D01*
X021073Y021974D02*
X021143Y022044D01*
X021284Y022044D01*
X021354Y021974D01*
X021534Y022044D02*
X021534Y021623D01*
X021534Y021763D02*
X021744Y021763D01*
X021814Y021834D01*
X021814Y021974D01*
X021744Y022044D01*
X021534Y022044D01*
X021674Y021763D02*
X021814Y021623D01*
X021994Y021623D02*
X021994Y022044D01*
X022274Y021623D01*
X022274Y022044D01*
D11*
X020782Y014834D02*
X020388Y014834D01*
X020585Y014230D02*
X020585Y013837D01*
X020388Y014034D02*
X020782Y014034D01*
X018461Y000979D02*
X018461Y000388D01*
X018363Y000388D02*
X018560Y000388D01*
X018793Y000487D02*
X018891Y000388D01*
X019088Y000388D01*
X019186Y000585D02*
X018793Y000585D01*
X018793Y000487D02*
X018793Y000684D01*
X018891Y000782D01*
X019088Y000782D01*
X019186Y000684D01*
X019186Y000585D01*
X018461Y000979D02*
X018363Y000979D01*
X018112Y000979D02*
X018112Y000388D01*
X017817Y000388D01*
X017719Y000487D01*
X017719Y000684D01*
X017817Y000782D01*
X018112Y000782D01*
X017387Y000782D02*
X017387Y000388D01*
X017289Y000388D02*
X017486Y000388D01*
X017038Y000585D02*
X016644Y000585D01*
X016644Y000487D02*
X016644Y000684D01*
X016743Y000782D01*
X016940Y000782D01*
X017038Y000684D01*
X017038Y000585D01*
X016940Y000388D02*
X016743Y000388D01*
X016644Y000487D01*
X016393Y000487D02*
X016295Y000388D01*
X016098Y000388D01*
X016000Y000487D01*
X016098Y000684D02*
X016295Y000684D01*
X016393Y000585D01*
X016393Y000487D01*
X016098Y000684D02*
X016000Y000782D01*
X016000Y000880D01*
X016098Y000979D01*
X016295Y000979D01*
X016393Y000880D01*
X017289Y000782D02*
X017387Y000782D01*
X017387Y000979D02*
X017387Y001077D01*
X015131Y000487D02*
X015131Y000388D01*
X015033Y000388D01*
X015033Y000487D01*
X015131Y000487D01*
X014782Y000388D02*
X014782Y000979D01*
X014388Y000979D02*
X014782Y000388D01*
X014388Y000388D02*
X014388Y000979D01*
D12*
X020218Y015418D02*
X020218Y015799D01*
X020408Y015799D01*
X020472Y015735D01*
X020472Y015608D01*
X020408Y015545D01*
X020218Y015545D01*
X020345Y015545D02*
X020472Y015418D01*
X020633Y015418D02*
X020886Y015799D01*
X020633Y015799D02*
X020886Y015418D01*
D13*
X019785Y014833D02*
X017833Y012882D01*
X015981Y014735D01*
X015981Y014932D01*
X017833Y016785D01*
X019785Y014833D01*
X016165Y014833D02*
X016167Y014856D01*
X016173Y014879D01*
X016182Y014900D01*
X016195Y014920D01*
X016211Y014937D01*
X016229Y014951D01*
X016249Y014962D01*
X016271Y014970D01*
X016294Y014974D01*
X016318Y014974D01*
X016341Y014970D01*
X016363Y014962D01*
X016383Y014951D01*
X016401Y014937D01*
X016417Y014920D01*
X016430Y014900D01*
X016439Y014879D01*
X016445Y014856D01*
X016447Y014833D01*
X016445Y014810D01*
X016439Y014787D01*
X016430Y014766D01*
X016417Y014746D01*
X016401Y014729D01*
X016383Y014715D01*
X016363Y014704D01*
X016341Y014696D01*
X016318Y014692D01*
X016294Y014692D01*
X016271Y014696D01*
X016249Y014704D01*
X016229Y014715D01*
X016211Y014729D01*
X016195Y014746D01*
X016182Y014766D01*
X016173Y014787D01*
X016167Y014810D01*
X016165Y014833D01*
X012109Y018470D02*
X012052Y018413D01*
X011938Y018413D01*
X011882Y018470D01*
X011882Y018697D01*
X011938Y018754D01*
X012052Y018754D01*
X012109Y018697D01*
X011740Y018697D02*
X011683Y018754D01*
X011570Y018754D01*
X011513Y018697D01*
X011513Y018470D01*
X011570Y018413D01*
X011683Y018413D01*
X011740Y018470D01*
X011503Y011359D02*
X011503Y011132D01*
X011503Y011245D02*
X011163Y011245D01*
X011276Y011132D01*
X011276Y010990D02*
X011503Y010990D01*
X011333Y010990D02*
X011333Y010763D01*
X011276Y010763D02*
X011163Y010877D01*
X011276Y010990D01*
X011276Y010763D02*
X011503Y010763D01*
X012163Y010877D02*
X012276Y010990D01*
X012503Y010990D01*
X012447Y011132D02*
X012220Y011359D01*
X012447Y011359D01*
X012503Y011302D01*
X012503Y011188D01*
X012447Y011132D01*
X012220Y011132D01*
X012163Y011188D01*
X012163Y011302D01*
X012220Y011359D01*
X012333Y010990D02*
X012333Y010763D01*
X012276Y010763D02*
X012163Y010877D01*
X012276Y010763D02*
X012503Y010763D01*
D14*
X013333Y007833D02*
X014333Y007833D01*
X015333Y007833D02*
X016333Y007833D01*
X017333Y007833D02*
X018333Y007833D01*
X019333Y007833D02*
X022333Y007833D01*
D15*
X012833Y007833D02*
X012833Y008433D01*
X013083Y008683D01*
X014583Y008683D02*
X014833Y008433D01*
X015083Y008683D01*
X014833Y008433D02*
X014833Y007833D01*
X016583Y008683D02*
X016833Y008433D01*
X017083Y008683D01*
X016833Y008433D02*
X016833Y007833D01*
X018583Y008683D02*
X018833Y008433D01*
X019083Y008683D01*
X018833Y008433D02*
X018833Y007833D01*
X022583Y008683D02*
X022833Y008433D01*
X022833Y007833D01*
D16*
X015437Y013411D02*
X015426Y013396D01*
X015437Y013411D01*
X015453Y013430D01*
X015471Y013446D01*
X015507Y013469D01*
X015546Y013483D01*
X015587Y013489D01*
X015666Y013487D01*
X015705Y013479D01*
X015740Y013463D01*
X015771Y013438D01*
X015791Y013416D01*
X015806Y013390D01*
X015816Y013362D01*
X015826Y013319D01*
X015829Y013274D01*
X015829Y012859D01*
X015668Y012859D01*
X015668Y013239D01*
X015666Y013268D01*
X015658Y013296D01*
X015645Y013322D01*
X015633Y013338D01*
X015617Y013351D01*
X015599Y013360D01*
X015587Y013364D01*
X015573Y013364D01*
X015529Y013362D01*
X015507Y013359D01*
X015485Y013350D01*
X015466Y013337D01*
X015252Y013337D01*
X015252Y013329D02*
X015459Y013329D01*
X015466Y013337D02*
X015445Y013314D01*
X015430Y013286D01*
X015252Y013286D01*
X015252Y013278D02*
X015428Y013278D01*
X015430Y013286D02*
X015422Y013256D01*
X015418Y013224D01*
X015418Y012855D01*
X015252Y012855D01*
X015252Y013474D01*
X015411Y013474D01*
X015411Y013387D01*
X015414Y013387D01*
X015418Y013388D01*
X015421Y013390D01*
X015426Y013396D01*
X015427Y013397D02*
X015802Y013397D01*
X015806Y013388D02*
X015418Y013388D01*
X015414Y013387D02*
X015411Y013387D01*
X015411Y013474D01*
X015252Y013474D01*
X015252Y012855D01*
X015418Y012855D01*
X015418Y013197D01*
X015418Y013193D02*
X015252Y013193D01*
X015252Y013201D02*
X015418Y013201D01*
X015418Y013210D02*
X015252Y013210D01*
X015252Y013218D02*
X015418Y013218D01*
X015419Y013227D02*
X015252Y013227D01*
X015252Y013235D02*
X015419Y013235D01*
X015420Y013244D02*
X015252Y013244D01*
X015252Y013252D02*
X015421Y013252D01*
X015423Y013261D02*
X015252Y013261D01*
X015252Y013269D02*
X015425Y013269D01*
X015435Y013295D02*
X015252Y013295D01*
X015252Y013303D02*
X015439Y013303D01*
X015444Y013312D02*
X015252Y013312D01*
X015252Y013320D02*
X015451Y013320D01*
X015479Y013346D02*
X015252Y013346D01*
X015252Y013354D02*
X015495Y013354D01*
X015539Y013363D02*
X015252Y013363D01*
X015252Y013371D02*
X015813Y013371D01*
X015816Y013363D02*
X015590Y013363D01*
X015611Y013354D02*
X015818Y013354D01*
X015820Y013346D02*
X015624Y013346D01*
X015634Y013337D02*
X015822Y013337D01*
X015824Y013329D02*
X015640Y013329D01*
X015646Y013320D02*
X015825Y013320D01*
X015826Y013312D02*
X015650Y013312D01*
X015816Y013362D02*
X015809Y013383D01*
X015799Y013403D01*
X015786Y013422D01*
X015771Y013438D01*
X015770Y013439D02*
X015464Y013439D01*
X015454Y013431D02*
X015778Y013431D01*
X015785Y013422D02*
X015447Y013422D01*
X015439Y013414D02*
X015792Y013414D01*
X015797Y013405D02*
X015433Y013405D01*
X015421Y013390D02*
X015418Y013388D01*
X015414Y013387D01*
X015411Y013388D02*
X015252Y013388D01*
X015252Y013380D02*
X015810Y013380D01*
X015827Y013303D02*
X015655Y013303D01*
X015658Y013295D02*
X015828Y013295D01*
X015828Y013286D02*
X015661Y013286D01*
X015663Y013278D02*
X015829Y013278D01*
X015829Y013274D02*
X015829Y012859D01*
X015668Y012859D01*
X015668Y013239D01*
X015668Y013235D02*
X015829Y013235D01*
X015829Y013227D02*
X015668Y013227D01*
X015668Y013218D02*
X015829Y013218D01*
X015829Y013210D02*
X015668Y013210D01*
X015668Y013201D02*
X015829Y013201D01*
X015829Y013193D02*
X015668Y013193D01*
X015668Y013184D02*
X015829Y013184D01*
X015829Y013176D02*
X015668Y013176D01*
X015668Y013167D02*
X015829Y013167D01*
X015829Y013159D02*
X015668Y013159D01*
X015668Y013150D02*
X015829Y013150D01*
X015829Y013142D02*
X015668Y013142D01*
X015668Y013133D02*
X015829Y013133D01*
X015829Y013125D02*
X015668Y013125D01*
X015668Y013116D02*
X015829Y013116D01*
X015829Y013108D02*
X015668Y013108D01*
X015668Y013099D02*
X015829Y013099D01*
X015829Y013091D02*
X015668Y013091D01*
X015668Y013082D02*
X015829Y013082D01*
X015829Y013074D02*
X015668Y013074D01*
X015668Y013065D02*
X015829Y013065D01*
X015829Y013057D02*
X015668Y013057D01*
X015668Y013048D02*
X015829Y013048D01*
X015829Y013040D02*
X015668Y013040D01*
X015668Y013031D02*
X015829Y013031D01*
X015829Y013023D02*
X015668Y013023D01*
X015668Y013014D02*
X015829Y013014D01*
X015829Y013006D02*
X015668Y013006D01*
X015668Y012997D02*
X015829Y012997D01*
X015829Y012989D02*
X015668Y012989D01*
X015668Y012980D02*
X015829Y012980D01*
X015829Y012972D02*
X015668Y012972D01*
X015668Y012963D02*
X015829Y012963D01*
X015829Y012955D02*
X015668Y012955D01*
X015668Y012946D02*
X015829Y012946D01*
X015829Y012938D02*
X015668Y012938D01*
X015668Y012929D02*
X015829Y012929D01*
X015829Y012921D02*
X015668Y012921D01*
X015668Y012912D02*
X015829Y012912D01*
X015829Y012904D02*
X015668Y012904D01*
X015668Y012895D02*
X015829Y012895D01*
X015829Y012887D02*
X015668Y012887D01*
X015668Y012878D02*
X015829Y012878D01*
X015829Y012870D02*
X015668Y012870D01*
X015668Y012861D02*
X015829Y012861D01*
X015666Y013488D02*
X015627Y013490D01*
X015587Y013489D01*
X015542Y013482D02*
X015693Y013482D01*
X015718Y013473D02*
X015519Y013473D01*
X015501Y013465D02*
X015736Y013465D01*
X015748Y013456D02*
X015487Y013456D01*
X015474Y013448D02*
X015759Y013448D01*
X015771Y013438D02*
X015754Y013454D01*
X015734Y013467D01*
X015712Y013477D01*
X015690Y013483D01*
X015667Y013487D01*
X015471Y013446D02*
X015453Y013430D01*
X015437Y013411D01*
X015411Y013414D02*
X015252Y013414D01*
X015252Y013422D02*
X015411Y013422D01*
X015411Y013431D02*
X015252Y013431D01*
X015252Y013439D02*
X015411Y013439D01*
X015411Y013448D02*
X015252Y013448D01*
X015252Y013456D02*
X015411Y013456D01*
X015411Y013465D02*
X015252Y013465D01*
X015252Y013473D02*
X015411Y013473D01*
X015427Y013396D02*
X015422Y013390D01*
X015411Y013397D02*
X015252Y013397D01*
X015252Y013405D02*
X015411Y013405D01*
X015817Y013363D02*
X015824Y013334D01*
X015828Y013304D01*
X015830Y013274D01*
X015829Y013269D02*
X015665Y013269D01*
X015666Y013261D02*
X015829Y013261D01*
X015829Y013252D02*
X015667Y013252D01*
X015668Y013244D02*
X015829Y013244D01*
X015430Y013286D02*
X015424Y013266D01*
X015420Y013245D01*
X015418Y013224D01*
X015418Y013184D02*
X015252Y013184D01*
X015252Y013176D02*
X015418Y013176D01*
X015418Y013167D02*
X015252Y013167D01*
X015252Y013159D02*
X015418Y013159D01*
X015418Y013150D02*
X015252Y013150D01*
X015252Y013142D02*
X015418Y013142D01*
X015418Y013133D02*
X015252Y013133D01*
X015252Y013125D02*
X015418Y013125D01*
X015418Y013116D02*
X015252Y013116D01*
X015252Y013108D02*
X015418Y013108D01*
X015418Y013099D02*
X015252Y013099D01*
X015252Y013091D02*
X015418Y013091D01*
X015418Y013082D02*
X015252Y013082D01*
X015252Y013074D02*
X015418Y013074D01*
X015418Y013065D02*
X015252Y013065D01*
X015252Y013057D02*
X015418Y013057D01*
X015418Y013048D02*
X015252Y013048D01*
X015252Y013040D02*
X015418Y013040D01*
X015418Y013031D02*
X015252Y013031D01*
X015252Y013023D02*
X015418Y013023D01*
X015418Y013014D02*
X015252Y013014D01*
X015252Y013006D02*
X015418Y013006D01*
X015418Y012997D02*
X015252Y012997D01*
X015252Y012989D02*
X015418Y012989D01*
X015418Y012980D02*
X015252Y012980D01*
X015252Y012972D02*
X015418Y012972D01*
X015418Y012963D02*
X015252Y012963D01*
X015252Y012955D02*
X015418Y012955D01*
X015418Y012946D02*
X015252Y012946D01*
X015252Y012938D02*
X015418Y012938D01*
X015418Y012929D02*
X015252Y012929D01*
X015252Y012921D02*
X015418Y012921D01*
X015418Y012912D02*
X015252Y012912D01*
X015252Y012904D02*
X015418Y012904D01*
X015418Y012895D02*
X015252Y012895D01*
X015252Y012887D02*
X015418Y012887D01*
X015418Y012878D02*
X015252Y012878D01*
X015252Y012870D02*
X015418Y012870D01*
X015418Y012861D02*
X015252Y012861D01*
X015154Y012861D02*
X014996Y012861D01*
X014996Y012858D02*
X015154Y012858D01*
X015154Y013473D01*
X014988Y013473D01*
X014988Y013146D01*
X014985Y013097D01*
X014976Y013049D01*
X014968Y013027D01*
X014954Y013007D01*
X014936Y012990D01*
X014915Y012978D01*
X014887Y012970D01*
X014858Y012967D01*
X014828Y012970D01*
X014800Y012979D01*
X014784Y012989D01*
X014584Y012989D01*
X014582Y012997D02*
X014774Y012997D01*
X014770Y013001D02*
X014758Y013016D01*
X014744Y013048D01*
X014576Y013048D01*
X014575Y013050D02*
X014579Y013007D01*
X014591Y012965D01*
X014610Y012926D01*
X014636Y012891D01*
X014646Y012882D01*
X014682Y012862D01*
X014721Y012848D01*
X014761Y012842D01*
X014820Y012844D01*
X014878Y012852D01*
X014889Y012856D01*
X014898Y012860D01*
X014935Y012886D01*
X014968Y012917D01*
X014995Y012952D01*
X014996Y012952D01*
X014996Y012858D01*
X014996Y012870D02*
X015154Y012870D01*
X015154Y012878D02*
X014996Y012878D01*
X014996Y012887D02*
X015154Y012887D01*
X015154Y012895D02*
X014996Y012895D01*
X014996Y012904D02*
X015154Y012904D01*
X015154Y012912D02*
X014996Y012912D01*
X014996Y012921D02*
X015154Y012921D01*
X015154Y012929D02*
X014996Y012929D01*
X014996Y012938D02*
X015154Y012938D01*
X015154Y012946D02*
X014996Y012946D01*
X014991Y012946D02*
X014600Y012946D01*
X014605Y012938D02*
X014984Y012938D01*
X014977Y012929D02*
X014609Y012929D01*
X014614Y012921D02*
X014970Y012921D01*
X014962Y012912D02*
X014621Y012912D01*
X014627Y012904D02*
X014953Y012904D01*
X014944Y012895D02*
X014633Y012895D01*
X014641Y012887D02*
X014935Y012887D01*
X014924Y012878D02*
X014653Y012878D01*
X014668Y012870D02*
X014912Y012870D01*
X014900Y012861D02*
X014683Y012861D01*
X014707Y012853D02*
X014880Y012853D01*
X014825Y012844D02*
X014748Y012844D01*
X014799Y012980D02*
X014587Y012980D01*
X014589Y012972D02*
X014824Y012972D01*
X014784Y012989D02*
X014770Y013001D01*
X014766Y013006D02*
X014580Y013006D01*
X014579Y013014D02*
X014760Y013014D01*
X014755Y013023D02*
X014578Y013023D01*
X014577Y013031D02*
X014752Y013031D01*
X014748Y013040D02*
X014576Y013040D01*
X014575Y013050D02*
X014575Y013475D01*
X014738Y013475D01*
X014738Y013081D01*
X014744Y013048D01*
X014743Y013057D02*
X014575Y013057D01*
X014575Y013065D02*
X014741Y013065D01*
X014740Y013074D02*
X014575Y013074D01*
X014575Y013082D02*
X014738Y013082D01*
X014738Y013091D02*
X014575Y013091D01*
X014575Y013099D02*
X014738Y013099D01*
X014738Y013108D02*
X014575Y013108D01*
X014575Y013116D02*
X014738Y013116D01*
X014738Y013125D02*
X014575Y013125D01*
X014575Y013133D02*
X014738Y013133D01*
X014738Y013142D02*
X014575Y013142D01*
X014575Y013150D02*
X014738Y013150D01*
X014738Y013159D02*
X014575Y013159D01*
X014575Y013167D02*
X014738Y013167D01*
X014738Y013176D02*
X014575Y013176D01*
X014575Y013184D02*
X014738Y013184D01*
X014738Y013193D02*
X014575Y013193D01*
X014575Y013201D02*
X014738Y013201D01*
X014738Y013210D02*
X014575Y013210D01*
X014575Y013218D02*
X014738Y013218D01*
X014738Y013227D02*
X014575Y013227D01*
X014575Y013235D02*
X014738Y013235D01*
X014738Y013244D02*
X014575Y013244D01*
X014575Y013252D02*
X014738Y013252D01*
X014738Y013261D02*
X014575Y013261D01*
X014575Y013269D02*
X014738Y013269D01*
X014738Y013278D02*
X014575Y013278D01*
X014575Y013286D02*
X014738Y013286D01*
X014738Y013295D02*
X014575Y013295D01*
X014575Y013303D02*
X014738Y013303D01*
X014738Y013312D02*
X014575Y013312D01*
X014575Y013320D02*
X014738Y013320D01*
X014738Y013329D02*
X014575Y013329D01*
X014575Y013337D02*
X014738Y013337D01*
X014738Y013346D02*
X014575Y013346D01*
X014575Y013354D02*
X014738Y013354D01*
X014738Y013363D02*
X014575Y013363D01*
X014575Y013371D02*
X014738Y013371D01*
X014738Y013380D02*
X014575Y013380D01*
X014575Y013388D02*
X014738Y013388D01*
X014738Y013397D02*
X014575Y013397D01*
X014575Y013405D02*
X014738Y013405D01*
X014738Y013414D02*
X014575Y013414D01*
X014575Y013422D02*
X014738Y013422D01*
X014738Y013431D02*
X014575Y013431D01*
X014575Y013439D02*
X014738Y013439D01*
X014738Y013448D02*
X014575Y013448D01*
X014575Y013456D02*
X014738Y013456D01*
X014738Y013465D02*
X014575Y013465D01*
X014575Y013473D02*
X014738Y013473D01*
X014517Y013473D02*
X014183Y013473D01*
X014237Y013473D01*
X014237Y013491D01*
X014244Y013575D01*
X014418Y013575D01*
X014418Y013576D02*
X014410Y013565D01*
X014403Y013547D01*
X014400Y013528D01*
X014400Y013473D01*
X014517Y013473D01*
X014517Y013368D01*
X014399Y013368D01*
X014399Y012855D01*
X014235Y012855D01*
X014235Y013367D01*
X014078Y013368D01*
X014183Y013473D01*
X014175Y013465D02*
X014517Y013465D01*
X014517Y013456D02*
X014166Y013456D01*
X014158Y013448D02*
X014517Y013448D01*
X014517Y013439D02*
X014149Y013439D01*
X014141Y013431D02*
X014517Y013431D01*
X014517Y013422D02*
X014132Y013422D01*
X014124Y013414D02*
X014517Y013414D01*
X014517Y013405D02*
X014115Y013405D01*
X014107Y013397D02*
X014517Y013397D01*
X014517Y013388D02*
X014098Y013388D01*
X014090Y013380D02*
X014517Y013380D01*
X014517Y013371D02*
X014081Y013371D01*
X014036Y013422D02*
X013853Y013422D01*
X013845Y013414D02*
X014027Y013414D01*
X014019Y013405D02*
X013836Y013405D01*
X013828Y013397D02*
X014010Y013397D01*
X014001Y013388D02*
X013819Y013388D01*
X013811Y013380D02*
X013993Y013380D01*
X013984Y013371D02*
X013802Y013371D01*
X013794Y013363D02*
X013975Y013363D01*
X013967Y013354D02*
X013785Y013354D01*
X013777Y013346D02*
X013958Y013346D01*
X013949Y013337D02*
X013768Y013337D01*
X013760Y013329D02*
X013941Y013329D01*
X013932Y013320D02*
X013751Y013320D01*
X013743Y013312D02*
X013923Y013312D01*
X013914Y013303D02*
X013734Y013303D01*
X013726Y013295D02*
X013906Y013295D01*
X013897Y013286D02*
X013717Y013286D01*
X013709Y013278D02*
X013888Y013278D01*
X013880Y013269D02*
X013700Y013269D01*
X013692Y013261D02*
X013871Y013261D01*
X013862Y013252D02*
X013683Y013252D01*
X013679Y013252D02*
X013516Y013252D01*
X013516Y013244D02*
X013865Y013244D01*
X013860Y013250D02*
X014122Y012857D01*
X013922Y012858D01*
X013754Y013135D01*
X013752Y013138D01*
X013681Y013069D01*
X013681Y012854D01*
X013518Y012854D01*
X013516Y012856D01*
X013516Y013617D01*
X013679Y013710D01*
X013679Y013248D01*
X013903Y013472D01*
X014087Y013472D01*
X013860Y013250D01*
X013870Y013235D02*
X013516Y013235D01*
X013516Y013227D02*
X013876Y013227D01*
X013882Y013218D02*
X013516Y013218D01*
X013516Y013210D02*
X013887Y013210D01*
X013893Y013201D02*
X013516Y013201D01*
X013516Y013193D02*
X013899Y013193D01*
X013904Y013184D02*
X013516Y013184D01*
X013516Y013176D02*
X013910Y013176D01*
X013916Y013167D02*
X013516Y013167D01*
X013516Y013159D02*
X013921Y013159D01*
X013927Y013150D02*
X013516Y013150D01*
X013516Y013142D02*
X013933Y013142D01*
X013938Y013133D02*
X013756Y013133D01*
X013747Y013133D02*
X013516Y013133D01*
X013516Y013125D02*
X013738Y013125D01*
X013730Y013116D02*
X013516Y013116D01*
X013516Y013108D02*
X013721Y013108D01*
X013712Y013099D02*
X013516Y013099D01*
X013516Y013091D02*
X013703Y013091D01*
X013695Y013082D02*
X013516Y013082D01*
X013516Y013074D02*
X013686Y013074D01*
X013681Y013065D02*
X013516Y013065D01*
X013516Y013057D02*
X013681Y013057D01*
X013681Y013048D02*
X013516Y013048D01*
X013516Y013040D02*
X013681Y013040D01*
X013681Y013031D02*
X013516Y013031D01*
X013516Y013023D02*
X013681Y013023D01*
X013681Y013014D02*
X013516Y013014D01*
X013516Y013006D02*
X013681Y013006D01*
X013681Y012997D02*
X013516Y012997D01*
X013516Y012989D02*
X013681Y012989D01*
X013681Y012980D02*
X013516Y012980D01*
X013516Y012972D02*
X013681Y012972D01*
X013681Y012963D02*
X013516Y012963D01*
X013516Y012955D02*
X013681Y012955D01*
X013681Y012946D02*
X013516Y012946D01*
X013516Y012938D02*
X013681Y012938D01*
X013681Y012929D02*
X013516Y012929D01*
X013516Y012921D02*
X013681Y012921D01*
X013681Y012912D02*
X013516Y012912D01*
X013516Y012904D02*
X013681Y012904D01*
X013681Y012895D02*
X013516Y012895D01*
X013516Y012887D02*
X013681Y012887D01*
X013681Y012878D02*
X013516Y012878D01*
X013516Y012870D02*
X013681Y012870D01*
X013681Y012861D02*
X013516Y012861D01*
X013213Y012861D02*
X013049Y012861D01*
X013049Y012859D02*
X013213Y012859D01*
X013213Y013167D01*
X013050Y013167D01*
X013050Y013159D02*
X013213Y013159D01*
X013213Y013167D02*
X013216Y013201D01*
X013224Y013234D01*
X013239Y013266D01*
X013260Y013295D01*
X013287Y013317D01*
X013307Y013328D01*
X013328Y013336D01*
X013350Y013339D01*
X013411Y013339D01*
X013435Y013334D01*
X013441Y013333D01*
X013442Y013333D01*
X013442Y013485D01*
X013388Y013488D01*
X013361Y013485D01*
X013334Y013476D01*
X013310Y013462D01*
X013275Y013439D01*
X013442Y013439D01*
X013442Y013431D02*
X013264Y013431D01*
X013260Y013427D02*
X013275Y013439D01*
X013288Y013448D02*
X013442Y013448D01*
X013442Y013456D02*
X013301Y013456D01*
X013315Y013465D02*
X013442Y013465D01*
X013442Y013473D02*
X013329Y013473D01*
X013351Y013482D02*
X013442Y013482D01*
X013442Y013422D02*
X013256Y013422D01*
X013260Y013427D02*
X013247Y013412D01*
X013220Y013371D01*
X013442Y013371D01*
X013442Y013363D02*
X013215Y013363D01*
X013212Y013359D02*
X013220Y013371D01*
X013226Y013380D02*
X013442Y013380D01*
X013442Y013388D02*
X013232Y013388D01*
X013237Y013397D02*
X013442Y013397D01*
X013442Y013405D02*
X013243Y013405D01*
X013249Y013414D02*
X013442Y013414D01*
X013442Y013354D02*
X013050Y013354D01*
X013050Y013346D02*
X013442Y013346D01*
X013442Y013337D02*
X013421Y013337D01*
X013338Y013337D02*
X013050Y013337D01*
X013050Y013329D02*
X013309Y013329D01*
X013293Y013320D02*
X013050Y013320D01*
X013050Y013312D02*
X013281Y013312D01*
X013271Y013303D02*
X013050Y013303D01*
X013050Y013295D02*
X013261Y013295D01*
X013254Y013286D02*
X013050Y013286D01*
X013050Y013278D02*
X013248Y013278D01*
X013241Y013269D02*
X013050Y013269D01*
X013050Y013261D02*
X013236Y013261D01*
X013232Y013252D02*
X013050Y013252D01*
X013050Y013244D02*
X013229Y013244D01*
X013225Y013235D02*
X013050Y013235D01*
X013050Y013227D02*
X013222Y013227D01*
X013220Y013218D02*
X013050Y013218D01*
X013050Y013210D02*
X013218Y013210D01*
X013216Y013201D02*
X013050Y013201D01*
X013050Y013193D02*
X013216Y013193D01*
X013215Y013184D02*
X013050Y013184D01*
X013050Y013176D02*
X013214Y013176D01*
X013213Y013150D02*
X013050Y013150D01*
X013050Y013142D02*
X013213Y013142D01*
X013213Y013133D02*
X013050Y013133D01*
X013050Y013125D02*
X013213Y013125D01*
X013213Y013116D02*
X013050Y013116D01*
X013050Y013108D02*
X013213Y013108D01*
X013213Y013099D02*
X013050Y013099D01*
X013050Y013091D02*
X013213Y013091D01*
X013213Y013082D02*
X013050Y013082D01*
X013050Y013074D02*
X013213Y013074D01*
X013213Y013065D02*
X013050Y013065D01*
X013050Y013057D02*
X013213Y013057D01*
X013213Y013048D02*
X013050Y013048D01*
X013050Y013040D02*
X013213Y013040D01*
X013213Y013031D02*
X013050Y013031D01*
X013050Y013023D02*
X013213Y013023D01*
X013213Y013014D02*
X013050Y013014D01*
X013050Y013006D02*
X013213Y013006D01*
X013213Y012997D02*
X013050Y012997D01*
X013050Y012989D02*
X013213Y012989D01*
X013213Y012980D02*
X013050Y012980D01*
X013050Y012972D02*
X013213Y012972D01*
X013213Y012963D02*
X013049Y012963D01*
X013049Y012955D02*
X013213Y012955D01*
X013213Y012946D02*
X013049Y012946D01*
X013049Y012938D02*
X013213Y012938D01*
X013213Y012929D02*
X013049Y012929D01*
X013049Y012921D02*
X013213Y012921D01*
X013213Y012912D02*
X013049Y012912D01*
X013049Y012904D02*
X013213Y012904D01*
X013213Y012895D02*
X013049Y012895D01*
X013049Y012887D02*
X013213Y012887D01*
X013213Y012878D02*
X013049Y012878D01*
X013049Y012870D02*
X013213Y012870D01*
X013049Y012859D02*
X013050Y013445D01*
X013202Y013472D01*
X013202Y013359D01*
X013206Y013357D01*
X013212Y013359D01*
X013202Y013363D02*
X013050Y013363D01*
X013050Y013371D02*
X013202Y013371D01*
X013202Y013380D02*
X013050Y013380D01*
X013050Y013388D02*
X013202Y013388D01*
X013202Y013397D02*
X013050Y013397D01*
X013050Y013405D02*
X013202Y013405D01*
X013202Y013414D02*
X013050Y013414D01*
X013050Y013422D02*
X013202Y013422D01*
X013202Y013431D02*
X013050Y013431D01*
X013050Y013439D02*
X013202Y013439D01*
X013202Y013448D02*
X013064Y013448D01*
X013112Y013456D02*
X013202Y013456D01*
X013202Y013465D02*
X013160Y013465D01*
X012934Y013380D02*
X012725Y013380D01*
X012739Y013374D01*
X012752Y013366D01*
X012763Y013356D01*
X012771Y013345D01*
X012777Y013331D01*
X012782Y013310D01*
X012782Y013288D01*
X012777Y013266D01*
X012775Y013262D01*
X012772Y013257D01*
X012760Y013246D01*
X012743Y013236D01*
X012723Y013229D01*
X012671Y013220D01*
X012584Y013211D01*
X012524Y013200D01*
X012465Y013181D01*
X012438Y013167D01*
X012414Y013147D01*
X012394Y013123D01*
X012377Y013089D01*
X012369Y013052D01*
X012369Y013011D01*
X012377Y012969D01*
X012391Y012930D01*
X012403Y012911D01*
X012418Y012895D01*
X012435Y012881D01*
X012485Y012857D01*
X012539Y012845D01*
X012604Y012844D01*
X012667Y012853D01*
X012708Y012867D01*
X012746Y012888D01*
X012778Y012916D01*
X012780Y012918D01*
X012783Y012918D01*
X012785Y012917D01*
X012787Y012916D01*
X012788Y012913D01*
X012797Y012872D01*
X012800Y012861D01*
X012963Y012861D01*
X012963Y012859D02*
X012960Y012867D01*
X012946Y012919D01*
X012942Y012972D01*
X012732Y012972D01*
X012728Y012968D02*
X012716Y012961D01*
X012702Y012955D01*
X012660Y012949D01*
X012599Y012951D01*
X012580Y012955D01*
X012562Y012964D01*
X012547Y012976D01*
X012539Y012987D01*
X012533Y012999D01*
X012530Y013012D01*
X012530Y013036D01*
X012534Y013060D01*
X012543Y013082D01*
X012376Y013082D01*
X012374Y013074D02*
X012540Y013074D01*
X012543Y013082D02*
X012552Y013095D01*
X012563Y013105D01*
X012583Y013117D01*
X012604Y013125D01*
X012626Y013129D01*
X012683Y013135D01*
X012722Y013142D01*
X012760Y013153D01*
X012768Y013158D01*
X012775Y013164D01*
X012780Y013171D01*
X012782Y013171D01*
X012782Y013147D01*
X012942Y013147D01*
X012942Y013337D01*
X012775Y013337D01*
X012778Y013329D02*
X012942Y013329D01*
X012942Y013337D02*
X012939Y013366D01*
X012928Y013393D01*
X012911Y013417D01*
X012889Y013436D01*
X012838Y013464D01*
X012782Y013480D01*
X012714Y013489D01*
X012645Y013490D01*
X012576Y013481D01*
X012528Y013468D01*
X012482Y013447D01*
X012450Y013425D01*
X012423Y013396D01*
X012403Y013362D01*
X012390Y013325D01*
X012384Y013286D01*
X012383Y013287D01*
X012550Y013287D01*
X012550Y013289D01*
X012553Y013311D01*
X012561Y013332D01*
X012573Y013350D01*
X012589Y013365D01*
X012608Y013375D01*
X012631Y013382D01*
X012655Y013384D01*
X012709Y013382D01*
X012725Y013380D01*
X012744Y013371D02*
X012937Y013371D01*
X012939Y013363D02*
X012756Y013363D01*
X012765Y013354D02*
X012940Y013354D01*
X012941Y013346D02*
X012771Y013346D01*
X012780Y013320D02*
X012942Y013320D01*
X012942Y013312D02*
X012782Y013312D01*
X012782Y013303D02*
X012942Y013303D01*
X012942Y013295D02*
X012782Y013295D01*
X012782Y013286D02*
X012942Y013286D01*
X012942Y013278D02*
X012780Y013278D01*
X012778Y013269D02*
X012942Y013269D01*
X012942Y013261D02*
X012775Y013261D01*
X012767Y013252D02*
X012942Y013252D01*
X012942Y013244D02*
X012756Y013244D01*
X012740Y013235D02*
X012942Y013235D01*
X012942Y013227D02*
X012709Y013227D01*
X012651Y013218D02*
X012942Y013218D01*
X012942Y013210D02*
X012576Y013210D01*
X012529Y013201D02*
X012942Y013201D01*
X012942Y013193D02*
X012501Y013193D01*
X012474Y013184D02*
X012942Y013184D01*
X012942Y013176D02*
X012455Y013176D01*
X012439Y013167D02*
X012778Y013167D01*
X012782Y013167D02*
X012942Y013167D01*
X012942Y013159D02*
X012782Y013159D01*
X012782Y013150D02*
X012942Y013150D01*
X012943Y013143D02*
X012782Y013143D01*
X012782Y013110D01*
X012780Y013067D01*
X012771Y013024D01*
X012769Y013017D01*
X012765Y013007D01*
X012758Y012997D01*
X012942Y012997D01*
X012942Y012989D02*
X012749Y012989D01*
X012741Y012980D02*
X012942Y012980D01*
X012942Y012972D02*
X012943Y013143D01*
X012943Y013142D02*
X012782Y013142D01*
X012782Y013133D02*
X012943Y013133D01*
X012943Y013125D02*
X012782Y013125D01*
X012782Y013116D02*
X012943Y013116D01*
X012943Y013108D02*
X012782Y013108D01*
X012782Y013099D02*
X012943Y013099D01*
X012943Y013091D02*
X012781Y013091D01*
X012781Y013082D02*
X012943Y013082D01*
X012943Y013074D02*
X012780Y013074D01*
X012779Y013065D02*
X012943Y013065D01*
X012943Y013057D02*
X012778Y013057D01*
X012776Y013048D02*
X012943Y013048D01*
X012943Y013040D02*
X012774Y013040D01*
X012773Y013031D02*
X012943Y013031D01*
X012943Y013023D02*
X012771Y013023D01*
X012768Y013014D02*
X012943Y013014D01*
X012943Y013006D02*
X012764Y013006D01*
X012758Y012997D02*
X012728Y012968D01*
X012720Y012963D02*
X012943Y012963D01*
X012944Y012955D02*
X012698Y012955D01*
X012743Y012887D02*
X012428Y012887D01*
X012417Y012895D02*
X012754Y012895D01*
X012764Y012904D02*
X012410Y012904D01*
X012402Y012912D02*
X012774Y012912D01*
X012789Y012912D02*
X012948Y012912D01*
X012951Y012904D02*
X012790Y012904D01*
X012792Y012895D02*
X012953Y012895D01*
X012955Y012887D02*
X012794Y012887D01*
X012796Y012878D02*
X012957Y012878D01*
X012960Y012870D02*
X012798Y012870D01*
X012800Y012861D02*
X012801Y012860D01*
X012803Y012859D01*
X012804Y012859D01*
X012963Y012859D01*
X012946Y012921D02*
X012397Y012921D01*
X012392Y012929D02*
X012946Y012929D01*
X012945Y012938D02*
X012389Y012938D01*
X012385Y012946D02*
X012944Y012946D01*
X012728Y012878D02*
X012442Y012878D01*
X012460Y012870D02*
X012713Y012870D01*
X012691Y012861D02*
X012477Y012861D01*
X012506Y012853D02*
X012664Y012853D01*
X012607Y012844D02*
X012585Y012844D01*
X012583Y012955D02*
X012382Y012955D01*
X012379Y012963D02*
X012564Y012963D01*
X012553Y012972D02*
X012376Y012972D01*
X012375Y012980D02*
X012544Y012980D01*
X012538Y012989D02*
X012373Y012989D01*
X012372Y012997D02*
X012534Y012997D01*
X012532Y013006D02*
X012370Y013006D01*
X012369Y013014D02*
X012530Y013014D01*
X012530Y013023D02*
X012369Y013023D01*
X012369Y013031D02*
X012530Y013031D01*
X012531Y013040D02*
X012369Y013040D01*
X012369Y013048D02*
X012532Y013048D01*
X012534Y013057D02*
X012370Y013057D01*
X012372Y013065D02*
X012536Y013065D01*
X012549Y013091D02*
X012378Y013091D01*
X012382Y013099D02*
X012557Y013099D01*
X012567Y013108D02*
X012387Y013108D01*
X012391Y013116D02*
X012582Y013116D01*
X012603Y013125D02*
X012396Y013125D01*
X012402Y013133D02*
X012664Y013133D01*
X012721Y013142D02*
X012409Y013142D01*
X012418Y013150D02*
X012750Y013150D01*
X012770Y013159D02*
X012428Y013159D01*
X012307Y013167D02*
X012144Y013167D01*
X012144Y013159D02*
X012306Y013159D01*
X012306Y013150D02*
X012144Y013150D01*
X012144Y013142D02*
X012305Y013142D01*
X012305Y013133D02*
X012143Y013133D01*
X012144Y013141D02*
X012144Y013219D01*
X012137Y013259D01*
X012120Y013295D01*
X012096Y013327D01*
X012065Y013352D01*
X012045Y013363D01*
X012022Y013369D01*
X011999Y013371D01*
X011956Y013369D01*
X011941Y013366D01*
X011926Y013359D01*
X011897Y013337D01*
X011873Y013309D01*
X011857Y013281D01*
X011846Y013249D01*
X011841Y013216D01*
X011842Y013115D01*
X011847Y013084D01*
X011856Y013057D01*
X011685Y013057D01*
X011685Y013065D02*
X011854Y013065D01*
X011856Y013057D02*
X011857Y013056D01*
X011856Y013054D01*
X011855Y013054D01*
X011853Y013053D01*
X011848Y013053D01*
X011848Y012490D01*
X011685Y012637D01*
X011685Y013447D01*
X011838Y013476D01*
X011837Y013397D01*
X011840Y013394D01*
X011842Y013393D01*
X011851Y013403D01*
X011886Y013441D01*
X011900Y013453D01*
X011915Y013462D01*
X011967Y013483D01*
X011986Y013487D01*
X012064Y013488D01*
X012107Y013481D01*
X012147Y013465D01*
X012183Y013444D01*
X012215Y013418D01*
X012246Y013383D01*
X012269Y013342D01*
X012296Y013259D01*
X012307Y013173D01*
X012302Y013085D01*
X012290Y013031D01*
X012268Y012980D01*
X012237Y012933D01*
X012211Y012906D01*
X012181Y012882D01*
X012148Y012865D01*
X012111Y012853D01*
X012064Y012846D01*
X012015Y012845D01*
X011967Y012851D01*
X011934Y012862D01*
X011904Y012879D01*
X011878Y012902D01*
X011857Y012930D01*
X011857Y013047D01*
X011860Y013050D01*
X011860Y013048D01*
X011858Y013048D01*
X011860Y013048D02*
X011861Y013045D01*
X011863Y013041D01*
X011865Y013038D01*
X011877Y013016D01*
X011894Y012996D01*
X011915Y012981D01*
X011943Y012970D01*
X011972Y012963D01*
X012009Y012963D01*
X012045Y012970D01*
X012076Y012984D01*
X012101Y013005D01*
X012121Y013032D01*
X012132Y013063D01*
X012144Y013141D01*
X012142Y013125D02*
X012304Y013125D01*
X012304Y013116D02*
X012141Y013116D01*
X012139Y013108D02*
X012304Y013108D01*
X012303Y013099D02*
X012138Y013099D01*
X012137Y013091D02*
X012303Y013091D01*
X012302Y013082D02*
X012135Y013082D01*
X012134Y013074D02*
X012300Y013074D01*
X012298Y013065D02*
X012133Y013065D01*
X012130Y013057D02*
X012296Y013057D01*
X012294Y013048D02*
X012127Y013048D01*
X012123Y013040D02*
X012292Y013040D01*
X012290Y013031D02*
X012120Y013031D01*
X012114Y013023D02*
X012286Y013023D01*
X012282Y013014D02*
X012108Y013014D01*
X012102Y013006D02*
X012279Y013006D01*
X012275Y012997D02*
X012091Y012997D01*
X012081Y012989D02*
X012272Y012989D01*
X012268Y012980D02*
X012067Y012980D01*
X012048Y012972D02*
X012262Y012972D01*
X012257Y012963D02*
X012010Y012963D01*
X011981Y012963D02*
X011857Y012963D01*
X011857Y012955D02*
X012251Y012955D01*
X012246Y012946D02*
X011857Y012946D01*
X011857Y012938D02*
X012240Y012938D01*
X012234Y012929D02*
X011858Y012929D01*
X011848Y012929D02*
X011685Y012929D01*
X011685Y012921D02*
X011848Y012921D01*
X011848Y012912D02*
X011685Y012912D01*
X011685Y012904D02*
X011848Y012904D01*
X011848Y012895D02*
X011685Y012895D01*
X011685Y012887D02*
X011848Y012887D01*
X011848Y012878D02*
X011685Y012878D01*
X011685Y012870D02*
X011848Y012870D01*
X011848Y012861D02*
X011685Y012861D01*
X011685Y012853D02*
X011848Y012853D01*
X011848Y012844D02*
X011685Y012844D01*
X011685Y012836D02*
X011848Y012836D01*
X011848Y012827D02*
X011685Y012827D01*
X011685Y012819D02*
X011848Y012819D01*
X011848Y012810D02*
X011685Y012810D01*
X011685Y012802D02*
X011848Y012802D01*
X011848Y012793D02*
X011685Y012793D01*
X011685Y012785D02*
X011848Y012785D01*
X011848Y012776D02*
X011685Y012776D01*
X011685Y012768D02*
X011848Y012768D01*
X011848Y012759D02*
X011685Y012759D01*
X011685Y012751D02*
X011848Y012751D01*
X011848Y012742D02*
X011685Y012742D01*
X011685Y012734D02*
X011848Y012734D01*
X011848Y012725D02*
X011685Y012725D01*
X011685Y012717D02*
X011848Y012717D01*
X011848Y012708D02*
X011685Y012708D01*
X011685Y012700D02*
X011848Y012700D01*
X011848Y012691D02*
X011685Y012691D01*
X011685Y012683D02*
X011848Y012683D01*
X011848Y012674D02*
X011685Y012674D01*
X011685Y012666D02*
X011848Y012666D01*
X011848Y012657D02*
X011685Y012657D01*
X011685Y012649D02*
X011848Y012649D01*
X011848Y012640D02*
X011685Y012640D01*
X011692Y012632D02*
X011848Y012632D01*
X011848Y012623D02*
X011701Y012623D01*
X011710Y012615D02*
X011848Y012615D01*
X011848Y012606D02*
X011720Y012606D01*
X011729Y012598D02*
X011848Y012598D01*
X011848Y012589D02*
X011739Y012589D01*
X011748Y012581D02*
X011848Y012581D01*
X011848Y012572D02*
X011757Y012572D01*
X011767Y012564D02*
X011848Y012564D01*
X011848Y012555D02*
X011776Y012555D01*
X011786Y012547D02*
X011848Y012547D01*
X011848Y012538D02*
X011795Y012538D01*
X011805Y012530D02*
X011848Y012530D01*
X011848Y012521D02*
X011814Y012521D01*
X011823Y012513D02*
X011848Y012513D01*
X011848Y012504D02*
X011833Y012504D01*
X011842Y012496D02*
X011848Y012496D01*
X011963Y012853D02*
X012108Y012853D01*
X012136Y012861D02*
X011936Y012861D01*
X011920Y012870D02*
X012157Y012870D01*
X012173Y012878D02*
X011905Y012878D01*
X011895Y012887D02*
X012187Y012887D01*
X012198Y012895D02*
X011886Y012895D01*
X011877Y012904D02*
X012209Y012904D01*
X012218Y012912D02*
X011870Y012912D01*
X011864Y012921D02*
X012226Y012921D01*
X012144Y013176D02*
X012307Y013176D01*
X012305Y013184D02*
X012144Y013184D01*
X012144Y013193D02*
X012304Y013193D01*
X012303Y013201D02*
X012144Y013201D01*
X012144Y013210D02*
X012302Y013210D01*
X012301Y013218D02*
X012144Y013218D01*
X012143Y013227D02*
X012300Y013227D01*
X012299Y013235D02*
X012141Y013235D01*
X012140Y013244D02*
X012298Y013244D01*
X012297Y013252D02*
X012138Y013252D01*
X012136Y013261D02*
X012295Y013261D01*
X012293Y013269D02*
X012132Y013269D01*
X012128Y013278D02*
X012290Y013278D01*
X012287Y013286D02*
X012124Y013286D01*
X012120Y013295D02*
X012284Y013295D01*
X012282Y013303D02*
X012114Y013303D01*
X012108Y013312D02*
X012279Y013312D01*
X012276Y013320D02*
X012101Y013320D01*
X012094Y013329D02*
X012274Y013329D01*
X012271Y013337D02*
X012083Y013337D01*
X012073Y013346D02*
X012267Y013346D01*
X012263Y013354D02*
X012062Y013354D01*
X012045Y013363D02*
X012258Y013363D01*
X012253Y013371D02*
X012000Y013371D01*
X011999Y013371D02*
X011685Y013371D01*
X011685Y013363D02*
X011934Y013363D01*
X011920Y013354D02*
X011685Y013354D01*
X011685Y013346D02*
X011909Y013346D01*
X011898Y013337D02*
X011685Y013337D01*
X011685Y013329D02*
X011890Y013329D01*
X011883Y013320D02*
X011685Y013320D01*
X011685Y013312D02*
X011876Y013312D01*
X011870Y013303D02*
X011685Y013303D01*
X011685Y013295D02*
X011865Y013295D01*
X011860Y013286D02*
X011685Y013286D01*
X011685Y013278D02*
X011856Y013278D01*
X011853Y013269D02*
X011685Y013269D01*
X011685Y013261D02*
X011850Y013261D01*
X011847Y013252D02*
X011685Y013252D01*
X011685Y013244D02*
X011845Y013244D01*
X011844Y013235D02*
X011685Y013235D01*
X011685Y013227D02*
X011843Y013227D01*
X011842Y013218D02*
X011685Y013218D01*
X011685Y013210D02*
X011841Y013210D01*
X011841Y013201D02*
X011685Y013201D01*
X011685Y013193D02*
X011842Y013193D01*
X011842Y013184D02*
X011685Y013184D01*
X011685Y013176D02*
X011842Y013176D01*
X011842Y013167D02*
X011685Y013167D01*
X011685Y013159D02*
X011842Y013159D01*
X011842Y013150D02*
X011685Y013150D01*
X011685Y013142D02*
X011842Y013142D01*
X011842Y013133D02*
X011685Y013133D01*
X011685Y013125D02*
X011842Y013125D01*
X011842Y013116D02*
X011685Y013116D01*
X011685Y013108D02*
X011844Y013108D01*
X011845Y013099D02*
X011685Y013099D01*
X011685Y013091D02*
X011846Y013091D01*
X011848Y013082D02*
X011685Y013082D01*
X011685Y013074D02*
X011851Y013074D01*
X011848Y013048D02*
X011685Y013048D01*
X011685Y013040D02*
X011848Y013040D01*
X011848Y013031D02*
X011685Y013031D01*
X011685Y013023D02*
X011848Y013023D01*
X011848Y013014D02*
X011685Y013014D01*
X011685Y013006D02*
X011848Y013006D01*
X011848Y012997D02*
X011685Y012997D01*
X011685Y012989D02*
X011848Y012989D01*
X011848Y012980D02*
X011685Y012980D01*
X011685Y012972D02*
X011848Y012972D01*
X011848Y012963D02*
X011685Y012963D01*
X011685Y012955D02*
X011848Y012955D01*
X011848Y012946D02*
X011685Y012946D01*
X011685Y012938D02*
X011848Y012938D01*
X011857Y012972D02*
X011938Y012972D01*
X011918Y012980D02*
X011857Y012980D01*
X011857Y012989D02*
X011905Y012989D01*
X011893Y012997D02*
X011857Y012997D01*
X011857Y013006D02*
X011886Y013006D01*
X011879Y013014D02*
X011857Y013014D01*
X011857Y013023D02*
X011874Y013023D01*
X011869Y013031D02*
X011857Y013031D01*
X011857Y013040D02*
X011864Y013040D01*
X011603Y013049D02*
X011600Y013091D01*
X011586Y013130D01*
X011576Y013147D01*
X011563Y013160D01*
X011536Y013180D01*
X011506Y013196D01*
X011441Y013220D01*
X011373Y013235D01*
X011293Y013251D01*
X011263Y013262D01*
X011235Y013279D01*
X011223Y013292D01*
X011215Y013307D01*
X011213Y013323D01*
X011215Y013340D01*
X011221Y013354D01*
X011166Y013354D01*
X011168Y013346D02*
X011217Y013346D01*
X011214Y013337D02*
X011169Y013337D01*
X011171Y013329D02*
X011213Y013329D01*
X011213Y013320D02*
X011172Y013320D01*
X011174Y013312D02*
X011215Y013312D01*
X011217Y013303D02*
X011175Y013303D01*
X011177Y013295D02*
X011222Y013295D01*
X011229Y013286D02*
X011178Y013286D01*
X011180Y013278D02*
X011238Y013278D01*
X011252Y013269D02*
X011181Y013269D01*
X011354Y013166D01*
X011521Y013075D01*
X011478Y012947D01*
X011323Y012912D01*
X011038Y013053D01*
X011319Y012905D01*
X011481Y012941D01*
X011525Y013072D01*
X011518Y013086D01*
X011193Y013275D01*
X011174Y013383D01*
X011323Y013428D01*
X011489Y013375D01*
X011566Y013318D01*
X011585Y013332D01*
X011577Y013354D01*
X011518Y013354D01*
X011529Y013346D02*
X011580Y013346D01*
X011577Y013354D02*
X011563Y013385D01*
X011552Y013403D01*
X011538Y013418D01*
X011501Y013448D01*
X011130Y013448D01*
X011117Y013441D02*
X011099Y013427D01*
X011083Y013409D01*
X011071Y013388D01*
X011191Y013388D01*
X011189Y013397D02*
X011448Y013397D01*
X011449Y013388D02*
X011561Y013388D01*
X011566Y013380D02*
X011475Y013380D01*
X011477Y013388D02*
X011161Y013388D01*
X011160Y013389D02*
X011181Y013269D01*
X011193Y013278D02*
X011054Y013278D01*
X011054Y013286D02*
X011191Y013286D01*
X011190Y013295D02*
X011053Y013295D01*
X011052Y013301D02*
X011056Y013256D01*
X011062Y013237D01*
X011072Y013219D01*
X011085Y013204D01*
X011112Y013183D01*
X011142Y013166D01*
X011173Y013154D01*
X011316Y013120D01*
X011363Y013108D01*
X011407Y013089D01*
X011422Y013080D01*
X011433Y013067D01*
X011440Y013051D01*
X011444Y013035D01*
X011443Y013017D01*
X011438Y013001D01*
X011430Y012986D01*
X011417Y012974D01*
X011396Y012961D01*
X011373Y012953D01*
X011348Y012950D01*
X011295Y012950D01*
X011272Y012953D01*
X011248Y012962D01*
X011227Y012976D01*
X011208Y012994D01*
X011198Y013012D01*
X011192Y013031D01*
X011190Y013051D01*
X011190Y013053D01*
X011038Y013053D01*
X011039Y013039D01*
X011043Y013016D01*
X011060Y012966D01*
X011073Y012943D01*
X011089Y012922D01*
X011109Y012905D01*
X011156Y012875D01*
X011190Y012860D01*
X011226Y012851D01*
X011327Y012844D01*
X011380Y012846D01*
X011431Y012853D01*
X011471Y012864D01*
X011508Y012882D01*
X011541Y012906D01*
X011569Y012935D01*
X011584Y012958D01*
X011595Y012982D01*
X011600Y013008D01*
X011603Y013049D01*
X011603Y013048D02*
X011512Y013048D01*
X011517Y013048D02*
X011441Y013048D01*
X011443Y013040D02*
X011514Y013040D01*
X011509Y013040D02*
X011603Y013040D01*
X011602Y013031D02*
X011507Y013031D01*
X011512Y013031D02*
X011444Y013031D01*
X011444Y013023D02*
X011509Y013023D01*
X011504Y013023D02*
X011601Y013023D01*
X011601Y013014D02*
X011501Y013014D01*
X011506Y013014D02*
X011442Y013014D01*
X011440Y013006D02*
X011503Y013006D01*
X011498Y013006D02*
X011600Y013006D01*
X011598Y012997D02*
X011495Y012997D01*
X011500Y012997D02*
X011436Y012997D01*
X011431Y012989D02*
X011497Y012989D01*
X011492Y012989D02*
X011596Y012989D01*
X011594Y012980D02*
X011489Y012980D01*
X011494Y012980D02*
X011423Y012980D01*
X011413Y012972D02*
X011492Y012972D01*
X011487Y012972D02*
X011590Y012972D01*
X011587Y012963D02*
X011484Y012963D01*
X011489Y012963D02*
X011399Y012963D01*
X011377Y012955D02*
X011486Y012955D01*
X011481Y012955D02*
X011582Y012955D01*
X011577Y012946D02*
X011474Y012946D01*
X011483Y012946D02*
X011242Y012946D01*
X011238Y012955D02*
X011066Y012955D01*
X011062Y012963D02*
X011220Y012963D01*
X011225Y012955D02*
X011268Y012955D01*
X011255Y012946D02*
X011071Y012946D01*
X011077Y012938D02*
X011272Y012938D01*
X011274Y012929D02*
X011427Y012929D01*
X011436Y012938D02*
X011571Y012938D01*
X011563Y012929D02*
X011398Y012929D01*
X011389Y012921D02*
X011290Y012921D01*
X011289Y012929D02*
X011083Y012929D01*
X011091Y012921D02*
X011306Y012921D01*
X011306Y012912D02*
X011351Y012912D01*
X011361Y012921D02*
X011555Y012921D01*
X011547Y012912D02*
X011101Y012912D01*
X011112Y012904D02*
X011538Y012904D01*
X011526Y012895D02*
X011125Y012895D01*
X011138Y012887D02*
X011514Y012887D01*
X011499Y012878D02*
X011152Y012878D01*
X011168Y012870D02*
X011482Y012870D01*
X011459Y012861D02*
X011187Y012861D01*
X011220Y012853D02*
X011427Y012853D01*
X011465Y012938D02*
X011258Y012938D01*
X011247Y012963D02*
X011209Y012963D01*
X011203Y012972D02*
X011058Y012972D01*
X011056Y012980D02*
X011186Y012980D01*
X011177Y012980D02*
X011222Y012980D01*
X011214Y012989D02*
X011161Y012989D01*
X011169Y012989D02*
X011053Y012989D01*
X011050Y012997D02*
X011152Y012997D01*
X011145Y012997D02*
X011207Y012997D01*
X011201Y013006D02*
X011129Y013006D01*
X011134Y013006D02*
X011047Y013006D01*
X011044Y013014D02*
X011117Y013014D01*
X011112Y013014D02*
X011197Y013014D01*
X011194Y013023D02*
X011096Y013023D01*
X011100Y013023D02*
X011042Y013023D01*
X011041Y013031D02*
X011083Y013031D01*
X011080Y013031D02*
X011192Y013031D01*
X011191Y013040D02*
X011064Y013040D01*
X011066Y013040D02*
X011039Y013040D01*
X011039Y013048D02*
X011049Y013048D01*
X011048Y013048D02*
X011191Y013048D01*
X011193Y012972D02*
X011233Y012972D01*
X011262Y013133D02*
X011438Y013133D01*
X011431Y013125D02*
X011588Y013125D01*
X011585Y013133D02*
X011415Y013133D01*
X011423Y013142D02*
X011226Y013142D01*
X011190Y013150D02*
X011408Y013150D01*
X011399Y013142D02*
X011579Y013142D01*
X011573Y013150D02*
X011384Y013150D01*
X011394Y013159D02*
X011162Y013159D01*
X011140Y013167D02*
X011379Y013167D01*
X011368Y013159D02*
X011565Y013159D01*
X011554Y013167D02*
X011353Y013167D01*
X011365Y013176D02*
X011125Y013176D01*
X011111Y013184D02*
X011350Y013184D01*
X011338Y013176D02*
X011542Y013176D01*
X011529Y013184D02*
X011324Y013184D01*
X011335Y013193D02*
X011100Y013193D01*
X011089Y013201D02*
X011321Y013201D01*
X011310Y013193D02*
X011513Y013193D01*
X011493Y013201D02*
X011296Y013201D01*
X011306Y013210D02*
X011081Y013210D01*
X011073Y013218D02*
X011291Y013218D01*
X011281Y013210D02*
X011470Y013210D01*
X011447Y013218D02*
X011267Y013218D01*
X011277Y013227D02*
X011068Y013227D01*
X011063Y013235D02*
X011262Y013235D01*
X011253Y013227D02*
X011412Y013227D01*
X011374Y013235D02*
X011238Y013235D01*
X011248Y013244D02*
X011060Y013244D01*
X011058Y013252D02*
X011233Y013252D01*
X011224Y013244D02*
X011331Y013244D01*
X011291Y013252D02*
X011210Y013252D01*
X011218Y013261D02*
X011056Y013261D01*
X011055Y013269D02*
X011204Y013269D01*
X011196Y013261D02*
X011267Y013261D01*
X011188Y013303D02*
X011052Y013303D01*
X011052Y013301D02*
X011057Y013346D01*
X011181Y013346D01*
X011179Y013354D02*
X011060Y013354D01*
X011057Y013346D02*
X011071Y013388D01*
X011069Y013380D02*
X011175Y013380D01*
X011176Y013371D02*
X011066Y013371D01*
X011063Y013363D02*
X011178Y013363D01*
X011165Y013363D02*
X011229Y013363D01*
X011231Y013366D02*
X011244Y013374D01*
X011262Y013381D01*
X011280Y013384D01*
X011314Y013386D01*
X011348Y013384D01*
X011369Y013380D01*
X011388Y013373D01*
X011405Y013361D01*
X011417Y013350D01*
X011426Y013337D01*
X011432Y013322D01*
X011435Y013312D01*
X011435Y013301D01*
X011588Y013301D01*
X011585Y013329D01*
X011430Y013329D01*
X011433Y013320D02*
X011586Y013320D01*
X011587Y013312D02*
X011435Y013312D01*
X011435Y013303D02*
X011588Y013303D01*
X011569Y013320D02*
X011564Y013320D01*
X011552Y013329D02*
X011581Y013329D01*
X011585Y013329D02*
X011504Y013380D01*
X011325Y013432D01*
X011160Y013389D01*
X011162Y013380D02*
X011259Y013380D01*
X011240Y013371D02*
X011163Y013371D01*
X011182Y013337D02*
X011056Y013337D01*
X011055Y013329D02*
X011184Y013329D01*
X011185Y013320D02*
X011054Y013320D01*
X011053Y013312D02*
X011187Y013312D01*
X011221Y013354D02*
X011231Y013366D01*
X011219Y013397D02*
X011076Y013397D01*
X011081Y013405D02*
X011247Y013405D01*
X011254Y013414D02*
X011389Y013414D01*
X011396Y013405D02*
X011550Y013405D01*
X011556Y013397D02*
X011422Y013397D01*
X011418Y013405D02*
X011222Y013405D01*
X011275Y013414D02*
X011087Y013414D01*
X011095Y013422D02*
X011303Y013422D01*
X011287Y013422D02*
X011360Y013422D01*
X011369Y013414D02*
X011542Y013414D01*
X011533Y013422D02*
X011342Y013422D01*
X011331Y013431D02*
X011319Y013431D01*
X011349Y013489D02*
X011278Y013489D01*
X011222Y013483D01*
X011168Y013467D01*
X011117Y013441D01*
X011115Y013439D02*
X011512Y013439D01*
X011523Y013431D02*
X011104Y013431D01*
X011147Y013456D02*
X011484Y013456D01*
X011501Y013448D02*
X011457Y013469D01*
X011404Y013484D01*
X011349Y013489D01*
X011412Y013482D02*
X011217Y013482D01*
X011189Y013473D02*
X011443Y013473D01*
X011467Y013465D02*
X011163Y013465D01*
X011370Y013380D02*
X011505Y013380D01*
X011495Y013371D02*
X011570Y013371D01*
X011574Y013363D02*
X011506Y013363D01*
X011519Y013371D02*
X011390Y013371D01*
X011403Y013363D02*
X011532Y013363D01*
X011546Y013354D02*
X011413Y013354D01*
X011420Y013346D02*
X011559Y013346D01*
X011573Y013337D02*
X011426Y013337D01*
X011541Y013337D02*
X011584Y013337D01*
X011685Y013380D02*
X012248Y013380D01*
X012242Y013388D02*
X011685Y013388D01*
X011685Y013397D02*
X011838Y013397D01*
X011845Y013397D02*
X012234Y013397D01*
X012227Y013405D02*
X011853Y013405D01*
X011861Y013414D02*
X012219Y013414D01*
X012210Y013422D02*
X011869Y013422D01*
X011877Y013431D02*
X012200Y013431D01*
X012189Y013439D02*
X011884Y013439D01*
X011894Y013448D02*
X012177Y013448D01*
X012162Y013456D02*
X011905Y013456D01*
X011921Y013465D02*
X012148Y013465D01*
X012127Y013473D02*
X011942Y013473D01*
X011964Y013482D02*
X012103Y013482D01*
X011838Y013473D02*
X011822Y013473D01*
X011838Y013465D02*
X011777Y013465D01*
X011733Y013456D02*
X011838Y013456D01*
X011838Y013448D02*
X011688Y013448D01*
X011685Y013439D02*
X011838Y013439D01*
X011838Y013431D02*
X011685Y013431D01*
X011685Y013422D02*
X011838Y013422D01*
X011838Y013414D02*
X011685Y013414D01*
X011685Y013405D02*
X011837Y013405D01*
X011591Y013116D02*
X011446Y013116D01*
X011452Y013125D02*
X011298Y013125D01*
X011332Y013116D02*
X011467Y013116D01*
X011462Y013108D02*
X011594Y013108D01*
X011597Y013099D02*
X011477Y013099D01*
X011481Y013108D02*
X011364Y013108D01*
X011384Y013099D02*
X011496Y013099D01*
X011493Y013091D02*
X011600Y013091D01*
X011600Y013082D02*
X011509Y013082D01*
X011511Y013091D02*
X011404Y013091D01*
X011418Y013082D02*
X011520Y013082D01*
X011521Y013074D02*
X011601Y013074D01*
X011602Y013065D02*
X011518Y013065D01*
X011523Y013065D02*
X011433Y013065D01*
X011438Y013057D02*
X011520Y013057D01*
X011515Y013057D02*
X011603Y013057D01*
X011525Y013074D02*
X011427Y013074D01*
X012385Y013295D02*
X012551Y013295D01*
X012552Y013303D02*
X012387Y013303D01*
X012388Y013312D02*
X012553Y013312D01*
X012556Y013320D02*
X012389Y013320D01*
X012391Y013329D02*
X012559Y013329D01*
X012564Y013337D02*
X012394Y013337D01*
X012397Y013346D02*
X012570Y013346D01*
X012578Y013354D02*
X012400Y013354D01*
X012403Y013363D02*
X012587Y013363D01*
X012601Y013371D02*
X012408Y013371D01*
X012413Y013380D02*
X012623Y013380D01*
X012580Y013482D02*
X012771Y013482D01*
X012806Y013473D02*
X012547Y013473D01*
X012521Y013465D02*
X012834Y013465D01*
X012852Y013456D02*
X012502Y013456D01*
X012483Y013448D02*
X012868Y013448D01*
X012884Y013439D02*
X012471Y013439D01*
X012459Y013431D02*
X012896Y013431D01*
X012906Y013422D02*
X012448Y013422D01*
X012440Y013414D02*
X012914Y013414D01*
X012920Y013405D02*
X012432Y013405D01*
X012424Y013397D02*
X012926Y013397D01*
X012930Y013388D02*
X012419Y013388D01*
X013516Y013388D02*
X013679Y013388D01*
X013679Y013380D02*
X013516Y013380D01*
X013516Y013371D02*
X013679Y013371D01*
X013679Y013363D02*
X013516Y013363D01*
X013516Y013354D02*
X013679Y013354D01*
X013679Y013346D02*
X013516Y013346D01*
X013516Y013337D02*
X013679Y013337D01*
X013679Y013329D02*
X013516Y013329D01*
X013516Y013320D02*
X013679Y013320D01*
X013679Y013312D02*
X013516Y013312D01*
X013516Y013303D02*
X013679Y013303D01*
X013679Y013295D02*
X013516Y013295D01*
X013516Y013286D02*
X013679Y013286D01*
X013679Y013278D02*
X013516Y013278D01*
X013516Y013269D02*
X013679Y013269D01*
X013679Y013261D02*
X013516Y013261D01*
X013516Y013397D02*
X013679Y013397D01*
X013679Y013405D02*
X013516Y013405D01*
X013516Y013414D02*
X013679Y013414D01*
X013679Y013422D02*
X013516Y013422D01*
X013516Y013431D02*
X013679Y013431D01*
X013679Y013439D02*
X013516Y013439D01*
X013516Y013448D02*
X013679Y013448D01*
X013679Y013456D02*
X013516Y013456D01*
X013516Y013465D02*
X013679Y013465D01*
X013679Y013473D02*
X013516Y013473D01*
X013516Y013482D02*
X013679Y013482D01*
X013679Y013490D02*
X013516Y013490D01*
X013516Y013499D02*
X013679Y013499D01*
X013679Y013507D02*
X013516Y013507D01*
X013516Y013516D02*
X013679Y013516D01*
X013679Y013524D02*
X013516Y013524D01*
X013516Y013533D02*
X013679Y013533D01*
X013679Y013541D02*
X013516Y013541D01*
X013516Y013550D02*
X013679Y013550D01*
X013679Y013558D02*
X013516Y013558D01*
X013516Y013567D02*
X013679Y013567D01*
X013679Y013575D02*
X013516Y013575D01*
X013516Y013584D02*
X013679Y013584D01*
X013679Y013592D02*
X013516Y013592D01*
X013516Y013601D02*
X013679Y013601D01*
X013679Y013609D02*
X013516Y013609D01*
X013517Y013618D02*
X013679Y013618D01*
X013679Y013626D02*
X013532Y013626D01*
X013547Y013635D02*
X013679Y013635D01*
X013679Y013643D02*
X013562Y013643D01*
X013577Y013652D02*
X013679Y013652D01*
X013679Y013660D02*
X013592Y013660D01*
X013607Y013669D02*
X013679Y013669D01*
X013679Y013677D02*
X013621Y013677D01*
X013636Y013686D02*
X013679Y013686D01*
X013679Y013694D02*
X013651Y013694D01*
X013666Y013703D02*
X013679Y013703D01*
X013896Y013465D02*
X014080Y013465D01*
X014071Y013456D02*
X013887Y013456D01*
X013879Y013448D02*
X014062Y013448D01*
X014054Y013439D02*
X013870Y013439D01*
X013862Y013431D02*
X014045Y013431D01*
X014237Y013482D02*
X014400Y013482D01*
X014400Y013490D02*
X014237Y013490D01*
X014238Y013499D02*
X014400Y013499D01*
X014400Y013507D02*
X014239Y013507D01*
X014239Y013516D02*
X014400Y013516D01*
X014400Y013524D02*
X014240Y013524D01*
X014241Y013533D02*
X014401Y013533D01*
X014402Y013541D02*
X014241Y013541D01*
X014242Y013550D02*
X014404Y013550D01*
X014407Y013558D02*
X014243Y013558D01*
X014244Y013567D02*
X014411Y013567D01*
X014418Y013576D02*
X014429Y013583D01*
X014441Y013587D01*
X014478Y013591D01*
X014514Y013587D01*
X014525Y013586D01*
X014528Y013586D01*
X014528Y013705D01*
X014527Y013705D01*
X014475Y013708D01*
X014414Y013708D01*
X014374Y013701D01*
X014337Y013687D01*
X014303Y013665D01*
X014273Y013637D01*
X014260Y013619D01*
X014250Y013598D01*
X014244Y013575D01*
X014247Y013584D02*
X014431Y013584D01*
X014528Y013592D02*
X014249Y013592D01*
X014252Y013601D02*
X014528Y013601D01*
X014528Y013609D02*
X014256Y013609D01*
X014260Y013618D02*
X014528Y013618D01*
X014528Y013626D02*
X014265Y013626D01*
X014272Y013635D02*
X014528Y013635D01*
X014528Y013643D02*
X014280Y013643D01*
X014288Y013652D02*
X014528Y013652D01*
X014528Y013660D02*
X014297Y013660D01*
X014308Y013669D02*
X014528Y013669D01*
X014528Y013677D02*
X014322Y013677D01*
X014335Y013686D02*
X014528Y013686D01*
X014528Y013694D02*
X014356Y013694D01*
X014382Y013703D02*
X014528Y013703D01*
X014399Y013363D02*
X014235Y013363D01*
X014235Y013354D02*
X014399Y013354D01*
X014399Y013346D02*
X014235Y013346D01*
X014235Y013337D02*
X014399Y013337D01*
X014399Y013329D02*
X014235Y013329D01*
X014235Y013320D02*
X014399Y013320D01*
X014399Y013312D02*
X014235Y013312D01*
X014235Y013303D02*
X014399Y013303D01*
X014399Y013295D02*
X014235Y013295D01*
X014235Y013286D02*
X014399Y013286D01*
X014399Y013278D02*
X014235Y013278D01*
X014235Y013269D02*
X014399Y013269D01*
X014399Y013261D02*
X014235Y013261D01*
X014235Y013252D02*
X014399Y013252D01*
X014399Y013244D02*
X014235Y013244D01*
X014235Y013235D02*
X014399Y013235D01*
X014399Y013227D02*
X014235Y013227D01*
X014235Y013218D02*
X014399Y013218D01*
X014399Y013210D02*
X014235Y013210D01*
X014235Y013201D02*
X014399Y013201D01*
X014399Y013193D02*
X014235Y013193D01*
X014235Y013184D02*
X014399Y013184D01*
X014399Y013176D02*
X014235Y013176D01*
X014235Y013167D02*
X014399Y013167D01*
X014399Y013159D02*
X014235Y013159D01*
X014235Y013150D02*
X014399Y013150D01*
X014399Y013142D02*
X014235Y013142D01*
X014235Y013133D02*
X014399Y013133D01*
X014399Y013125D02*
X014235Y013125D01*
X014235Y013116D02*
X014399Y013116D01*
X014399Y013108D02*
X014235Y013108D01*
X014235Y013099D02*
X014399Y013099D01*
X014399Y013091D02*
X014235Y013091D01*
X014235Y013082D02*
X014399Y013082D01*
X014399Y013074D02*
X014235Y013074D01*
X014235Y013065D02*
X014399Y013065D01*
X014399Y013057D02*
X014235Y013057D01*
X014235Y013048D02*
X014399Y013048D01*
X014399Y013040D02*
X014235Y013040D01*
X014235Y013031D02*
X014399Y013031D01*
X014399Y013023D02*
X014235Y013023D01*
X014235Y013014D02*
X014399Y013014D01*
X014399Y013006D02*
X014235Y013006D01*
X014235Y012997D02*
X014399Y012997D01*
X014399Y012989D02*
X014235Y012989D01*
X014235Y012980D02*
X014399Y012980D01*
X014399Y012972D02*
X014235Y012972D01*
X014235Y012963D02*
X014399Y012963D01*
X014399Y012955D02*
X014235Y012955D01*
X014235Y012946D02*
X014399Y012946D01*
X014399Y012938D02*
X014235Y012938D01*
X014235Y012929D02*
X014399Y012929D01*
X014399Y012921D02*
X014235Y012921D01*
X014235Y012912D02*
X014399Y012912D01*
X014399Y012904D02*
X014235Y012904D01*
X014235Y012895D02*
X014399Y012895D01*
X014399Y012887D02*
X014235Y012887D01*
X014235Y012878D02*
X014399Y012878D01*
X014399Y012870D02*
X014235Y012870D01*
X014235Y012861D02*
X014399Y012861D01*
X014596Y012955D02*
X015154Y012955D01*
X015154Y012963D02*
X014592Y012963D01*
X014894Y012972D02*
X015154Y012972D01*
X015154Y012980D02*
X014919Y012980D01*
X014934Y012989D02*
X015154Y012989D01*
X015154Y012997D02*
X014944Y012997D01*
X014953Y013006D02*
X015154Y013006D01*
X015154Y013014D02*
X014959Y013014D01*
X014965Y013023D02*
X015154Y013023D01*
X015154Y013031D02*
X014969Y013031D01*
X014973Y013040D02*
X015154Y013040D01*
X015154Y013048D02*
X014976Y013048D01*
X014978Y013057D02*
X015154Y013057D01*
X015154Y013065D02*
X014979Y013065D01*
X014981Y013074D02*
X015154Y013074D01*
X015154Y013082D02*
X014982Y013082D01*
X014984Y013091D02*
X015154Y013091D01*
X015154Y013099D02*
X014985Y013099D01*
X014986Y013108D02*
X015154Y013108D01*
X015154Y013116D02*
X014986Y013116D01*
X014987Y013125D02*
X015154Y013125D01*
X015154Y013133D02*
X014988Y013133D01*
X014988Y013142D02*
X015154Y013142D01*
X015154Y013150D02*
X014988Y013150D01*
X014988Y013159D02*
X015154Y013159D01*
X015154Y013167D02*
X014988Y013167D01*
X014988Y013176D02*
X015154Y013176D01*
X015154Y013184D02*
X014988Y013184D01*
X014988Y013193D02*
X015154Y013193D01*
X015154Y013201D02*
X014988Y013201D01*
X014988Y013210D02*
X015154Y013210D01*
X015154Y013218D02*
X014988Y013218D01*
X014988Y013227D02*
X015154Y013227D01*
X015154Y013235D02*
X014988Y013235D01*
X014988Y013244D02*
X015154Y013244D01*
X015154Y013252D02*
X014988Y013252D01*
X014988Y013261D02*
X015154Y013261D01*
X015154Y013269D02*
X014988Y013269D01*
X014988Y013278D02*
X015154Y013278D01*
X015154Y013286D02*
X014988Y013286D01*
X014988Y013295D02*
X015154Y013295D01*
X015154Y013303D02*
X014988Y013303D01*
X014988Y013312D02*
X015154Y013312D01*
X015154Y013320D02*
X014988Y013320D01*
X014988Y013329D02*
X015154Y013329D01*
X015154Y013337D02*
X014988Y013337D01*
X014988Y013346D02*
X015154Y013346D01*
X015154Y013354D02*
X014988Y013354D01*
X014988Y013363D02*
X015154Y013363D01*
X015154Y013371D02*
X014988Y013371D01*
X014988Y013380D02*
X015154Y013380D01*
X015154Y013388D02*
X014988Y013388D01*
X014988Y013397D02*
X015154Y013397D01*
X015154Y013405D02*
X014988Y013405D01*
X014988Y013414D02*
X015154Y013414D01*
X015154Y013422D02*
X014988Y013422D01*
X014988Y013431D02*
X015154Y013431D01*
X015154Y013439D02*
X014988Y013439D01*
X014988Y013448D02*
X015154Y013448D01*
X015154Y013456D02*
X014988Y013456D01*
X014988Y013465D02*
X015154Y013465D01*
X015154Y013473D02*
X014988Y013473D01*
X015645Y013322D02*
X015655Y013302D01*
X015662Y013282D01*
X015667Y013261D01*
X015668Y013239D01*
X015588Y013489D02*
X015563Y013486D01*
X015538Y013480D01*
X015515Y013472D01*
X015492Y013460D01*
X015472Y013446D01*
X015573Y013365D02*
X015586Y013364D01*
X015599Y013361D01*
X015599Y013360D02*
X015613Y013353D01*
X015626Y013345D01*
X015636Y013334D01*
X015645Y013322D01*
X015467Y013338D02*
X015452Y013323D01*
X015440Y013306D01*
X015431Y013287D01*
X015467Y013337D02*
X015481Y013347D01*
X015496Y013355D01*
X015512Y013360D01*
X015530Y013362D01*
X015418Y013224D02*
X015418Y013198D01*
X014120Y012861D02*
X013921Y012861D01*
X013915Y012870D02*
X014114Y012870D01*
X014108Y012878D02*
X013910Y012878D01*
X013905Y012887D02*
X014103Y012887D01*
X014097Y012895D02*
X013900Y012895D01*
X013895Y012904D02*
X014091Y012904D01*
X014086Y012912D02*
X013890Y012912D01*
X013884Y012921D02*
X014080Y012921D01*
X014074Y012929D02*
X013879Y012929D01*
X013874Y012938D02*
X014069Y012938D01*
X014063Y012946D02*
X013869Y012946D01*
X013864Y012955D02*
X014057Y012955D01*
X014052Y012963D02*
X013859Y012963D01*
X013854Y012972D02*
X014046Y012972D01*
X014040Y012980D02*
X013848Y012980D01*
X013843Y012989D02*
X014035Y012989D01*
X014029Y012997D02*
X013838Y012997D01*
X013833Y013006D02*
X014023Y013006D01*
X014018Y013014D02*
X013828Y013014D01*
X013823Y013023D02*
X014012Y013023D01*
X014006Y013031D02*
X013817Y013031D01*
X013812Y013040D02*
X014001Y013040D01*
X013995Y013048D02*
X013807Y013048D01*
X013802Y013057D02*
X013989Y013057D01*
X013984Y013065D02*
X013797Y013065D01*
X013792Y013074D02*
X013978Y013074D01*
X013972Y013082D02*
X013787Y013082D01*
X013781Y013091D02*
X013967Y013091D01*
X013961Y013099D02*
X013776Y013099D01*
X013771Y013108D02*
X013955Y013108D01*
X013950Y013116D02*
X013766Y013116D01*
X013761Y013125D02*
X013944Y013125D01*
X023133Y018584D02*
X023325Y018800D01*
X023360Y018832D01*
X023399Y018855D01*
X023414Y018861D01*
X023429Y018863D01*
X023519Y018863D01*
X023573Y018868D01*
X023625Y018883D01*
X023673Y018906D01*
X023719Y018939D01*
X023133Y018939D01*
X023133Y018947D02*
X023728Y018947D01*
X023719Y018939D02*
X023760Y018977D01*
X023794Y019020D01*
X023832Y019087D01*
X023856Y019158D01*
X023868Y019233D01*
X023865Y019309D01*
X023857Y019350D01*
X023843Y019390D01*
X023823Y019426D01*
X023788Y019471D01*
X023743Y019507D01*
X023743Y019472D01*
X023743Y019467D01*
X023740Y019461D01*
X023729Y019447D01*
X023713Y019436D01*
X023705Y019433D01*
X023683Y019431D01*
X023661Y019435D01*
X023640Y019445D01*
X023604Y019471D01*
X023588Y019486D01*
X023573Y019502D01*
X023562Y019521D01*
X023553Y019541D01*
X023551Y019554D01*
X023551Y019567D01*
X023558Y019589D01*
X023570Y019608D01*
X023586Y019624D01*
X023606Y019634D01*
X023627Y019640D01*
X023647Y019642D01*
X023671Y019642D01*
X023670Y019643D01*
X023653Y019657D01*
X023633Y019665D01*
X023619Y019671D01*
X023610Y019675D01*
X023576Y019684D01*
X023540Y019687D01*
X023506Y019685D01*
X023473Y019676D01*
X023442Y019660D01*
X023412Y019638D01*
X023384Y019612D01*
X023367Y019589D01*
X023357Y019561D01*
X023353Y019532D01*
X023357Y019503D01*
X023368Y019476D01*
X023415Y019407D01*
X023472Y019346D01*
X023487Y019329D01*
X023497Y019308D01*
X023502Y019285D01*
X023500Y019262D01*
X023867Y019262D01*
X023867Y019270D02*
X023501Y019270D01*
X023500Y019262D02*
X023492Y019240D01*
X023479Y019220D01*
X023461Y019205D01*
X023439Y019193D01*
X023415Y019185D01*
X023390Y019181D01*
X023361Y019183D01*
X023333Y019191D01*
X023308Y019206D01*
X023295Y019220D01*
X023286Y019237D01*
X023282Y019255D01*
X023282Y019273D01*
X023286Y019290D01*
X023290Y019297D01*
X023295Y019302D01*
X023328Y019326D01*
X023335Y019330D01*
X023341Y019331D01*
X023348Y019330D01*
X023329Y019333D01*
X023292Y019336D01*
X023255Y019333D01*
X023228Y019326D01*
X023202Y019313D01*
X023310Y019313D01*
X023322Y019321D02*
X023218Y019321D01*
X023202Y019313D02*
X023180Y019296D01*
X023289Y019296D01*
X023286Y019287D02*
X023173Y019287D01*
X023165Y019279D02*
X023284Y019279D01*
X023282Y019270D02*
X023159Y019270D01*
X023161Y019274D02*
X023146Y019246D01*
X023136Y019214D01*
X023133Y019181D01*
X023133Y018584D01*
X023133Y018590D02*
X023139Y018590D01*
X023133Y018599D02*
X023146Y018599D01*
X023154Y018607D02*
X023133Y018607D01*
X023133Y018616D02*
X023161Y018616D01*
X023169Y018624D02*
X023133Y018624D01*
X023133Y018633D02*
X023177Y018633D01*
X023184Y018641D02*
X023133Y018641D01*
X023133Y018650D02*
X023192Y018650D01*
X023199Y018658D02*
X023133Y018658D01*
X023133Y018667D02*
X023207Y018667D01*
X023214Y018675D02*
X023133Y018675D01*
X023133Y018684D02*
X023222Y018684D01*
X023229Y018692D02*
X023133Y018692D01*
X023133Y018701D02*
X023237Y018701D01*
X023245Y018709D02*
X023133Y018709D01*
X023133Y018718D02*
X023252Y018718D01*
X023260Y018726D02*
X023133Y018726D01*
X023133Y018735D02*
X023267Y018735D01*
X023275Y018743D02*
X023133Y018743D01*
X023133Y018752D02*
X023282Y018752D01*
X023290Y018760D02*
X023133Y018760D01*
X023133Y018769D02*
X023297Y018769D01*
X023305Y018777D02*
X023133Y018777D01*
X023133Y018786D02*
X023313Y018786D01*
X023320Y018794D02*
X023133Y018794D01*
X023133Y018803D02*
X023328Y018803D01*
X023337Y018811D02*
X023133Y018811D01*
X023133Y018820D02*
X023347Y018820D01*
X023356Y018828D02*
X023133Y018828D01*
X023133Y018837D02*
X023368Y018837D01*
X023383Y018845D02*
X023133Y018845D01*
X023133Y018854D02*
X023397Y018854D01*
X023424Y018862D02*
X023133Y018862D01*
X023133Y018871D02*
X023583Y018871D01*
X023613Y018879D02*
X023133Y018879D01*
X023133Y018888D02*
X023636Y018888D01*
X023653Y018896D02*
X023133Y018896D01*
X023133Y018905D02*
X023671Y018905D01*
X023683Y018913D02*
X023133Y018913D01*
X023133Y018922D02*
X023696Y018922D01*
X023708Y018930D02*
X023133Y018930D01*
X023133Y018956D02*
X023737Y018956D01*
X023746Y018964D02*
X023133Y018964D01*
X023133Y018973D02*
X023755Y018973D01*
X023763Y018981D02*
X023133Y018981D01*
X023133Y018990D02*
X023770Y018990D01*
X023777Y018998D02*
X023133Y018998D01*
X023133Y019007D02*
X023784Y019007D01*
X023790Y019015D02*
X023133Y019015D01*
X023133Y019024D02*
X023796Y019024D01*
X023801Y019032D02*
X023133Y019032D01*
X023133Y019041D02*
X023806Y019041D01*
X023811Y019049D02*
X023133Y019049D01*
X023133Y019058D02*
X023816Y019058D01*
X023820Y019066D02*
X023133Y019066D01*
X023133Y019075D02*
X023825Y019075D01*
X023830Y019083D02*
X023133Y019083D01*
X023133Y019092D02*
X023834Y019092D01*
X023836Y019100D02*
X023133Y019100D01*
X023133Y019109D02*
X023839Y019109D01*
X023842Y019117D02*
X023133Y019117D01*
X023133Y019126D02*
X023845Y019126D01*
X023848Y019134D02*
X023133Y019134D01*
X023133Y019143D02*
X023851Y019143D01*
X023854Y019151D02*
X023133Y019151D01*
X023133Y019160D02*
X023857Y019160D01*
X023858Y019168D02*
X023133Y019168D01*
X023133Y019177D02*
X023859Y019177D01*
X023860Y019185D02*
X023416Y019185D01*
X023440Y019194D02*
X023862Y019194D01*
X023863Y019202D02*
X023456Y019202D01*
X023468Y019211D02*
X023864Y019211D01*
X023866Y019219D02*
X023478Y019219D01*
X023484Y019228D02*
X023867Y019228D01*
X023868Y019236D02*
X023490Y019236D01*
X023494Y019245D02*
X023867Y019245D01*
X023867Y019253D02*
X023497Y019253D01*
X023501Y019279D02*
X023866Y019279D01*
X023866Y019287D02*
X023501Y019287D01*
X023500Y019296D02*
X023866Y019296D01*
X023865Y019304D02*
X023498Y019304D01*
X023495Y019313D02*
X023865Y019313D01*
X023863Y019321D02*
X023491Y019321D01*
X023486Y019330D02*
X023861Y019330D01*
X023860Y019338D02*
X023479Y019338D01*
X023472Y019347D02*
X023858Y019347D01*
X023855Y019355D02*
X023464Y019355D01*
X023456Y019364D02*
X023852Y019364D01*
X023849Y019372D02*
X023448Y019372D01*
X023440Y019381D02*
X023846Y019381D01*
X023843Y019389D02*
X023432Y019389D01*
X023424Y019398D02*
X023839Y019398D01*
X023834Y019406D02*
X023416Y019406D01*
X023410Y019415D02*
X023829Y019415D01*
X023825Y019423D02*
X023404Y019423D01*
X023398Y019432D02*
X023677Y019432D01*
X023693Y019432D02*
X023819Y019432D01*
X023812Y019440D02*
X023719Y019440D01*
X023730Y019449D02*
X023805Y019449D01*
X023799Y019457D02*
X023737Y019457D01*
X023742Y019466D02*
X023792Y019466D01*
X023784Y019474D02*
X023743Y019474D01*
X023743Y019483D02*
X023773Y019483D01*
X023763Y019491D02*
X023743Y019491D01*
X023743Y019500D02*
X023752Y019500D01*
X023650Y019440D02*
X023393Y019440D01*
X023387Y019449D02*
X023635Y019449D01*
X023624Y019457D02*
X023381Y019457D01*
X023375Y019466D02*
X023612Y019466D01*
X023601Y019474D02*
X023370Y019474D01*
X023366Y019483D02*
X023591Y019483D01*
X023583Y019491D02*
X023362Y019491D01*
X023359Y019500D02*
X023575Y019500D01*
X023570Y019508D02*
X023357Y019508D01*
X023356Y019517D02*
X023564Y019517D01*
X023560Y019525D02*
X023354Y019525D01*
X023354Y019534D02*
X023556Y019534D01*
X023553Y019542D02*
X023355Y019542D01*
X023356Y019551D02*
X023551Y019551D01*
X023551Y019559D02*
X023357Y019559D01*
X023359Y019568D02*
X023552Y019568D01*
X023554Y019576D02*
X023363Y019576D01*
X023366Y019585D02*
X023557Y019585D01*
X023561Y019593D02*
X023371Y019593D01*
X023377Y019602D02*
X023566Y019602D01*
X023572Y019610D02*
X023383Y019610D01*
X023391Y019619D02*
X023581Y019619D01*
X023593Y019627D02*
X023400Y019627D01*
X023409Y019636D02*
X023612Y019636D01*
X023623Y019670D02*
X023462Y019670D01*
X023445Y019661D02*
X023642Y019661D01*
X023658Y019653D02*
X023432Y019653D01*
X023420Y019644D02*
X023669Y019644D01*
X023671Y019642D02*
X023671Y019642D01*
X023598Y019678D02*
X023483Y019678D01*
X023535Y019687D02*
X023544Y019687D01*
X023336Y019330D02*
X023243Y019330D01*
X023191Y019304D02*
X023298Y019304D01*
X023282Y019262D02*
X023155Y019262D01*
X023150Y019253D02*
X023283Y019253D01*
X023285Y019245D02*
X023145Y019245D01*
X023143Y019236D02*
X023287Y019236D01*
X023291Y019228D02*
X023140Y019228D01*
X023138Y019219D02*
X023296Y019219D01*
X023304Y019211D02*
X023136Y019211D01*
X023135Y019202D02*
X023315Y019202D01*
X023329Y019194D02*
X023134Y019194D01*
X023134Y019185D02*
X023352Y019185D01*
X023180Y019296D02*
X023161Y019274D01*
X015573Y013365D02*
X015529Y013363D01*
D17*
X016333Y009333D03*
X017333Y009333D03*
X018333Y009333D03*
X019333Y009333D03*
X020333Y009333D03*
X020333Y020333D03*
X018333Y020333D03*
X017333Y020333D03*
X016333Y020333D03*
X015333Y020333D03*
D18*
X019333Y020321D02*
X019333Y020345D01*
X015345Y014833D02*
X015321Y014833D01*
X015333Y009345D02*
X015333Y009321D01*
D19*
X014733Y014683D02*
X013933Y014683D01*
X011733Y014683D02*
X010933Y014683D01*
D20*
X012833Y017833D03*
M02*
