G75*
G70*
%OFA0B0*%
%FSLAX24Y24*%
%IPPOS*%
%LPD*%
%AMOC8*
5,1,8,0,0,1.08239X$1,22.5*
%
%ADD10C,0.0060*%
%ADD11C,0.0110*%
%ADD12C,0.0100*%
%ADD13C,0.0591*%
%ADD14C,0.0080*%
%ADD15C,0.0010*%
D10*
X013163Y008413D02*
X013504Y008413D01*
X013504Y008583D01*
X013447Y008640D01*
X013333Y008640D01*
X013277Y008583D01*
X013277Y008413D01*
X013163Y008782D02*
X013277Y008895D01*
X013163Y009009D01*
X013504Y009009D01*
X013504Y009150D02*
X013504Y009320D01*
X013447Y009377D01*
X013333Y009377D01*
X013277Y009320D01*
X013277Y009150D01*
X013277Y009263D02*
X013163Y009377D01*
X013163Y009150D02*
X013504Y009150D01*
X013504Y008782D02*
X013163Y008782D01*
X014163Y008782D02*
X014504Y008782D01*
X014163Y009009D01*
X014504Y009009D01*
X014504Y009150D02*
X014504Y009320D01*
X014447Y009377D01*
X014220Y009377D01*
X014163Y009320D01*
X014163Y009150D01*
X014504Y009150D01*
X014447Y008640D02*
X014504Y008583D01*
X014504Y008470D01*
X014447Y008413D01*
X014220Y008413D01*
X014163Y008470D01*
X014163Y008583D01*
X014220Y008640D01*
X014333Y008640D01*
X014333Y008527D01*
X015163Y008527D02*
X015504Y008527D01*
X015504Y008640D02*
X015504Y008413D01*
X016163Y008413D02*
X016504Y008413D01*
X016504Y008583D01*
X016447Y008640D01*
X016333Y008640D01*
X016277Y008583D01*
X016277Y008413D01*
X016277Y008527D02*
X016163Y008640D01*
X016163Y008782D02*
X016504Y009009D01*
X016504Y009150D02*
X016504Y009263D01*
X016504Y009207D02*
X016163Y009207D01*
X016163Y009263D02*
X016163Y009150D01*
X016163Y009009D02*
X016504Y008782D01*
X017163Y008838D02*
X017163Y008952D01*
X017220Y009009D01*
X017163Y009150D02*
X017504Y009150D01*
X017447Y009009D02*
X017504Y008952D01*
X017504Y008838D01*
X017447Y008782D01*
X017220Y008782D01*
X017163Y008838D01*
X017220Y008640D02*
X017163Y008583D01*
X017163Y008470D01*
X017220Y008413D01*
X017333Y008470D02*
X017333Y008583D01*
X017277Y008640D01*
X017220Y008640D01*
X017333Y008470D02*
X017390Y008413D01*
X017447Y008413D01*
X017504Y008470D01*
X017504Y008583D01*
X017447Y008640D01*
X017163Y009150D02*
X017163Y009377D01*
X018163Y009377D02*
X018390Y009377D01*
X018504Y009263D01*
X018390Y009150D01*
X018163Y009150D01*
X018220Y009009D02*
X018447Y009009D01*
X018504Y008952D01*
X018504Y008782D01*
X018163Y008782D01*
X018163Y008952D01*
X018220Y009009D01*
X018333Y009150D02*
X018333Y009377D01*
X019163Y008952D02*
X019163Y008838D01*
X019220Y008782D01*
X019333Y008838D02*
X019333Y008952D01*
X019277Y009009D01*
X019220Y009009D01*
X019163Y008952D01*
X019333Y008838D02*
X019390Y008782D01*
X019447Y008782D01*
X019504Y008838D01*
X019504Y008952D01*
X019447Y009009D01*
X020163Y008952D02*
X020220Y009009D01*
X020447Y009009D01*
X020504Y008952D01*
X020504Y008838D01*
X020447Y008782D01*
X020220Y008782D01*
X020163Y008838D01*
X020163Y008952D01*
X020220Y009150D02*
X020163Y009207D01*
X020163Y009320D01*
X020220Y009377D01*
X020277Y009377D01*
X020333Y009320D01*
X020333Y009207D01*
X020390Y009150D01*
X020447Y009150D01*
X020504Y009207D01*
X020504Y009320D01*
X020447Y009377D01*
X020504Y009518D02*
X020504Y009632D01*
X020504Y009575D02*
X020163Y009575D01*
X020163Y009518D02*
X020163Y009632D01*
X021163Y009566D02*
X021220Y009622D01*
X021447Y009622D01*
X021504Y009566D01*
X021504Y009452D01*
X021447Y009396D01*
X021220Y009396D01*
X021163Y009452D01*
X021163Y009566D01*
X021220Y009254D02*
X021163Y009197D01*
X021163Y009084D01*
X021220Y009027D01*
X021333Y009084D02*
X021333Y009197D01*
X021277Y009254D01*
X021220Y009254D01*
X021333Y009084D02*
X021390Y009027D01*
X021447Y009027D01*
X021504Y009084D01*
X021504Y009197D01*
X021447Y009254D01*
X021504Y008895D02*
X021504Y008782D01*
X021504Y008838D02*
X021163Y008838D01*
X021163Y008782D02*
X021163Y008895D01*
X021163Y008640D02*
X021504Y008640D01*
X021390Y008527D01*
X021504Y008413D01*
X021163Y008413D01*
X020504Y008413D02*
X020390Y008527D01*
X020504Y008640D01*
X020163Y008640D01*
X020163Y008413D02*
X020504Y008413D01*
X019504Y008470D02*
X019447Y008413D01*
X019220Y008413D01*
X019163Y008470D01*
X019163Y008583D01*
X019220Y008640D01*
X019447Y008640D02*
X019504Y008583D01*
X019504Y008470D01*
X018504Y008470D02*
X018447Y008413D01*
X018390Y008413D01*
X018333Y008470D01*
X018333Y008583D01*
X018277Y008640D01*
X018220Y008640D01*
X018163Y008583D01*
X018163Y008470D01*
X018220Y008413D01*
X018504Y008470D02*
X018504Y008583D01*
X018447Y008640D01*
X015504Y008782D02*
X015163Y009009D01*
X015220Y009150D02*
X015163Y009207D01*
X015163Y009320D01*
X015220Y009377D01*
X015447Y009377D01*
X015504Y009320D01*
X015504Y009207D01*
X015447Y009150D01*
X015220Y009150D01*
X015504Y009009D02*
X015163Y008782D01*
X022163Y008838D02*
X022163Y008952D01*
X022220Y009009D01*
X022163Y009150D02*
X022504Y009150D01*
X022447Y009009D02*
X022504Y008952D01*
X022504Y008838D01*
X022447Y008782D01*
X022220Y008782D01*
X022163Y008838D01*
X022220Y008640D02*
X022163Y008583D01*
X022163Y008470D01*
X022220Y008413D01*
X022333Y008470D02*
X022333Y008583D01*
X022277Y008640D01*
X022220Y008640D01*
X022333Y008470D02*
X022390Y008413D01*
X022447Y008413D01*
X022504Y008470D01*
X022504Y008583D01*
X022447Y008640D01*
X022277Y009150D02*
X022504Y009377D01*
X022333Y009207D02*
X022163Y009377D01*
D11*
X018807Y020191D02*
X018709Y020191D01*
X018610Y020290D01*
X018610Y020782D01*
X018906Y020782D01*
X019004Y020684D01*
X019004Y020487D01*
X018906Y020388D01*
X018610Y020388D01*
X018360Y020487D02*
X018261Y020388D01*
X018064Y020388D01*
X017966Y020487D01*
X017715Y020487D02*
X017617Y020388D01*
X017420Y020388D01*
X017321Y020487D01*
X017321Y020684D01*
X017420Y020782D01*
X017617Y020782D01*
X017715Y020684D01*
X017715Y020487D01*
X018360Y020487D02*
X018360Y020880D01*
X018261Y020979D01*
X018064Y020979D01*
X017966Y020880D01*
X017070Y020782D02*
X017070Y020487D01*
X016972Y020388D01*
X016677Y020388D01*
X016677Y020782D01*
X016426Y020782D02*
X016131Y020782D01*
X016032Y020684D01*
X016032Y020388D01*
X015683Y020487D02*
X015585Y020388D01*
X015683Y020487D02*
X015683Y020880D01*
X015781Y020782D02*
X015585Y020782D01*
X016426Y020782D02*
X016426Y020388D01*
X019237Y020388D02*
X019434Y020388D01*
X019335Y020388D02*
X019335Y020782D01*
X019434Y020782D01*
X019335Y020979D02*
X019335Y021077D01*
X019685Y020880D02*
X019685Y020782D01*
X019783Y020684D01*
X020078Y020684D01*
X020078Y020979D02*
X020078Y020388D01*
X019783Y020388D01*
X019685Y020487D01*
X019685Y020585D01*
X019783Y020684D01*
X019685Y020880D02*
X019783Y020979D01*
X020078Y020979D01*
D12*
X019014Y018377D02*
X018778Y018022D01*
X019408Y017471D01*
X021495Y017471D01*
X022046Y018022D01*
X021652Y018377D01*
X019014Y018377D01*
X018951Y018281D02*
X021759Y018281D01*
X021868Y018182D02*
X018885Y018182D01*
X018819Y018084D02*
X021978Y018084D01*
X022009Y017985D02*
X018820Y017985D01*
X018933Y017887D02*
X021910Y017887D01*
X021812Y017788D02*
X019046Y017788D01*
X019158Y017690D02*
X021713Y017690D01*
X021615Y017591D02*
X019271Y017591D01*
X019383Y017493D02*
X021516Y017493D01*
X021731Y017314D02*
X022164Y015778D01*
X022991Y015030D01*
X023306Y015424D01*
X022676Y017668D01*
X022282Y017865D01*
X021731Y017314D01*
X021736Y017296D02*
X022780Y017296D01*
X022753Y017394D02*
X021812Y017394D01*
X021910Y017493D02*
X022725Y017493D01*
X022697Y017591D02*
X022009Y017591D01*
X022107Y017690D02*
X022632Y017690D01*
X022435Y017788D02*
X022206Y017788D01*
X021764Y017197D02*
X022808Y017197D01*
X022836Y017099D02*
X021792Y017099D01*
X021819Y017000D02*
X022863Y017000D01*
X022891Y016902D02*
X021847Y016902D01*
X021875Y016803D02*
X022919Y016803D01*
X022946Y016705D02*
X021903Y016705D01*
X021930Y016606D02*
X022974Y016606D01*
X023002Y016508D02*
X021958Y016508D01*
X021986Y016409D02*
X023029Y016409D01*
X023057Y016311D02*
X022014Y016311D01*
X022042Y016212D02*
X023084Y016212D01*
X023112Y016114D02*
X022069Y016114D01*
X022097Y016015D02*
X023140Y016015D01*
X023167Y015917D02*
X022125Y015917D01*
X022153Y015818D02*
X023195Y015818D01*
X023223Y015720D02*
X022229Y015720D01*
X022337Y015621D02*
X023250Y015621D01*
X023278Y015523D02*
X022446Y015523D01*
X022555Y015424D02*
X023306Y015424D01*
X023227Y015326D02*
X022664Y015326D01*
X022773Y015227D02*
X023149Y015227D01*
X023070Y015129D02*
X022882Y015129D01*
X022991Y015030D02*
X022991Y015030D01*
X023030Y014833D02*
X022597Y014203D01*
X023030Y012550D01*
X023896Y011920D01*
X024172Y012235D01*
X023621Y014282D01*
X023030Y014833D01*
X022962Y014735D02*
X023136Y014735D01*
X023241Y014636D02*
X022895Y014636D01*
X022827Y014538D02*
X023347Y014538D01*
X023452Y014439D02*
X022759Y014439D01*
X022692Y014341D02*
X023558Y014341D01*
X023631Y014242D02*
X022624Y014242D01*
X022613Y014144D02*
X023658Y014144D01*
X023684Y014045D02*
X022639Y014045D01*
X022664Y013947D02*
X023711Y013947D01*
X023738Y013848D02*
X022690Y013848D01*
X022716Y013750D02*
X023764Y013750D01*
X023791Y013651D02*
X022742Y013651D01*
X022768Y013553D02*
X023817Y013553D01*
X023844Y013454D02*
X022793Y013454D01*
X022819Y013356D02*
X023870Y013356D01*
X023897Y013257D02*
X022845Y013257D01*
X022871Y013159D02*
X023923Y013159D01*
X023950Y013060D02*
X022896Y013060D01*
X022922Y012962D02*
X023976Y012962D01*
X024003Y012863D02*
X022948Y012863D01*
X022974Y012765D02*
X024029Y012765D01*
X024056Y012666D02*
X023000Y012666D01*
X023025Y012568D02*
X024082Y012568D01*
X024109Y012469D02*
X023141Y012469D01*
X023276Y012371D02*
X024135Y012371D01*
X024162Y012272D02*
X023412Y012272D01*
X023547Y012174D02*
X024118Y012174D01*
X024032Y012075D02*
X023683Y012075D01*
X023818Y011977D02*
X023946Y011977D01*
X023660Y011684D02*
X023385Y011369D01*
X020629Y011369D01*
X020353Y011644D01*
X020904Y012314D01*
X022833Y012314D01*
X023660Y011684D01*
X023658Y011681D02*
X020383Y011681D01*
X020415Y011583D02*
X023572Y011583D01*
X023486Y011484D02*
X020513Y011484D01*
X020612Y011386D02*
X023399Y011386D01*
X023534Y011780D02*
X020465Y011780D01*
X020546Y011878D02*
X023405Y011878D01*
X023275Y011977D02*
X020627Y011977D01*
X020708Y012075D02*
X023146Y012075D01*
X023017Y012174D02*
X020789Y012174D01*
X020870Y012272D02*
X022888Y012272D01*
X020668Y012510D02*
X020156Y011881D01*
X019644Y012353D01*
X019172Y014282D01*
X019448Y014715D01*
X020117Y014125D01*
X020668Y012510D01*
X020635Y012469D02*
X019616Y012469D01*
X019640Y012371D02*
X020554Y012371D01*
X020474Y012272D02*
X019732Y012272D01*
X019838Y012174D02*
X020394Y012174D01*
X020314Y012075D02*
X019945Y012075D01*
X020052Y011977D02*
X020234Y011977D01*
X020648Y012568D02*
X019592Y012568D01*
X019568Y012666D02*
X020615Y012666D01*
X020581Y012765D02*
X019544Y012765D01*
X019519Y012863D02*
X020548Y012863D01*
X020514Y012962D02*
X019495Y012962D01*
X019471Y013060D02*
X020480Y013060D01*
X020447Y013159D02*
X019447Y013159D01*
X019423Y013257D02*
X020413Y013257D01*
X020379Y013356D02*
X019399Y013356D01*
X019375Y013454D02*
X020346Y013454D01*
X020312Y013553D02*
X019351Y013553D01*
X019326Y013651D02*
X020278Y013651D01*
X020245Y013750D02*
X019302Y013750D01*
X019278Y013848D02*
X020211Y013848D01*
X020178Y013947D02*
X019254Y013947D01*
X019230Y014045D02*
X020144Y014045D01*
X020095Y014144D02*
X019206Y014144D01*
X019182Y014242D02*
X019983Y014242D01*
X019872Y014341D02*
X019209Y014341D01*
X019272Y014439D02*
X019760Y014439D01*
X019649Y014538D02*
X019335Y014538D01*
X019397Y014636D02*
X019537Y014636D01*
X019729Y014833D02*
X022724Y014833D01*
X022755Y014873D02*
X022243Y015306D01*
X020077Y015306D01*
X019684Y014873D01*
X020274Y014361D01*
X022361Y014361D01*
X022755Y014873D01*
X022685Y014932D02*
X019737Y014932D01*
X019827Y015030D02*
X022568Y015030D01*
X022452Y015129D02*
X019917Y015129D01*
X020006Y015227D02*
X022335Y015227D01*
X022649Y014735D02*
X019843Y014735D01*
X019956Y014636D02*
X022573Y014636D01*
X022497Y014538D02*
X020070Y014538D01*
X020184Y014439D02*
X022421Y014439D01*
X019762Y015424D02*
X019408Y014951D01*
X018857Y015306D01*
X018306Y017550D01*
X018621Y017825D01*
X019251Y017235D01*
X019762Y015424D01*
X018828Y015424D01*
X018852Y015326D02*
X019689Y015326D01*
X019615Y015227D02*
X018979Y015227D01*
X019132Y015129D02*
X019541Y015129D01*
X019467Y015030D02*
X019285Y015030D01*
X019735Y015523D02*
X018804Y015523D01*
X018779Y015621D02*
X019707Y015621D01*
X019679Y015720D02*
X018755Y015720D01*
X018731Y015818D02*
X019651Y015818D01*
X019623Y015917D02*
X018707Y015917D01*
X018683Y016015D02*
X019595Y016015D01*
X019567Y016114D02*
X018658Y016114D01*
X018634Y016212D02*
X019540Y016212D01*
X019512Y016311D02*
X018610Y016311D01*
X018586Y016409D02*
X019484Y016409D01*
X019456Y016508D02*
X018562Y016508D01*
X018538Y016606D02*
X019428Y016606D01*
X019400Y016705D02*
X018513Y016705D01*
X018489Y016803D02*
X019373Y016803D01*
X019345Y016902D02*
X018465Y016902D01*
X018441Y017000D02*
X019317Y017000D01*
X019289Y017099D02*
X018417Y017099D01*
X018392Y017197D02*
X019261Y017197D01*
X019186Y017296D02*
X018368Y017296D01*
X018344Y017394D02*
X019081Y017394D01*
X018976Y017493D02*
X018320Y017493D01*
X018353Y017591D02*
X018870Y017591D01*
X018765Y017690D02*
X018466Y017690D01*
X018578Y017788D02*
X018660Y017788D01*
X015915Y016508D02*
X014872Y016508D01*
X014844Y016606D02*
X015887Y016606D01*
X015860Y016705D02*
X014816Y016705D01*
X014788Y016803D02*
X015832Y016803D01*
X015804Y016902D02*
X014761Y016902D01*
X014733Y017000D02*
X015777Y017000D01*
X015749Y017099D02*
X014705Y017099D01*
X014677Y017197D02*
X015721Y017197D01*
X015694Y017296D02*
X014649Y017296D01*
X014644Y017314D02*
X015077Y015778D01*
X015904Y015030D01*
X016219Y015424D01*
X015589Y017668D01*
X015196Y017865D01*
X014644Y017314D01*
X014725Y017394D02*
X015666Y017394D01*
X015638Y017493D02*
X014824Y017493D01*
X014922Y017591D02*
X015611Y017591D01*
X015546Y017690D02*
X015021Y017690D01*
X015119Y017788D02*
X015349Y017788D01*
X014959Y018022D02*
X014566Y018377D01*
X011928Y018377D01*
X011692Y018022D01*
X012322Y017471D01*
X014408Y017471D01*
X014959Y018022D01*
X014922Y017985D02*
X011734Y017985D01*
X011733Y018084D02*
X014891Y018084D01*
X014782Y018182D02*
X011798Y018182D01*
X011864Y018281D02*
X014672Y018281D01*
X014824Y017887D02*
X011846Y017887D01*
X011959Y017788D02*
X014725Y017788D01*
X014627Y017690D02*
X012072Y017690D01*
X012184Y017591D02*
X014528Y017591D01*
X014430Y017493D02*
X012297Y017493D01*
X012099Y017296D02*
X011282Y017296D01*
X011257Y017394D02*
X011994Y017394D01*
X011889Y017493D02*
X011233Y017493D01*
X011219Y017550D02*
X011770Y015306D01*
X012322Y014951D01*
X012676Y015424D01*
X012164Y017235D01*
X011534Y017825D01*
X011219Y017550D01*
X011267Y017591D02*
X011784Y017591D01*
X011679Y017690D02*
X011379Y017690D01*
X011492Y017788D02*
X011574Y017788D01*
X011306Y017197D02*
X012175Y017197D01*
X012202Y017099D02*
X011330Y017099D01*
X011354Y017000D02*
X012230Y017000D01*
X012258Y016902D02*
X011378Y016902D01*
X011403Y016803D02*
X012286Y016803D01*
X012314Y016705D02*
X011427Y016705D01*
X011451Y016606D02*
X012342Y016606D01*
X012370Y016508D02*
X011475Y016508D01*
X011499Y016409D02*
X012397Y016409D01*
X012425Y016311D02*
X011523Y016311D01*
X011548Y016212D02*
X012453Y016212D01*
X012481Y016114D02*
X011572Y016114D01*
X011596Y016015D02*
X012509Y016015D01*
X012537Y015917D02*
X011620Y015917D01*
X011644Y015818D02*
X012564Y015818D01*
X012592Y015720D02*
X011669Y015720D01*
X011693Y015621D02*
X012620Y015621D01*
X012648Y015523D02*
X011717Y015523D01*
X011741Y015424D02*
X012676Y015424D01*
X012602Y015326D02*
X011765Y015326D01*
X011892Y015227D02*
X012528Y015227D01*
X012455Y015129D02*
X012046Y015129D01*
X012199Y015030D02*
X012381Y015030D01*
X012597Y014873D02*
X013188Y014361D01*
X015274Y014361D01*
X015668Y014873D01*
X015156Y015306D01*
X012991Y015306D01*
X012597Y014873D01*
X012643Y014833D02*
X015638Y014833D01*
X015598Y014932D02*
X012651Y014932D01*
X012740Y015030D02*
X015482Y015030D01*
X015365Y015129D02*
X012830Y015129D01*
X012920Y015227D02*
X015249Y015227D01*
X015469Y015424D02*
X016219Y015424D01*
X016191Y015523D02*
X015360Y015523D01*
X015251Y015621D02*
X016164Y015621D01*
X016136Y015720D02*
X015142Y015720D01*
X015066Y015818D02*
X016108Y015818D01*
X016081Y015917D02*
X015038Y015917D01*
X015011Y016015D02*
X016053Y016015D01*
X016025Y016114D02*
X014983Y016114D01*
X014955Y016212D02*
X015998Y016212D01*
X015970Y016311D02*
X014927Y016311D01*
X014899Y016409D02*
X015943Y016409D01*
X016141Y015326D02*
X015577Y015326D01*
X015686Y015227D02*
X016062Y015227D01*
X015983Y015129D02*
X015795Y015129D01*
X015904Y015030D02*
X015904Y015030D01*
X015944Y014833D02*
X015510Y014203D01*
X015944Y012550D01*
X016810Y011920D01*
X017085Y012235D01*
X016534Y014282D01*
X015944Y014833D01*
X015876Y014735D02*
X016049Y014735D01*
X016155Y014636D02*
X015808Y014636D01*
X015740Y014538D02*
X016260Y014538D01*
X016366Y014439D02*
X015673Y014439D01*
X015605Y014341D02*
X016471Y014341D01*
X016545Y014242D02*
X015537Y014242D01*
X015526Y014144D02*
X016571Y014144D01*
X016598Y014045D02*
X015552Y014045D01*
X015578Y013947D02*
X016624Y013947D01*
X016651Y013848D02*
X015603Y013848D01*
X015629Y013750D02*
X016677Y013750D01*
X016704Y013651D02*
X015655Y013651D01*
X015681Y013553D02*
X016730Y013553D01*
X016757Y013454D02*
X015707Y013454D01*
X015732Y013356D02*
X016784Y013356D01*
X016810Y013257D02*
X015758Y013257D01*
X015784Y013159D02*
X016837Y013159D01*
X016863Y013060D02*
X015810Y013060D01*
X015836Y012962D02*
X016890Y012962D01*
X016916Y012863D02*
X015861Y012863D01*
X015887Y012765D02*
X016943Y012765D01*
X016969Y012666D02*
X015913Y012666D01*
X015939Y012568D02*
X016996Y012568D01*
X017022Y012469D02*
X016054Y012469D01*
X016190Y012371D02*
X017049Y012371D01*
X017075Y012272D02*
X016325Y012272D01*
X016461Y012174D02*
X017032Y012174D01*
X016946Y012075D02*
X016596Y012075D01*
X016732Y011977D02*
X016859Y011977D01*
X016573Y011684D02*
X016298Y011369D01*
X013542Y011369D01*
X013266Y011644D01*
X013818Y012314D01*
X015747Y012314D01*
X016573Y011684D01*
X016571Y011681D02*
X013297Y011681D01*
X013328Y011583D02*
X016485Y011583D01*
X016399Y011484D02*
X013426Y011484D01*
X013525Y011386D02*
X016313Y011386D01*
X016447Y011780D02*
X013378Y011780D01*
X013459Y011878D02*
X016318Y011878D01*
X016189Y011977D02*
X013540Y011977D01*
X013621Y012075D02*
X016060Y012075D01*
X015930Y012174D02*
X013702Y012174D01*
X013784Y012272D02*
X015801Y012272D01*
X013581Y012510D02*
X013070Y011881D01*
X012558Y012353D01*
X012085Y014282D01*
X012361Y014715D01*
X013030Y014125D01*
X013581Y012510D01*
X013548Y012469D02*
X012529Y012469D01*
X012553Y012371D02*
X013468Y012371D01*
X013388Y012272D02*
X012645Y012272D01*
X012752Y012174D02*
X013308Y012174D01*
X013228Y012075D02*
X012859Y012075D01*
X012965Y011977D02*
X013148Y011977D01*
X013562Y012568D02*
X012505Y012568D01*
X012481Y012666D02*
X013528Y012666D01*
X013495Y012765D02*
X012457Y012765D01*
X012433Y012863D02*
X013461Y012863D01*
X013427Y012962D02*
X012409Y012962D01*
X012385Y013060D02*
X013394Y013060D01*
X013360Y013159D02*
X012360Y013159D01*
X012336Y013257D02*
X013326Y013257D01*
X013293Y013356D02*
X012312Y013356D01*
X012288Y013454D02*
X013259Y013454D01*
X013225Y013553D02*
X012264Y013553D01*
X012240Y013651D02*
X013192Y013651D01*
X013158Y013750D02*
X012216Y013750D01*
X012192Y013848D02*
X013125Y013848D01*
X013091Y013947D02*
X012167Y013947D01*
X012143Y014045D02*
X013057Y014045D01*
X013008Y014144D02*
X012119Y014144D01*
X012095Y014242D02*
X012897Y014242D01*
X012785Y014341D02*
X012123Y014341D01*
X012185Y014439D02*
X012674Y014439D01*
X012562Y014538D02*
X012248Y014538D01*
X012311Y014636D02*
X012450Y014636D01*
X012756Y014735D02*
X015562Y014735D01*
X015486Y014636D02*
X012870Y014636D01*
X012984Y014538D02*
X015410Y014538D01*
X015335Y014439D02*
X013097Y014439D01*
X009644Y013553D02*
X008594Y013553D01*
X008568Y013651D02*
X009617Y013651D01*
X009591Y013750D02*
X008543Y013750D01*
X008517Y013848D02*
X009564Y013848D01*
X009538Y013947D02*
X008491Y013947D01*
X008465Y014045D02*
X009511Y014045D01*
X009485Y014144D02*
X008439Y014144D01*
X008424Y014203D02*
X008857Y012550D01*
X009723Y011920D01*
X009999Y012235D01*
X009448Y014282D01*
X008857Y014833D01*
X008424Y014203D01*
X008451Y014242D02*
X009458Y014242D01*
X009385Y014341D02*
X008518Y014341D01*
X008586Y014439D02*
X009279Y014439D01*
X009174Y014538D02*
X008654Y014538D01*
X008722Y014636D02*
X009068Y014636D01*
X008962Y014735D02*
X008789Y014735D01*
X008581Y014873D02*
X008188Y014361D01*
X006101Y014361D01*
X005510Y014873D01*
X005904Y015306D01*
X008070Y015306D01*
X008581Y014873D01*
X008551Y014833D02*
X005556Y014833D01*
X005564Y014932D02*
X008511Y014932D01*
X008395Y015030D02*
X005654Y015030D01*
X005743Y015129D02*
X008279Y015129D01*
X008162Y015227D02*
X005833Y015227D01*
X005589Y015424D02*
X005235Y014951D01*
X004684Y015306D01*
X004133Y017550D01*
X004448Y017825D01*
X005077Y017235D01*
X005589Y015424D01*
X004655Y015424D01*
X004679Y015326D02*
X005516Y015326D01*
X005442Y015227D02*
X004806Y015227D01*
X004959Y015129D02*
X005368Y015129D01*
X005294Y015030D02*
X005112Y015030D01*
X005274Y014715D02*
X004999Y014282D01*
X005471Y012353D01*
X005983Y011881D01*
X006495Y012510D01*
X005944Y014125D01*
X005274Y014715D01*
X005224Y014636D02*
X005364Y014636D01*
X005475Y014538D02*
X005161Y014538D01*
X005099Y014439D02*
X005587Y014439D01*
X005699Y014341D02*
X005036Y014341D01*
X005008Y014242D02*
X005810Y014242D01*
X005922Y014144D02*
X005033Y014144D01*
X005057Y014045D02*
X005971Y014045D01*
X006004Y013947D02*
X005081Y013947D01*
X005105Y013848D02*
X006038Y013848D01*
X006072Y013750D02*
X005129Y013750D01*
X005153Y013651D02*
X006105Y013651D01*
X006139Y013553D02*
X005177Y013553D01*
X005201Y013454D02*
X006172Y013454D01*
X006206Y013356D02*
X005226Y013356D01*
X005250Y013257D02*
X006240Y013257D01*
X006273Y013159D02*
X005274Y013159D01*
X005298Y013060D02*
X006307Y013060D01*
X006341Y012962D02*
X005322Y012962D01*
X005346Y012863D02*
X006374Y012863D01*
X006408Y012765D02*
X005370Y012765D01*
X005394Y012666D02*
X006442Y012666D01*
X006475Y012568D02*
X005419Y012568D01*
X005443Y012469D02*
X006461Y012469D01*
X006381Y012371D02*
X005467Y012371D01*
X005559Y012272D02*
X006301Y012272D01*
X006221Y012174D02*
X005665Y012174D01*
X005772Y012075D02*
X006141Y012075D01*
X006061Y011977D02*
X005879Y011977D01*
X006210Y011681D02*
X009485Y011681D01*
X009487Y011684D02*
X009211Y011369D01*
X006455Y011369D01*
X006180Y011644D01*
X006731Y012314D01*
X008660Y012314D01*
X009487Y011684D01*
X009399Y011583D02*
X006241Y011583D01*
X006340Y011484D02*
X009312Y011484D01*
X009226Y011386D02*
X006438Y011386D01*
X006291Y011780D02*
X009361Y011780D01*
X009231Y011878D02*
X006372Y011878D01*
X006454Y011977D02*
X009102Y011977D01*
X008973Y012075D02*
X006535Y012075D01*
X006616Y012174D02*
X008844Y012174D01*
X008714Y012272D02*
X006697Y012272D01*
X008775Y012863D02*
X009829Y012863D01*
X009856Y012765D02*
X008801Y012765D01*
X008826Y012666D02*
X009883Y012666D01*
X009909Y012568D02*
X008852Y012568D01*
X008968Y012469D02*
X009936Y012469D01*
X009962Y012371D02*
X009103Y012371D01*
X009239Y012272D02*
X009989Y012272D01*
X009945Y012174D02*
X009374Y012174D01*
X009509Y012075D02*
X009859Y012075D01*
X009773Y011977D02*
X009645Y011977D01*
X009803Y012962D02*
X008749Y012962D01*
X008723Y013060D02*
X009776Y013060D01*
X009750Y013159D02*
X008697Y013159D01*
X008672Y013257D02*
X009723Y013257D01*
X009697Y013356D02*
X008646Y013356D01*
X008620Y013454D02*
X009670Y013454D01*
X008324Y014538D02*
X005897Y014538D01*
X005783Y014636D02*
X008400Y014636D01*
X008475Y014735D02*
X005670Y014735D01*
X006011Y014439D02*
X008248Y014439D01*
X008817Y015030D02*
X008818Y015030D01*
X007991Y015778D01*
X007558Y017314D01*
X008109Y017865D01*
X008503Y017668D01*
X009133Y015424D01*
X008818Y015030D01*
X008897Y015129D02*
X008709Y015129D01*
X008600Y015227D02*
X008975Y015227D01*
X009054Y015326D02*
X008491Y015326D01*
X008382Y015424D02*
X009132Y015424D01*
X009105Y015523D02*
X008273Y015523D01*
X008164Y015621D02*
X009077Y015621D01*
X009049Y015720D02*
X008055Y015720D01*
X007979Y015818D02*
X009022Y015818D01*
X008994Y015917D02*
X007952Y015917D01*
X007924Y016015D02*
X008967Y016015D01*
X008939Y016114D02*
X007896Y016114D01*
X007868Y016212D02*
X008911Y016212D01*
X008884Y016311D02*
X007841Y016311D01*
X007813Y016409D02*
X008856Y016409D01*
X008828Y016508D02*
X007785Y016508D01*
X007757Y016606D02*
X008801Y016606D01*
X008773Y016705D02*
X007729Y016705D01*
X007702Y016803D02*
X008745Y016803D01*
X008718Y016902D02*
X007674Y016902D01*
X007646Y017000D02*
X008690Y017000D01*
X008662Y017099D02*
X007618Y017099D01*
X007591Y017197D02*
X008635Y017197D01*
X008607Y017296D02*
X007563Y017296D01*
X007638Y017394D02*
X008579Y017394D01*
X008552Y017493D02*
X007737Y017493D01*
X007835Y017591D02*
X008524Y017591D01*
X008459Y017690D02*
X007934Y017690D01*
X008032Y017788D02*
X008262Y017788D01*
X007873Y018022D02*
X007479Y018377D01*
X004841Y018377D01*
X004605Y018022D01*
X005235Y017471D01*
X007322Y017471D01*
X007873Y018022D01*
X007836Y017985D02*
X004647Y017985D01*
X004646Y018084D02*
X007804Y018084D01*
X007695Y018182D02*
X004712Y018182D01*
X004777Y018281D02*
X007585Y018281D01*
X007737Y017887D02*
X004760Y017887D01*
X004872Y017788D02*
X007639Y017788D01*
X007540Y017690D02*
X004985Y017690D01*
X005098Y017591D02*
X007442Y017591D01*
X007343Y017493D02*
X005210Y017493D01*
X005012Y017296D02*
X004195Y017296D01*
X004171Y017394D02*
X004907Y017394D01*
X004802Y017493D02*
X004147Y017493D01*
X004180Y017591D02*
X004697Y017591D01*
X004592Y017690D02*
X004293Y017690D01*
X004405Y017788D02*
X004487Y017788D01*
X004219Y017197D02*
X005088Y017197D01*
X005116Y017099D02*
X004243Y017099D01*
X004268Y017000D02*
X005144Y017000D01*
X005172Y016902D02*
X004292Y016902D01*
X004316Y016803D02*
X005199Y016803D01*
X005227Y016705D02*
X004340Y016705D01*
X004364Y016606D02*
X005255Y016606D01*
X005283Y016508D02*
X004388Y016508D01*
X004413Y016409D02*
X005311Y016409D01*
X005339Y016311D02*
X004437Y016311D01*
X004461Y016212D02*
X005366Y016212D01*
X005394Y016114D02*
X004485Y016114D01*
X004509Y016015D02*
X005422Y016015D01*
X005450Y015917D02*
X004534Y015917D01*
X004558Y015818D02*
X005478Y015818D01*
X005506Y015720D02*
X004582Y015720D01*
X004606Y015621D02*
X005533Y015621D01*
X005561Y015523D02*
X004630Y015523D01*
X003660Y019951D02*
X003660Y009715D01*
X032007Y009715D01*
X032007Y019951D01*
X003660Y019951D01*
X025392Y017550D02*
X025944Y015306D01*
X026495Y014951D01*
X026849Y015424D01*
X026337Y017235D01*
X025707Y017825D01*
X025392Y017550D01*
X025406Y017493D02*
X026062Y017493D01*
X025957Y017591D02*
X025440Y017591D01*
X025552Y017690D02*
X025852Y017690D01*
X025747Y017788D02*
X025665Y017788D01*
X025865Y018022D02*
X026495Y017471D01*
X028581Y017471D01*
X029133Y018022D01*
X028739Y018377D01*
X026101Y018377D01*
X025865Y018022D01*
X025907Y017985D02*
X029096Y017985D01*
X029064Y018084D02*
X025906Y018084D01*
X025972Y018182D02*
X028955Y018182D01*
X028845Y018281D02*
X026037Y018281D01*
X026020Y017887D02*
X028997Y017887D01*
X028899Y017788D02*
X026132Y017788D01*
X026245Y017690D02*
X028800Y017690D01*
X028702Y017591D02*
X026357Y017591D01*
X026470Y017493D02*
X028603Y017493D01*
X028818Y017314D02*
X029251Y015778D01*
X030077Y015030D01*
X030078Y015030D01*
X030077Y015030D02*
X030392Y015424D01*
X029762Y017668D01*
X029369Y017865D01*
X028818Y017314D01*
X028823Y017296D02*
X029867Y017296D01*
X029839Y017394D02*
X028898Y017394D01*
X028997Y017493D02*
X029812Y017493D01*
X029784Y017591D02*
X029095Y017591D01*
X029194Y017690D02*
X029719Y017690D01*
X029522Y017788D02*
X029292Y017788D01*
X028850Y017197D02*
X029895Y017197D01*
X029922Y017099D02*
X028878Y017099D01*
X028906Y017000D02*
X029950Y017000D01*
X029978Y016902D02*
X028934Y016902D01*
X028962Y016803D02*
X030005Y016803D01*
X030033Y016705D02*
X028989Y016705D01*
X029017Y016606D02*
X030060Y016606D01*
X030088Y016508D02*
X029045Y016508D01*
X029073Y016409D02*
X030116Y016409D01*
X030143Y016311D02*
X029100Y016311D01*
X029128Y016212D02*
X030171Y016212D01*
X030199Y016114D02*
X029156Y016114D01*
X029184Y016015D02*
X030226Y016015D01*
X030254Y015917D02*
X029212Y015917D01*
X029239Y015818D02*
X030282Y015818D01*
X030309Y015720D02*
X029315Y015720D01*
X029424Y015621D02*
X030337Y015621D01*
X030365Y015523D02*
X029533Y015523D01*
X029642Y015424D02*
X030392Y015424D01*
X030314Y015326D02*
X029751Y015326D01*
X029860Y015227D02*
X030235Y015227D01*
X030156Y015129D02*
X029968Y015129D01*
X029771Y014932D02*
X026824Y014932D01*
X026770Y014873D02*
X027361Y014361D01*
X029448Y014361D01*
X029841Y014873D01*
X029329Y015306D01*
X027164Y015306D01*
X026770Y014873D01*
X026816Y014833D02*
X029811Y014833D01*
X029735Y014735D02*
X026929Y014735D01*
X027043Y014636D02*
X029659Y014636D01*
X029584Y014538D02*
X027157Y014538D01*
X027270Y014439D02*
X029508Y014439D01*
X029710Y014242D02*
X030718Y014242D01*
X030707Y014282D02*
X030117Y014833D01*
X029684Y014203D01*
X030117Y012550D01*
X030983Y011920D01*
X031259Y012235D01*
X030707Y014282D01*
X030644Y014341D02*
X029778Y014341D01*
X029846Y014439D02*
X030539Y014439D01*
X030433Y014538D02*
X029914Y014538D01*
X029981Y014636D02*
X030328Y014636D01*
X030222Y014735D02*
X030049Y014735D01*
X029655Y015030D02*
X026914Y015030D01*
X027003Y015129D02*
X029539Y015129D01*
X029422Y015227D02*
X027093Y015227D01*
X026849Y015424D02*
X025914Y015424D01*
X025939Y015326D02*
X026776Y015326D01*
X026702Y015227D02*
X026066Y015227D01*
X026219Y015129D02*
X026628Y015129D01*
X026554Y015030D02*
X026372Y015030D01*
X026534Y014715D02*
X026259Y014282D01*
X026731Y012353D01*
X027243Y011881D01*
X027755Y012510D01*
X027203Y014125D01*
X026534Y014715D01*
X026484Y014636D02*
X026624Y014636D01*
X026735Y014538D02*
X026421Y014538D01*
X026359Y014439D02*
X026847Y014439D01*
X026958Y014341D02*
X026296Y014341D01*
X026268Y014242D02*
X027070Y014242D01*
X027182Y014144D02*
X026292Y014144D01*
X026317Y014045D02*
X027231Y014045D01*
X027264Y013947D02*
X026341Y013947D01*
X026365Y013848D02*
X027298Y013848D01*
X027331Y013750D02*
X026389Y013750D01*
X026413Y013651D02*
X027365Y013651D01*
X027399Y013553D02*
X026437Y013553D01*
X026461Y013454D02*
X027432Y013454D01*
X027466Y013356D02*
X026485Y013356D01*
X026510Y013257D02*
X027500Y013257D01*
X027533Y013159D02*
X026534Y013159D01*
X026558Y013060D02*
X027567Y013060D01*
X027600Y012962D02*
X026582Y012962D01*
X026606Y012863D02*
X027634Y012863D01*
X027668Y012765D02*
X026630Y012765D01*
X026654Y012666D02*
X027701Y012666D01*
X027735Y012568D02*
X026678Y012568D01*
X026702Y012469D02*
X027721Y012469D01*
X027641Y012371D02*
X026727Y012371D01*
X026818Y012272D02*
X027561Y012272D01*
X027481Y012174D02*
X026925Y012174D01*
X027032Y012075D02*
X027401Y012075D01*
X027321Y011977D02*
X027139Y011977D01*
X027470Y011681D02*
X030745Y011681D01*
X030747Y011684D02*
X030471Y011369D01*
X027715Y011369D01*
X027440Y011644D01*
X027991Y012314D01*
X029920Y012314D01*
X030747Y011684D01*
X030658Y011583D02*
X027501Y011583D01*
X027600Y011484D02*
X030572Y011484D01*
X030486Y011386D02*
X027698Y011386D01*
X027551Y011780D02*
X030621Y011780D01*
X030491Y011878D02*
X027632Y011878D01*
X027713Y011977D02*
X030362Y011977D01*
X030233Y012075D02*
X027795Y012075D01*
X027876Y012174D02*
X030103Y012174D01*
X029974Y012272D02*
X027957Y012272D01*
X030035Y012863D02*
X031089Y012863D01*
X031116Y012765D02*
X030060Y012765D01*
X030086Y012666D02*
X031142Y012666D01*
X031169Y012568D02*
X030112Y012568D01*
X030228Y012469D02*
X031195Y012469D01*
X031222Y012371D02*
X030363Y012371D01*
X030498Y012272D02*
X031248Y012272D01*
X031205Y012174D02*
X030634Y012174D01*
X030769Y012075D02*
X031119Y012075D01*
X031033Y011977D02*
X030905Y011977D01*
X031063Y012962D02*
X030009Y012962D01*
X029983Y013060D02*
X031036Y013060D01*
X031010Y013159D02*
X029957Y013159D01*
X029932Y013257D02*
X030983Y013257D01*
X030957Y013356D02*
X029906Y013356D01*
X029880Y013454D02*
X030930Y013454D01*
X030904Y013553D02*
X029854Y013553D01*
X029828Y013651D02*
X030877Y013651D01*
X030851Y013750D02*
X029803Y013750D01*
X029777Y013848D02*
X030824Y013848D01*
X030798Y013947D02*
X029751Y013947D01*
X029725Y014045D02*
X030771Y014045D01*
X030745Y014144D02*
X029699Y014144D01*
X026821Y015523D02*
X025890Y015523D01*
X025866Y015621D02*
X026793Y015621D01*
X026765Y015720D02*
X025842Y015720D01*
X025818Y015818D02*
X026738Y015818D01*
X026710Y015917D02*
X025793Y015917D01*
X025769Y016015D02*
X026682Y016015D01*
X026654Y016114D02*
X025745Y016114D01*
X025721Y016212D02*
X026626Y016212D01*
X026598Y016311D02*
X025697Y016311D01*
X025673Y016409D02*
X026571Y016409D01*
X026543Y016508D02*
X025648Y016508D01*
X025624Y016606D02*
X026515Y016606D01*
X026487Y016705D02*
X025600Y016705D01*
X025576Y016803D02*
X026459Y016803D01*
X026431Y016902D02*
X025552Y016902D01*
X025527Y017000D02*
X026404Y017000D01*
X026376Y017099D02*
X025503Y017099D01*
X025479Y017197D02*
X026348Y017197D01*
X026272Y017296D02*
X025455Y017296D01*
X025431Y017394D02*
X026167Y017394D01*
D13*
X025860Y011841D02*
X025862Y011866D01*
X025868Y011890D01*
X025877Y011913D01*
X025889Y011934D01*
X025905Y011953D01*
X025924Y011970D01*
X025945Y011983D01*
X025967Y011993D01*
X025991Y012000D01*
X026016Y012003D01*
X026041Y012002D01*
X026065Y011997D01*
X026088Y011989D01*
X026110Y011977D01*
X026130Y011962D01*
X026147Y011944D01*
X026161Y011924D01*
X026172Y011902D01*
X026180Y011878D01*
X026184Y011853D01*
X026184Y011829D01*
X026180Y011804D01*
X026172Y011780D01*
X026161Y011758D01*
X026147Y011738D01*
X026130Y011720D01*
X026110Y011705D01*
X026088Y011693D01*
X026065Y011685D01*
X026041Y011680D01*
X026016Y011679D01*
X025991Y011682D01*
X025967Y011689D01*
X025945Y011699D01*
X025924Y011712D01*
X025905Y011729D01*
X025889Y011748D01*
X025877Y011769D01*
X025868Y011792D01*
X025862Y011816D01*
X025860Y011841D01*
X018774Y011841D02*
X018776Y011866D01*
X018782Y011890D01*
X018791Y011913D01*
X018803Y011934D01*
X018819Y011953D01*
X018838Y011970D01*
X018859Y011983D01*
X018881Y011993D01*
X018905Y012000D01*
X018930Y012003D01*
X018955Y012002D01*
X018979Y011997D01*
X019002Y011989D01*
X019024Y011977D01*
X019044Y011962D01*
X019061Y011944D01*
X019075Y011924D01*
X019086Y011902D01*
X019094Y011878D01*
X019098Y011853D01*
X019098Y011829D01*
X019094Y011804D01*
X019086Y011780D01*
X019075Y011758D01*
X019061Y011738D01*
X019044Y011720D01*
X019024Y011705D01*
X019002Y011693D01*
X018979Y011685D01*
X018955Y011680D01*
X018930Y011679D01*
X018905Y011682D01*
X018881Y011689D01*
X018859Y011699D01*
X018838Y011712D01*
X018819Y011729D01*
X018803Y011748D01*
X018791Y011769D01*
X018782Y011792D01*
X018776Y011816D01*
X018774Y011841D01*
X011687Y011841D02*
X011689Y011866D01*
X011695Y011890D01*
X011704Y011913D01*
X011716Y011934D01*
X011732Y011953D01*
X011751Y011970D01*
X011772Y011983D01*
X011794Y011993D01*
X011818Y012000D01*
X011843Y012003D01*
X011868Y012002D01*
X011892Y011997D01*
X011915Y011989D01*
X011937Y011977D01*
X011957Y011962D01*
X011974Y011944D01*
X011988Y011924D01*
X011999Y011902D01*
X012007Y011878D01*
X012011Y011853D01*
X012011Y011829D01*
X012007Y011804D01*
X011999Y011780D01*
X011988Y011758D01*
X011974Y011738D01*
X011957Y011720D01*
X011937Y011705D01*
X011915Y011693D01*
X011892Y011685D01*
X011868Y011680D01*
X011843Y011679D01*
X011818Y011682D01*
X011794Y011689D01*
X011772Y011699D01*
X011751Y011712D01*
X011732Y011729D01*
X011716Y011748D01*
X011704Y011769D01*
X011695Y011792D01*
X011689Y011816D01*
X011687Y011841D01*
X004600Y011841D02*
X004602Y011866D01*
X004608Y011890D01*
X004617Y011913D01*
X004629Y011934D01*
X004645Y011953D01*
X004664Y011970D01*
X004685Y011983D01*
X004707Y011993D01*
X004731Y012000D01*
X004756Y012003D01*
X004781Y012002D01*
X004805Y011997D01*
X004828Y011989D01*
X004850Y011977D01*
X004870Y011962D01*
X004887Y011944D01*
X004901Y011924D01*
X004912Y011902D01*
X004920Y011878D01*
X004924Y011853D01*
X004924Y011829D01*
X004920Y011804D01*
X004912Y011780D01*
X004901Y011758D01*
X004887Y011738D01*
X004870Y011720D01*
X004850Y011705D01*
X004828Y011693D01*
X004805Y011685D01*
X004781Y011680D01*
X004756Y011679D01*
X004731Y011682D01*
X004707Y011689D01*
X004685Y011699D01*
X004664Y011712D01*
X004645Y011729D01*
X004629Y011748D01*
X004617Y011769D01*
X004608Y011792D01*
X004602Y011816D01*
X004600Y011841D01*
D14*
X012833Y007583D02*
X013083Y007333D01*
X013583Y007333D01*
X013833Y007583D01*
X014083Y007333D01*
X014583Y007333D01*
X014833Y007583D01*
X015083Y007333D01*
X015583Y007333D01*
X015833Y007583D01*
X016083Y007333D01*
X016583Y007333D01*
X016833Y007583D01*
X017083Y007333D01*
X017583Y007333D01*
X017833Y007583D01*
X018083Y007333D01*
X018583Y007333D01*
X018833Y007583D01*
X019083Y007333D01*
X019583Y007333D01*
X019833Y007583D01*
X020083Y007333D01*
X020583Y007333D01*
X020833Y007583D01*
X021083Y007333D01*
X021583Y007333D01*
X021833Y007583D01*
X022083Y007333D01*
X022583Y007333D01*
X022833Y007583D01*
X022833Y008083D01*
X022583Y008333D01*
X022083Y008333D01*
X021833Y008083D01*
X021583Y008333D01*
X021083Y008333D01*
X020833Y008083D01*
X020583Y008333D01*
X020083Y008333D01*
X019833Y008083D01*
X019583Y008333D01*
X019083Y008333D01*
X018833Y008083D01*
X018583Y008333D01*
X018083Y008333D01*
X017833Y008083D01*
X017583Y008333D01*
X017083Y008333D01*
X016833Y008083D01*
X016583Y008333D01*
X016083Y008333D01*
X015833Y008083D01*
X015583Y008333D01*
X015083Y008333D01*
X014833Y008083D01*
X014583Y008333D01*
X014083Y008333D01*
X013833Y008083D01*
X013583Y008333D01*
X013083Y008333D01*
X012833Y008083D01*
X012833Y007583D01*
X015083Y021333D02*
X015583Y021333D01*
X015833Y021583D01*
X016083Y021333D01*
X016583Y021333D01*
X016833Y021583D01*
X017083Y021333D01*
X017583Y021333D01*
X017833Y021583D01*
X018083Y021333D01*
X018583Y021333D01*
X018833Y021583D01*
X019083Y021333D01*
X019583Y021333D01*
X019833Y021583D01*
X020083Y021333D01*
X020583Y021333D01*
X020833Y021583D01*
X020833Y022083D01*
X020583Y022333D01*
X020083Y022333D01*
X019833Y022083D01*
X019583Y022333D01*
X019083Y022333D01*
X018833Y022083D01*
X018583Y022333D01*
X018083Y022333D01*
X017833Y022083D01*
X017583Y022333D01*
X017083Y022333D01*
X016833Y022083D01*
X016583Y022333D01*
X016083Y022333D01*
X015833Y022083D01*
X015583Y022333D01*
X015083Y022333D01*
X014833Y022083D01*
X014833Y021583D01*
X015083Y021333D01*
D15*
X013831Y020964D02*
X013833Y020931D01*
X013833Y020334D01*
X013641Y020550D01*
X013607Y020582D01*
X013567Y020605D01*
X013553Y020611D01*
X013537Y020613D01*
X013447Y020613D01*
X013394Y020618D01*
X013342Y020633D01*
X013293Y020656D01*
X013248Y020689D01*
X013207Y020727D01*
X013172Y020770D01*
X013135Y020837D01*
X013110Y020908D01*
X013099Y020983D01*
X013101Y021059D01*
X013109Y021100D01*
X013124Y021140D01*
X013124Y021141D02*
X013536Y021141D01*
X013544Y021149D02*
X013129Y021149D01*
X013133Y021158D02*
X013552Y021158D01*
X013552Y021157D02*
X013494Y021096D01*
X013479Y021079D01*
X013469Y021058D01*
X013465Y021035D01*
X013467Y021012D01*
X013475Y020990D01*
X013488Y020970D01*
X013505Y020955D01*
X013528Y020943D01*
X013551Y020935D01*
X013576Y020931D01*
X013605Y020933D01*
X013633Y020941D01*
X013658Y020956D01*
X013672Y020970D01*
X013680Y020987D01*
X013684Y021005D01*
X013684Y021023D01*
X013680Y021040D01*
X013677Y021047D01*
X013785Y021047D01*
X013787Y021046D02*
X013805Y021024D01*
X013821Y020996D01*
X013682Y020996D01*
X013680Y020988D02*
X013823Y020988D01*
X013821Y020996D02*
X013831Y020964D01*
X013831Y020962D02*
X013664Y020962D01*
X013672Y020971D02*
X013829Y020971D01*
X013826Y020979D02*
X013676Y020979D01*
X013684Y021005D02*
X013816Y021005D01*
X013811Y021013D02*
X013684Y021013D01*
X013684Y021022D02*
X013807Y021022D01*
X013800Y021030D02*
X013683Y021030D01*
X013681Y021039D02*
X013793Y021039D01*
X013787Y021046D02*
X013764Y021063D01*
X013739Y021076D01*
X013711Y021083D01*
X013674Y021086D01*
X013637Y021083D01*
X013618Y021080D01*
X013625Y021081D01*
X013623Y021081D01*
X013625Y021081D02*
X013632Y021080D01*
X013638Y021076D01*
X013671Y021052D01*
X013677Y021047D01*
X013667Y021056D02*
X013775Y021056D01*
X013763Y021064D02*
X013655Y021064D01*
X013644Y021073D02*
X013746Y021073D01*
X013720Y021081D02*
X013625Y021081D01*
X013552Y021157D02*
X013598Y021226D01*
X013609Y021253D01*
X013613Y021282D01*
X013610Y021311D01*
X013599Y021339D01*
X013582Y021362D01*
X013555Y021388D01*
X013524Y021410D01*
X013494Y021426D01*
X013461Y021435D01*
X013426Y021437D01*
X013391Y021434D01*
X013356Y021425D01*
X013347Y021421D01*
X013503Y021421D01*
X013520Y021413D02*
X013327Y021413D01*
X013333Y021415D02*
X013313Y021407D01*
X013296Y021393D01*
X013295Y021392D01*
X013295Y021392D01*
X013319Y021392D01*
X013340Y021390D01*
X013360Y021384D01*
X013380Y021374D01*
X013397Y021358D01*
X013409Y021339D01*
X013415Y021317D01*
X013416Y021304D01*
X013413Y021291D01*
X013405Y021271D01*
X013393Y021252D01*
X013379Y021236D01*
X013362Y021221D01*
X013326Y021195D01*
X013306Y021185D01*
X013284Y021181D01*
X013261Y021183D01*
X013253Y021186D01*
X013238Y021197D01*
X013226Y021211D01*
X013224Y021217D01*
X013176Y021217D01*
X013179Y021221D02*
X013223Y021257D01*
X013223Y021222D01*
X013224Y021217D01*
X013223Y021226D02*
X013184Y021226D01*
X013179Y021221D02*
X013143Y021176D01*
X013124Y021140D01*
X013121Y021132D02*
X013528Y021132D01*
X013520Y021124D02*
X013118Y021124D01*
X013115Y021115D02*
X013512Y021115D01*
X013504Y021107D02*
X013112Y021107D01*
X013109Y021098D02*
X013496Y021098D01*
X013489Y021090D02*
X013107Y021090D01*
X013106Y021081D02*
X013481Y021081D01*
X013476Y021073D02*
X013104Y021073D01*
X013102Y021064D02*
X013472Y021064D01*
X013469Y021056D02*
X013101Y021056D01*
X013101Y021047D02*
X013467Y021047D01*
X013466Y021039D02*
X013101Y021039D01*
X013100Y021030D02*
X013465Y021030D01*
X013466Y021022D02*
X013100Y021022D01*
X013100Y021013D02*
X013467Y021013D01*
X013469Y021005D02*
X013100Y021005D01*
X013099Y020996D02*
X013472Y020996D01*
X013476Y020988D02*
X013099Y020988D01*
X013100Y020979D02*
X013482Y020979D01*
X013488Y020971D02*
X013101Y020971D01*
X013102Y020962D02*
X013498Y020962D01*
X013509Y020954D02*
X013103Y020954D01*
X013105Y020945D02*
X013524Y020945D01*
X013548Y020937D02*
X013106Y020937D01*
X013107Y020928D02*
X013833Y020928D01*
X013833Y020920D02*
X013109Y020920D01*
X013110Y020911D02*
X013833Y020911D01*
X013833Y020903D02*
X013112Y020903D01*
X013115Y020894D02*
X013833Y020894D01*
X013833Y020886D02*
X013118Y020886D01*
X013121Y020877D02*
X013833Y020877D01*
X013833Y020869D02*
X013124Y020869D01*
X013127Y020860D02*
X013833Y020860D01*
X013833Y020852D02*
X013130Y020852D01*
X013133Y020843D02*
X013833Y020843D01*
X013833Y020835D02*
X013136Y020835D01*
X013141Y020826D02*
X013833Y020826D01*
X013833Y020818D02*
X013146Y020818D01*
X013151Y020809D02*
X013833Y020809D01*
X013833Y020801D02*
X013155Y020801D01*
X013160Y020792D02*
X013833Y020792D01*
X013833Y020784D02*
X013165Y020784D01*
X013170Y020775D02*
X013833Y020775D01*
X013833Y020767D02*
X013175Y020767D01*
X013182Y020758D02*
X013833Y020758D01*
X013833Y020750D02*
X013189Y020750D01*
X013196Y020741D02*
X013833Y020741D01*
X013833Y020733D02*
X013203Y020733D01*
X013210Y020724D02*
X013833Y020724D01*
X013833Y020716D02*
X013219Y020716D01*
X013228Y020707D02*
X013833Y020707D01*
X013833Y020699D02*
X013237Y020699D01*
X013246Y020690D02*
X013833Y020690D01*
X013833Y020682D02*
X013258Y020682D01*
X013270Y020673D02*
X013833Y020673D01*
X013833Y020665D02*
X013282Y020665D01*
X013294Y020656D02*
X013833Y020656D01*
X013833Y020648D02*
X013311Y020648D01*
X013329Y020639D02*
X013833Y020639D01*
X013833Y020631D02*
X013350Y020631D01*
X013380Y020622D02*
X013833Y020622D01*
X013833Y020614D02*
X013445Y020614D01*
X013568Y020605D02*
X013833Y020605D01*
X013833Y020596D02*
X013582Y020596D01*
X013596Y020588D02*
X013833Y020588D01*
X013833Y020579D02*
X013610Y020579D01*
X013619Y020571D02*
X013833Y020571D01*
X013833Y020562D02*
X013628Y020562D01*
X013637Y020554D02*
X013833Y020554D01*
X013833Y020545D02*
X013646Y020545D01*
X013653Y020537D02*
X013833Y020537D01*
X013833Y020528D02*
X013661Y020528D01*
X013668Y020520D02*
X013833Y020520D01*
X013833Y020511D02*
X013676Y020511D01*
X013683Y020503D02*
X013833Y020503D01*
X013833Y020494D02*
X013691Y020494D01*
X013699Y020486D02*
X013833Y020486D01*
X013833Y020477D02*
X013706Y020477D01*
X013714Y020469D02*
X013833Y020469D01*
X013833Y020460D02*
X013721Y020460D01*
X013729Y020452D02*
X013833Y020452D01*
X013833Y020443D02*
X013736Y020443D01*
X013744Y020435D02*
X013833Y020435D01*
X013833Y020426D02*
X013751Y020426D01*
X013759Y020418D02*
X013833Y020418D01*
X013833Y020409D02*
X013766Y020409D01*
X013774Y020401D02*
X013833Y020401D01*
X013833Y020392D02*
X013782Y020392D01*
X013789Y020384D02*
X013833Y020384D01*
X013833Y020375D02*
X013797Y020375D01*
X013804Y020367D02*
X013833Y020367D01*
X013833Y020358D02*
X013812Y020358D01*
X013819Y020350D02*
X013833Y020350D01*
X013833Y020341D02*
X013827Y020341D01*
X013833Y020937D02*
X013618Y020937D01*
X013640Y020945D02*
X013832Y020945D01*
X013831Y020954D02*
X013654Y020954D01*
X013558Y021166D02*
X013138Y021166D01*
X013142Y021175D02*
X013563Y021175D01*
X013569Y021183D02*
X013295Y021183D01*
X013319Y021192D02*
X013575Y021192D01*
X013581Y021200D02*
X013333Y021200D01*
X013345Y021209D02*
X013586Y021209D01*
X013592Y021217D02*
X013356Y021217D01*
X013367Y021226D02*
X013598Y021226D01*
X013601Y021234D02*
X013377Y021234D01*
X013385Y021243D02*
X013605Y021243D01*
X013608Y021251D02*
X013392Y021251D01*
X013398Y021260D02*
X013610Y021260D01*
X013611Y021268D02*
X013403Y021268D01*
X013407Y021277D02*
X013612Y021277D01*
X013613Y021285D02*
X013411Y021285D01*
X013414Y021294D02*
X013612Y021294D01*
X013611Y021302D02*
X013415Y021302D01*
X013416Y021311D02*
X013610Y021311D01*
X013607Y021319D02*
X013415Y021319D01*
X013412Y021328D02*
X013604Y021328D01*
X013600Y021336D02*
X013410Y021336D01*
X013405Y021345D02*
X013595Y021345D01*
X013589Y021353D02*
X013400Y021353D01*
X013393Y021362D02*
X013583Y021362D01*
X013574Y021370D02*
X013384Y021370D01*
X013371Y021379D02*
X013565Y021379D01*
X013556Y021387D02*
X013351Y021387D01*
X013333Y021415D02*
X013347Y021421D01*
X013373Y021430D02*
X013479Y021430D01*
X013533Y021404D02*
X013310Y021404D01*
X013299Y021396D02*
X013545Y021396D01*
X013264Y021183D02*
X013149Y021183D01*
X013155Y021192D02*
X013246Y021192D01*
X013235Y021200D02*
X013162Y021200D01*
X013169Y021209D02*
X013229Y021209D01*
X013223Y021234D02*
X013195Y021234D01*
X013205Y021243D02*
X013223Y021243D01*
X013223Y021251D02*
X013216Y021251D01*
M02*
