G75*
G70*
%OFA0B0*%
%FSLAX24Y24*%
%IPPOS*%
%LPD*%
%AMOC8*
5,1,8,0,0,1.08239X$1,22.5*
%
%ADD10C,0.0080*%
%ADD11C,0.0100*%
%ADD12C,0.0740*%
%ADD13R,0.0315X0.0354*%
%ADD14R,0.0276X0.0354*%
%ADD15R,0.0500X0.0220*%
%ADD16R,0.0220X0.0500*%
%ADD17R,0.0500X0.0250*%
%ADD18R,0.0630X0.0551*%
%ADD19R,0.0315X0.0315*%
%ADD20R,0.0354X0.0276*%
%ADD21R,0.0217X0.0472*%
%ADD22C,0.0000*%
%ADD23R,0.1811X0.0394*%
%ADD24R,0.1339X0.0630*%
%ADD25C,0.0400*%
%ADD26C,0.0120*%
D10*
X010833Y007333D02*
X010833Y022333D01*
X024833Y022333D01*
X024833Y007333D01*
X010833Y007333D01*
X012327Y007533D02*
X012557Y007726D01*
X012721Y008010D01*
X012721Y008010D01*
X012778Y008333D01*
X012778Y008333D01*
X012721Y008656D01*
X012721Y008656D01*
X012557Y008940D01*
X012557Y008940D01*
X012306Y009151D01*
X012306Y009151D01*
X011997Y009263D01*
X011669Y009263D01*
X011361Y009151D01*
X011110Y008940D01*
X011033Y008808D01*
X011033Y011400D01*
X011065Y011391D01*
X011311Y011391D01*
X011311Y011634D01*
X011356Y011634D01*
X011356Y011679D01*
X011723Y011679D01*
X011723Y011799D01*
X011743Y011819D01*
X011743Y012202D01*
X011650Y012295D01*
X011645Y012295D01*
X011693Y012412D01*
X011693Y012555D01*
X011639Y012687D01*
X011537Y012789D01*
X011405Y012843D01*
X011262Y012843D01*
X011129Y012789D01*
X011033Y012692D01*
X011033Y013847D01*
X011113Y013847D01*
X011113Y013742D01*
X011242Y013613D01*
X011742Y013113D01*
X011924Y013113D01*
X012742Y013113D01*
X012863Y012992D01*
X012863Y010242D01*
X012992Y010113D01*
X013113Y009992D01*
X013113Y008316D01*
X013033Y008283D01*
X012884Y008134D01*
X012803Y007939D01*
X012803Y007728D01*
X012884Y007533D01*
X012327Y007533D01*
X012420Y007611D02*
X012852Y007611D01*
X012819Y007690D02*
X012513Y007690D01*
X012557Y007726D02*
X012557Y007726D01*
X012557Y007726D01*
X012581Y007768D02*
X012803Y007768D01*
X012803Y007847D02*
X012626Y007847D01*
X012672Y007925D02*
X012803Y007925D01*
X012830Y008004D02*
X012717Y008004D01*
X012733Y008082D02*
X012863Y008082D01*
X012911Y008161D02*
X012747Y008161D01*
X012761Y008239D02*
X012990Y008239D01*
X013113Y008318D02*
X012775Y008318D01*
X012767Y008396D02*
X013113Y008396D01*
X013113Y008475D02*
X012753Y008475D01*
X012739Y008553D02*
X013113Y008553D01*
X013113Y008632D02*
X012725Y008632D01*
X012690Y008710D02*
X013113Y008710D01*
X013113Y008789D02*
X012644Y008789D01*
X012599Y008867D02*
X013113Y008867D01*
X013113Y008946D02*
X012550Y008946D01*
X012457Y009024D02*
X013113Y009024D01*
X013113Y009103D02*
X012363Y009103D01*
X012223Y009181D02*
X013113Y009181D01*
X013113Y009260D02*
X012007Y009260D01*
X011660Y009260D02*
X011033Y009260D01*
X011033Y009338D02*
X013113Y009338D01*
X013113Y009417D02*
X011033Y009417D01*
X011033Y009495D02*
X013113Y009495D01*
X013113Y009574D02*
X011033Y009574D01*
X011033Y009652D02*
X013113Y009652D01*
X013113Y009731D02*
X011033Y009731D01*
X011033Y009809D02*
X013113Y009809D01*
X013113Y009888D02*
X011033Y009888D01*
X011033Y009966D02*
X013113Y009966D01*
X013061Y010045D02*
X011033Y010045D01*
X011033Y010123D02*
X012982Y010123D01*
X012904Y010202D02*
X011033Y010202D01*
X011033Y010280D02*
X012863Y010280D01*
X012863Y010359D02*
X011033Y010359D01*
X011033Y010437D02*
X012863Y010437D01*
X012863Y010516D02*
X011033Y010516D01*
X011033Y010594D02*
X012863Y010594D01*
X012863Y010673D02*
X011033Y010673D01*
X011033Y010751D02*
X012863Y010751D01*
X012863Y010830D02*
X011033Y010830D01*
X011033Y010908D02*
X012863Y010908D01*
X012863Y010987D02*
X011033Y010987D01*
X011033Y011065D02*
X012863Y011065D01*
X012863Y011144D02*
X011033Y011144D01*
X011033Y011222D02*
X012863Y011222D01*
X012863Y011301D02*
X011033Y011301D01*
X011033Y011379D02*
X012863Y011379D01*
X012863Y011458D02*
X012703Y011458D01*
X012695Y011445D02*
X012714Y011477D01*
X012723Y011513D01*
X012723Y011634D01*
X012356Y011634D01*
X012356Y011679D01*
X012723Y011679D01*
X012723Y011799D01*
X012743Y011819D01*
X012743Y012202D01*
X012650Y012295D01*
X012645Y012295D01*
X012693Y012412D01*
X012693Y012555D01*
X012639Y012687D01*
X012537Y012789D01*
X012405Y012843D01*
X012262Y012843D01*
X012129Y012789D01*
X012028Y012687D01*
X011973Y012555D01*
X011973Y012412D01*
X012021Y012295D01*
X012017Y012295D01*
X011923Y012202D01*
X011923Y011819D01*
X011943Y011799D01*
X011943Y011679D01*
X012311Y011679D01*
X012311Y011634D01*
X011943Y011634D01*
X011943Y011513D01*
X011953Y011477D01*
X011971Y011445D01*
X011997Y011419D01*
X012029Y011401D01*
X012065Y011391D01*
X012311Y011391D01*
X012311Y011634D01*
X012356Y011634D01*
X012356Y011391D01*
X012602Y011391D01*
X012637Y011401D01*
X012669Y011419D01*
X012695Y011445D01*
X012723Y011536D02*
X012863Y011536D01*
X012863Y011615D02*
X012723Y011615D01*
X012723Y011693D02*
X012863Y011693D01*
X012863Y011772D02*
X012723Y011772D01*
X012743Y011850D02*
X012863Y011850D01*
X012863Y011929D02*
X012743Y011929D01*
X012743Y012007D02*
X012863Y012007D01*
X012863Y012086D02*
X012743Y012086D01*
X012743Y012164D02*
X012863Y012164D01*
X012863Y012243D02*
X012702Y012243D01*
X012656Y012321D02*
X012863Y012321D01*
X012863Y012400D02*
X012688Y012400D01*
X012693Y012478D02*
X012863Y012478D01*
X012863Y012557D02*
X012693Y012557D01*
X012660Y012635D02*
X012863Y012635D01*
X012863Y012714D02*
X012612Y012714D01*
X012528Y012792D02*
X012863Y012792D01*
X012863Y012871D02*
X011033Y012871D01*
X011033Y012949D02*
X012863Y012949D01*
X012828Y013028D02*
X011033Y013028D01*
X011033Y013106D02*
X012749Y013106D01*
X012139Y012792D02*
X011528Y012792D01*
X011612Y012714D02*
X012055Y012714D01*
X012007Y012635D02*
X011660Y012635D01*
X011693Y012557D02*
X011974Y012557D01*
X011973Y012478D02*
X011693Y012478D01*
X011688Y012400D02*
X011978Y012400D01*
X012011Y012321D02*
X011656Y012321D01*
X011702Y012243D02*
X011964Y012243D01*
X011923Y012164D02*
X011743Y012164D01*
X011743Y012086D02*
X011923Y012086D01*
X011923Y012007D02*
X011743Y012007D01*
X011743Y011929D02*
X011923Y011929D01*
X011923Y011850D02*
X011743Y011850D01*
X011723Y011772D02*
X011943Y011772D01*
X011943Y011693D02*
X011723Y011693D01*
X011723Y011634D02*
X011356Y011634D01*
X011356Y011391D01*
X011602Y011391D01*
X011637Y011401D01*
X011669Y011419D01*
X011695Y011445D01*
X011714Y011477D01*
X011723Y011513D01*
X011723Y011634D01*
X011723Y011615D02*
X011943Y011615D01*
X011943Y011536D02*
X011723Y011536D01*
X011703Y011458D02*
X011964Y011458D01*
X012311Y011458D02*
X012356Y011458D01*
X012356Y011536D02*
X012311Y011536D01*
X012311Y011615D02*
X012356Y011615D01*
X012333Y012010D02*
X012333Y012483D01*
X011333Y012483D02*
X011333Y012010D01*
X011311Y011615D02*
X011356Y011615D01*
X011356Y011536D02*
X011311Y011536D01*
X011311Y011458D02*
X011356Y011458D01*
X013303Y010552D02*
X013368Y010487D01*
X014342Y009513D01*
X014800Y009513D01*
X014800Y009362D01*
X015049Y009362D01*
X015049Y009304D01*
X014800Y009304D01*
X014800Y009138D01*
X014809Y009102D01*
X014828Y009070D01*
X014844Y009053D01*
X013553Y009053D01*
X013553Y009992D01*
X013553Y010174D01*
X013303Y010424D01*
X013303Y010552D01*
X013303Y010516D02*
X013340Y010516D01*
X013368Y010487D02*
X013368Y010487D01*
X013418Y010437D02*
X013303Y010437D01*
X013369Y010359D02*
X013497Y010359D01*
X013447Y010280D02*
X013575Y010280D01*
X013526Y010202D02*
X013654Y010202D01*
X013732Y010123D02*
X013553Y010123D01*
X013553Y010045D02*
X013811Y010045D01*
X013889Y009966D02*
X013553Y009966D01*
X013553Y009888D02*
X013968Y009888D01*
X014046Y009809D02*
X013553Y009809D01*
X013553Y009731D02*
X014125Y009731D01*
X014203Y009652D02*
X013553Y009652D01*
X013553Y009574D02*
X014282Y009574D01*
X014800Y009495D02*
X013553Y009495D01*
X013553Y009417D02*
X014800Y009417D01*
X014800Y009260D02*
X013553Y009260D01*
X013553Y009338D02*
X015049Y009338D01*
X014800Y009181D02*
X013553Y009181D01*
X013553Y009103D02*
X014809Y009103D01*
X015833Y009577D02*
X015833Y010583D01*
X015333Y011083D01*
X015333Y011400D01*
X015016Y011379D02*
X014151Y011379D01*
X014151Y011301D02*
X015016Y011301D01*
X015016Y011222D02*
X014151Y011222D01*
X014151Y011157D02*
X014151Y011644D01*
X014057Y011737D01*
X013679Y011737D01*
X013679Y011890D01*
X013683Y011890D01*
X013777Y011984D01*
X013777Y012470D01*
X013683Y012564D01*
X013679Y012564D01*
X013679Y012618D01*
X013753Y012692D01*
X013753Y014062D01*
X013858Y014062D01*
X013858Y013940D01*
X013952Y013847D01*
X014715Y013847D01*
X014808Y013940D01*
X014808Y014357D01*
X015012Y014357D01*
X015090Y014280D01*
X015444Y014280D01*
X015444Y014253D01*
X015457Y014240D01*
X014125Y012907D01*
X014007Y012790D01*
X014007Y012564D01*
X013984Y012564D01*
X013890Y012470D01*
X013890Y011984D01*
X013984Y011890D01*
X014431Y011890D01*
X014525Y011984D01*
X014525Y012470D01*
X014431Y012564D01*
X014407Y012564D01*
X014407Y012625D01*
X015133Y013350D01*
X015133Y012544D01*
X014998Y012544D01*
X014998Y012266D01*
X014921Y012266D01*
X014921Y012544D01*
X014783Y012544D01*
X014748Y012535D01*
X014716Y012516D01*
X014690Y012490D01*
X014671Y012458D01*
X014662Y012423D01*
X014662Y012266D01*
X014921Y012266D01*
X014921Y012188D01*
X014998Y012188D01*
X014998Y011910D01*
X015135Y011910D01*
X015171Y011919D01*
X015203Y011938D01*
X015229Y011964D01*
X015247Y011996D01*
X015257Y012031D01*
X015257Y012188D01*
X014998Y012188D01*
X014998Y012266D01*
X015257Y012266D01*
X015257Y012395D01*
X015390Y012262D01*
X015390Y011984D01*
X015484Y011890D01*
X015931Y011890D01*
X016025Y011984D01*
X016025Y012470D01*
X015931Y012564D01*
X015653Y012564D01*
X015533Y012684D01*
X015533Y013364D01*
X015947Y013778D01*
X016018Y013707D01*
X016283Y013972D01*
X016304Y013951D01*
X016039Y013686D01*
X016112Y013613D01*
X016112Y013584D01*
X016362Y013335D01*
X016390Y013335D01*
X016463Y013262D01*
X016728Y013527D01*
X016750Y013506D01*
X016485Y013241D01*
X016536Y013189D01*
X016405Y013243D01*
X016262Y013243D01*
X016129Y013189D01*
X016028Y013087D01*
X015973Y012955D01*
X015973Y012812D01*
X016028Y012679D01*
X016129Y012578D01*
X016242Y012531D01*
X016216Y012516D01*
X016190Y012490D01*
X016171Y012458D01*
X016162Y012423D01*
X016162Y012266D01*
X016421Y012266D01*
X016421Y012188D01*
X016498Y012188D01*
X016498Y011910D01*
X016635Y011910D01*
X016671Y011919D01*
X016703Y011938D01*
X016729Y011964D01*
X016747Y011996D01*
X016757Y012031D01*
X016757Y012188D01*
X016498Y012188D01*
X016498Y012266D01*
X016659Y012266D01*
X016762Y012223D01*
X016890Y012223D01*
X016890Y011984D01*
X016984Y011890D01*
X017431Y011890D01*
X017525Y011984D01*
X017525Y012027D01*
X017660Y012027D01*
X018033Y012400D01*
X018162Y012400D01*
X018162Y012423D02*
X018162Y012266D01*
X018421Y012266D01*
X018421Y012188D01*
X018498Y012188D01*
X018498Y011910D01*
X018635Y011910D01*
X018671Y011919D01*
X018703Y011938D01*
X018729Y011964D01*
X018747Y011996D01*
X018757Y012031D01*
X018757Y012188D01*
X018498Y012188D01*
X018498Y012266D01*
X018757Y012266D01*
X018757Y012383D01*
X018890Y012383D01*
X018890Y011984D01*
X018984Y011890D01*
X019431Y011890D01*
X019525Y011984D01*
X019525Y012470D01*
X019431Y012564D01*
X019385Y012564D01*
X019366Y012583D01*
X020500Y012583D01*
X020507Y012576D01*
X020507Y012564D01*
X020484Y012564D01*
X020390Y012470D01*
X020390Y011984D01*
X020484Y011890D01*
X020931Y011890D01*
X021025Y011984D01*
X021025Y012470D01*
X020931Y012564D01*
X020907Y012564D01*
X020907Y012742D01*
X020841Y012808D01*
X021875Y012808D01*
X022007Y012676D01*
X022007Y012564D01*
X021984Y012564D01*
X021890Y012470D01*
X021890Y011984D01*
X021984Y011890D01*
X022431Y011890D01*
X022525Y011984D01*
X022525Y012470D01*
X022431Y012564D01*
X022407Y012564D01*
X022407Y012842D01*
X022041Y013208D01*
X021671Y013208D01*
X021693Y013262D01*
X021693Y013405D01*
X021639Y013537D01*
X021537Y013639D01*
X021425Y013685D01*
X021735Y013685D01*
X021735Y013620D01*
X022613Y012742D01*
X022613Y009424D01*
X022242Y009053D01*
X020850Y009053D01*
X020887Y009090D01*
X020887Y009133D01*
X021416Y009133D01*
X021533Y009250D01*
X021533Y009250D01*
X021916Y009633D01*
X022033Y009750D01*
X022033Y011063D01*
X022057Y011063D01*
X022151Y011157D01*
X022151Y011644D01*
X022057Y011737D01*
X021610Y011737D01*
X021516Y011644D01*
X021516Y011157D01*
X021610Y011063D01*
X021633Y011063D01*
X021633Y009916D01*
X021250Y009533D01*
X020887Y009533D01*
X020887Y009577D01*
X020793Y009670D01*
X020453Y009670D01*
X020533Y009750D01*
X020533Y009843D01*
X020634Y009884D01*
X020783Y010033D01*
X020863Y010228D01*
X020863Y010439D01*
X020783Y010634D01*
X020634Y010783D01*
X020439Y010863D01*
X020396Y010863D01*
X020533Y011000D01*
X020533Y011063D01*
X020557Y011063D01*
X020651Y011157D01*
X020651Y011644D01*
X020557Y011737D01*
X020110Y011737D01*
X020016Y011644D01*
X020016Y011157D01*
X020070Y011103D01*
X019750Y010783D01*
X019692Y010725D01*
X019634Y010783D01*
X019439Y010863D01*
X019228Y010863D01*
X019033Y010783D01*
X019033Y011063D01*
X019057Y011063D01*
X019151Y011157D01*
X019151Y011644D01*
X019057Y011737D01*
X018610Y011737D01*
X018516Y011644D01*
X018516Y011157D01*
X018610Y011063D01*
X018633Y011063D01*
X018633Y010783D01*
X018439Y010863D01*
X018228Y010863D01*
X018033Y010783D01*
X017884Y010634D01*
X017833Y010511D01*
X017783Y010634D01*
X017634Y010783D01*
X017439Y010863D01*
X017228Y010863D01*
X017033Y010783D01*
X017033Y011063D01*
X017057Y011063D01*
X017151Y011157D01*
X017151Y011644D01*
X017057Y011737D01*
X016610Y011737D01*
X016516Y011644D01*
X016516Y011157D01*
X016610Y011063D01*
X016633Y011063D01*
X016633Y010783D01*
X016439Y010863D01*
X016228Y010863D01*
X016033Y010783D01*
X015975Y010725D01*
X015916Y010783D01*
X015597Y011103D01*
X015651Y011157D01*
X015651Y011644D01*
X015557Y011737D01*
X015110Y011737D01*
X015016Y011644D01*
X015016Y011157D01*
X015110Y011063D01*
X015133Y011063D01*
X015133Y011000D01*
X015270Y010863D01*
X015228Y010863D01*
X015033Y010783D01*
X014884Y010634D01*
X014843Y010533D01*
X014416Y010533D01*
X014033Y010916D01*
X014033Y011063D01*
X014057Y011063D01*
X014151Y011157D01*
X014138Y011144D02*
X015029Y011144D01*
X015107Y011065D02*
X014059Y011065D01*
X014033Y010987D02*
X015147Y010987D01*
X015226Y010908D02*
X014041Y010908D01*
X014120Y010830D02*
X015147Y010830D01*
X015002Y010751D02*
X014198Y010751D01*
X014277Y010673D02*
X014923Y010673D01*
X014868Y010594D02*
X014355Y010594D01*
X014333Y010333D02*
X013833Y010833D01*
X013833Y011400D01*
X014151Y011458D02*
X015016Y011458D01*
X015016Y011536D02*
X014151Y011536D01*
X014151Y011615D02*
X015016Y011615D01*
X015065Y011693D02*
X014101Y011693D01*
X013945Y011929D02*
X013722Y011929D01*
X013679Y011850D02*
X022613Y011850D01*
X022613Y011772D02*
X013679Y011772D01*
X013777Y012007D02*
X013890Y012007D01*
X013890Y012086D02*
X013777Y012086D01*
X013777Y012164D02*
X013890Y012164D01*
X013890Y012243D02*
X013777Y012243D01*
X013777Y012321D02*
X013890Y012321D01*
X013890Y012400D02*
X013777Y012400D01*
X013769Y012478D02*
X013898Y012478D01*
X013976Y012557D02*
X013690Y012557D01*
X013696Y012635D02*
X014007Y012635D01*
X014007Y012714D02*
X013753Y012714D01*
X013753Y012792D02*
X014009Y012792D01*
X014088Y012871D02*
X013753Y012871D01*
X013753Y012949D02*
X014166Y012949D01*
X014245Y013028D02*
X013753Y013028D01*
X013753Y013106D02*
X014323Y013106D01*
X014402Y013185D02*
X013753Y013185D01*
X013753Y013263D02*
X014480Y013263D01*
X014559Y013342D02*
X013753Y013342D01*
X013753Y013420D02*
X014637Y013420D01*
X014716Y013499D02*
X013753Y013499D01*
X013753Y013577D02*
X014794Y013577D01*
X014873Y013656D02*
X013753Y013656D01*
X013753Y013734D02*
X014951Y013734D01*
X015030Y013813D02*
X013753Y013813D01*
X013753Y013891D02*
X013907Y013891D01*
X013858Y013970D02*
X013753Y013970D01*
X013753Y014048D02*
X013858Y014048D01*
X014759Y013891D02*
X015108Y013891D01*
X015187Y013970D02*
X014808Y013970D01*
X014808Y014048D02*
X015265Y014048D01*
X015344Y014127D02*
X014808Y014127D01*
X014808Y014205D02*
X015422Y014205D01*
X015086Y014284D02*
X014808Y014284D01*
X014458Y014718D02*
X013952Y014718D01*
X013858Y014624D01*
X013858Y014541D01*
X013753Y014541D01*
X013753Y016124D01*
X013624Y016253D01*
X013053Y016824D01*
X013053Y017280D01*
X013077Y017280D01*
X013142Y017345D01*
X013142Y017196D01*
X013236Y017102D01*
X013281Y017102D01*
X013633Y016750D01*
X013750Y016633D01*
X014192Y016633D01*
X015444Y015381D01*
X015444Y015367D01*
X015362Y015367D01*
X015362Y015118D01*
X015304Y015118D01*
X015304Y015060D01*
X015016Y015060D01*
X015016Y014933D01*
X015026Y014897D01*
X015044Y014865D01*
X015062Y014847D01*
X015012Y014797D01*
X014537Y014797D01*
X014458Y014718D01*
X014495Y014755D02*
X013753Y014755D01*
X013753Y014833D02*
X015048Y014833D01*
X015022Y014912D02*
X013753Y014912D01*
X013753Y014990D02*
X013944Y014990D01*
X013932Y014997D02*
X013964Y014978D01*
X014000Y014969D01*
X014293Y014969D01*
X014293Y015345D01*
X013878Y015345D01*
X013878Y015090D01*
X013888Y015055D01*
X013906Y015023D01*
X013932Y014997D01*
X013884Y015069D02*
X013753Y015069D01*
X013753Y015147D02*
X013878Y015147D01*
X013878Y015226D02*
X013753Y015226D01*
X013753Y015304D02*
X013878Y015304D01*
X013878Y015425D02*
X014293Y015425D01*
X014293Y015800D01*
X014000Y015800D01*
X013964Y015791D01*
X013932Y015772D01*
X013906Y015746D01*
X013888Y015714D01*
X013878Y015679D01*
X013878Y015425D01*
X013878Y015461D02*
X013753Y015461D01*
X013753Y015383D02*
X014293Y015383D01*
X014293Y015345D02*
X014293Y015425D01*
X014373Y015425D01*
X014373Y015800D01*
X014667Y015800D01*
X014702Y015791D01*
X014734Y015772D01*
X014760Y015746D01*
X014779Y015714D01*
X014788Y015679D01*
X014788Y015425D01*
X014373Y015425D01*
X014373Y015345D01*
X014788Y015345D01*
X014788Y015090D01*
X014779Y015055D01*
X014760Y015023D01*
X014734Y014997D01*
X014702Y014978D01*
X014667Y014969D01*
X014373Y014969D01*
X014373Y015345D01*
X014293Y015345D01*
X014293Y015304D02*
X014373Y015304D01*
X014373Y015226D02*
X014293Y015226D01*
X014293Y015147D02*
X014373Y015147D01*
X014373Y015069D02*
X014293Y015069D01*
X014293Y014990D02*
X014373Y014990D01*
X014723Y014990D02*
X015016Y014990D01*
X015016Y015118D02*
X015304Y015118D01*
X015304Y015367D01*
X015138Y015367D01*
X015102Y015357D01*
X015070Y015339D01*
X015044Y015313D01*
X015026Y015281D01*
X015016Y015245D01*
X015016Y015118D01*
X015016Y015147D02*
X014788Y015147D01*
X014782Y015069D02*
X015304Y015069D01*
X015362Y015069D02*
X015657Y015069D01*
X015650Y015060D02*
X015650Y014933D01*
X015722Y015004D01*
X015608Y015118D01*
X015362Y015118D01*
X015362Y015060D01*
X015650Y015060D01*
X015650Y014990D02*
X015707Y014990D01*
X015833Y014833D02*
X015577Y014577D01*
X015333Y014577D01*
X015859Y014418D02*
X015859Y014359D01*
X014207Y012707D01*
X014207Y012227D01*
X014525Y012243D02*
X014921Y012243D01*
X014921Y012188D02*
X014662Y012188D01*
X014662Y012031D01*
X014671Y011996D01*
X014690Y011964D01*
X014716Y011938D01*
X014748Y011919D01*
X014783Y011910D01*
X014921Y011910D01*
X014921Y012188D01*
X014921Y012164D02*
X014998Y012164D01*
X014998Y012086D02*
X014921Y012086D01*
X014921Y012007D02*
X014998Y012007D01*
X014998Y011929D02*
X014921Y011929D01*
X014731Y011929D02*
X014470Y011929D01*
X014525Y012007D02*
X014668Y012007D01*
X014662Y012086D02*
X014525Y012086D01*
X014525Y012164D02*
X014662Y012164D01*
X014662Y012321D02*
X014525Y012321D01*
X014525Y012400D02*
X014662Y012400D01*
X014683Y012478D02*
X014517Y012478D01*
X014438Y012557D02*
X015133Y012557D01*
X015133Y012635D02*
X014418Y012635D01*
X014497Y012714D02*
X015133Y012714D01*
X015133Y012792D02*
X014575Y012792D01*
X014654Y012871D02*
X015133Y012871D01*
X015133Y012949D02*
X014732Y012949D01*
X014811Y013028D02*
X015133Y013028D01*
X015133Y013106D02*
X014889Y013106D01*
X014968Y013185D02*
X015133Y013185D01*
X015133Y013263D02*
X015046Y013263D01*
X015125Y013342D02*
X015133Y013342D01*
X015333Y013447D02*
X015333Y012601D01*
X015707Y012227D01*
X015390Y012243D02*
X014998Y012243D01*
X014998Y012321D02*
X014921Y012321D01*
X014921Y012400D02*
X014998Y012400D01*
X014998Y012478D02*
X014921Y012478D01*
X015257Y012321D02*
X015330Y012321D01*
X015390Y012164D02*
X015257Y012164D01*
X015257Y012086D02*
X015390Y012086D01*
X015390Y012007D02*
X015250Y012007D01*
X015187Y011929D02*
X015445Y011929D01*
X015601Y011693D02*
X016565Y011693D01*
X016516Y011615D02*
X015651Y011615D01*
X015651Y011536D02*
X016516Y011536D01*
X016516Y011458D02*
X015651Y011458D01*
X015651Y011379D02*
X016516Y011379D01*
X016516Y011301D02*
X015651Y011301D01*
X015651Y011222D02*
X016516Y011222D01*
X016529Y011144D02*
X015638Y011144D01*
X015634Y011065D02*
X016607Y011065D01*
X016633Y010987D02*
X015713Y010987D01*
X015791Y010908D02*
X016633Y010908D01*
X016633Y010830D02*
X016520Y010830D01*
X016147Y010830D02*
X015870Y010830D01*
X015948Y010751D02*
X016002Y010751D01*
X016333Y010333D02*
X016333Y009833D01*
X016589Y009577D01*
X016589Y009333D01*
X016833Y009577D02*
X017077Y009333D01*
X016833Y009577D02*
X016833Y011400D01*
X017151Y011379D02*
X018516Y011379D01*
X018516Y011301D02*
X017151Y011301D01*
X017151Y011222D02*
X018516Y011222D01*
X018529Y011144D02*
X017138Y011144D01*
X017059Y011065D02*
X018607Y011065D01*
X018633Y010987D02*
X017033Y010987D01*
X017033Y010908D02*
X018633Y010908D01*
X018633Y010830D02*
X018520Y010830D01*
X018147Y010830D02*
X017520Y010830D01*
X017665Y010751D02*
X018002Y010751D01*
X017923Y010673D02*
X017743Y010673D01*
X017799Y010594D02*
X017868Y010594D01*
X017835Y010516D02*
X017831Y010516D01*
X017333Y010333D02*
X017333Y009833D01*
X017589Y009577D01*
X017589Y009333D01*
X018077Y009333D02*
X018077Y009577D01*
X018333Y009833D01*
X018333Y010333D01*
X019033Y010830D02*
X019147Y010830D01*
X019033Y010908D02*
X019875Y010908D01*
X019797Y010830D02*
X019520Y010830D01*
X019665Y010751D02*
X019718Y010751D01*
X019833Y010583D02*
X019833Y009577D01*
X019589Y009333D01*
X020077Y009333D02*
X020077Y009577D01*
X020333Y009833D01*
X020333Y010333D01*
X020716Y009966D02*
X021633Y009966D01*
X021633Y010045D02*
X020787Y010045D01*
X020820Y010123D02*
X021633Y010123D01*
X021633Y010202D02*
X020853Y010202D01*
X020863Y010280D02*
X021633Y010280D01*
X021633Y010359D02*
X020863Y010359D01*
X020863Y010437D02*
X021633Y010437D01*
X021633Y010516D02*
X020831Y010516D01*
X020799Y010594D02*
X021633Y010594D01*
X021633Y010673D02*
X020743Y010673D01*
X020665Y010751D02*
X021633Y010751D01*
X021633Y010830D02*
X020520Y010830D01*
X020441Y010908D02*
X021633Y010908D01*
X021633Y010987D02*
X020520Y010987D01*
X020559Y011065D02*
X021607Y011065D01*
X021529Y011144D02*
X020638Y011144D01*
X020651Y011222D02*
X021516Y011222D01*
X021516Y011301D02*
X020651Y011301D01*
X020651Y011379D02*
X021516Y011379D01*
X021516Y011458D02*
X020651Y011458D01*
X020651Y011536D02*
X021516Y011536D01*
X021516Y011615D02*
X020651Y011615D01*
X020601Y011693D02*
X021565Y011693D01*
X021498Y011910D02*
X021635Y011910D01*
X021671Y011919D01*
X021703Y011938D01*
X021729Y011964D01*
X021747Y011996D01*
X021757Y012031D01*
X021757Y012188D01*
X021498Y012188D01*
X021498Y011910D01*
X021498Y011929D02*
X021421Y011929D01*
X021421Y011910D02*
X021283Y011910D01*
X021248Y011919D01*
X021216Y011938D01*
X021190Y011964D01*
X021171Y011996D01*
X021162Y012031D01*
X021162Y012188D01*
X021421Y012188D01*
X021498Y012188D01*
X021498Y012266D01*
X021421Y012266D01*
X021421Y012544D01*
X021283Y012544D01*
X021248Y012535D01*
X021216Y012516D01*
X021190Y012490D01*
X021171Y012458D01*
X021162Y012423D01*
X021162Y012266D01*
X021421Y012266D01*
X021421Y012188D01*
X021421Y011910D01*
X021421Y012007D02*
X021498Y012007D01*
X021498Y012086D02*
X021421Y012086D01*
X021421Y012164D02*
X021498Y012164D01*
X021498Y012243D02*
X021890Y012243D01*
X021890Y012321D02*
X021757Y012321D01*
X021757Y012266D02*
X021757Y012423D01*
X021747Y012458D01*
X021729Y012490D01*
X021703Y012516D01*
X021671Y012535D01*
X021635Y012544D01*
X021498Y012544D01*
X021498Y012266D01*
X021757Y012266D01*
X021757Y012164D02*
X021890Y012164D01*
X021890Y012086D02*
X021757Y012086D01*
X021750Y012007D02*
X021890Y012007D01*
X021945Y011929D02*
X021687Y011929D01*
X021421Y012243D02*
X021025Y012243D01*
X021025Y012321D02*
X021162Y012321D01*
X021162Y012400D02*
X021025Y012400D01*
X021017Y012478D02*
X021183Y012478D01*
X021421Y012478D02*
X021498Y012478D01*
X021498Y012400D02*
X021421Y012400D01*
X021421Y012321D02*
X021498Y012321D01*
X021757Y012400D02*
X021890Y012400D01*
X021898Y012478D02*
X021736Y012478D01*
X021976Y012557D02*
X020938Y012557D01*
X020907Y012635D02*
X022007Y012635D01*
X021970Y012714D02*
X020907Y012714D01*
X020857Y012792D02*
X021891Y012792D01*
X021958Y013008D02*
X022207Y012759D01*
X022207Y012227D01*
X022525Y012243D02*
X022613Y012243D01*
X022613Y012321D02*
X022525Y012321D01*
X022525Y012400D02*
X022613Y012400D01*
X022613Y012478D02*
X022517Y012478D01*
X022438Y012557D02*
X022613Y012557D01*
X022613Y012635D02*
X022407Y012635D01*
X022407Y012714D02*
X022613Y012714D01*
X022563Y012792D02*
X022407Y012792D01*
X022379Y012871D02*
X022485Y012871D01*
X022406Y012949D02*
X022300Y012949D01*
X022328Y013028D02*
X022222Y013028D01*
X022249Y013106D02*
X022143Y013106D01*
X022171Y013185D02*
X022065Y013185D01*
X022092Y013263D02*
X021693Y013263D01*
X021693Y013342D02*
X022014Y013342D01*
X021935Y013420D02*
X021687Y013420D01*
X021654Y013499D02*
X021857Y013499D01*
X021778Y013577D02*
X021598Y013577D01*
X021495Y013656D02*
X021735Y013656D01*
X021333Y013333D02*
X020333Y014333D01*
X020333Y014723D01*
X019808Y015249D01*
X019585Y015472D02*
X020333Y016220D01*
X020333Y017833D01*
X020746Y017478D02*
X021005Y017478D01*
X021005Y017613D01*
X021142Y017613D01*
X021142Y017196D01*
X021236Y017102D01*
X021259Y017102D01*
X021259Y016692D01*
X021129Y016639D01*
X021083Y016592D01*
X021037Y016639D01*
X021036Y016639D02*
X021130Y016639D01*
X021037Y016639D02*
X020905Y016693D01*
X020762Y016693D01*
X020629Y016639D01*
X020533Y016542D01*
X020533Y017122D01*
X020669Y017122D01*
X020669Y017401D01*
X020746Y017401D01*
X020746Y017478D01*
X020746Y017424D02*
X021142Y017424D01*
X021142Y017502D02*
X021005Y017502D01*
X021005Y017581D02*
X021142Y017581D01*
X021005Y017401D02*
X020746Y017401D01*
X020746Y017122D01*
X020883Y017122D01*
X020919Y017132D01*
X020951Y017150D01*
X020977Y017177D01*
X020995Y017208D01*
X021005Y017244D01*
X021005Y017401D01*
X021005Y017345D02*
X021142Y017345D01*
X021142Y017267D02*
X021005Y017267D01*
X020984Y017188D02*
X021150Y017188D01*
X021228Y017110D02*
X020533Y017110D01*
X020533Y017031D02*
X021259Y017031D01*
X021259Y016953D02*
X020533Y016953D01*
X020533Y016874D02*
X021259Y016874D01*
X021259Y016796D02*
X020533Y016796D01*
X020533Y016717D02*
X021259Y016717D01*
X021459Y016459D02*
X021333Y016333D01*
X021459Y016459D02*
X021459Y017440D01*
X021777Y017424D02*
X021890Y017424D01*
X021890Y017466D02*
X021890Y017196D01*
X021984Y017102D01*
X022431Y017102D01*
X022525Y017196D01*
X022525Y017683D01*
X022431Y017777D01*
X022201Y017777D01*
X022049Y017929D01*
X022057Y017929D01*
X022151Y018023D01*
X022151Y018510D01*
X022057Y018604D01*
X022033Y018604D01*
X022033Y018916D01*
X021533Y019416D01*
X021416Y019533D01*
X020824Y019533D01*
X020783Y019634D01*
X020634Y019783D01*
X020444Y019861D01*
X020579Y019996D01*
X020793Y019996D01*
X020887Y020090D01*
X020887Y020577D01*
X020793Y020670D01*
X020385Y020670D01*
X020333Y020619D01*
X020281Y020670D01*
X019873Y020670D01*
X019833Y020630D01*
X019793Y020670D01*
X019789Y020670D01*
X019789Y021006D01*
X020128Y021345D01*
X020228Y021303D01*
X020439Y021303D01*
X020634Y021384D01*
X020783Y021533D01*
X020863Y021728D01*
X020863Y021939D01*
X020783Y022133D01*
X023340Y022133D01*
X023110Y021940D01*
X022946Y021656D01*
X022889Y021333D01*
X022946Y021010D01*
X023110Y020726D01*
X023361Y020516D01*
X023669Y020403D01*
X023997Y020403D01*
X024306Y020516D01*
X024557Y020726D01*
X024633Y020859D01*
X024633Y017037D01*
X023267Y017037D01*
X023173Y016943D01*
X023173Y016180D01*
X023267Y016087D01*
X024633Y016087D01*
X024633Y013572D01*
X023267Y013572D01*
X023173Y013478D01*
X023173Y012716D01*
X023267Y012622D01*
X024633Y012622D01*
X024633Y008808D01*
X024557Y008940D01*
X024557Y008940D01*
X024306Y009151D01*
X024306Y009151D01*
X023997Y009263D01*
X023669Y009263D01*
X023361Y009151D01*
X023110Y008940D01*
X022946Y008656D01*
X022889Y008333D01*
X022946Y008010D01*
X023110Y007726D01*
X023340Y007533D01*
X022783Y007533D01*
X022863Y007728D01*
X022863Y007939D01*
X022783Y008134D01*
X022634Y008283D01*
X022439Y008363D01*
X022228Y008363D01*
X022033Y008283D01*
X021884Y008134D01*
X021833Y008011D01*
X021783Y008134D01*
X021634Y008283D01*
X021439Y008363D01*
X021228Y008363D01*
X021033Y008283D01*
X020884Y008134D01*
X020833Y008011D01*
X020783Y008134D01*
X020634Y008283D01*
X020439Y008363D01*
X020228Y008363D01*
X020033Y008283D01*
X019884Y008134D01*
X019833Y008011D01*
X019783Y008134D01*
X019634Y008283D01*
X019439Y008363D01*
X019228Y008363D01*
X019033Y008283D01*
X018884Y008134D01*
X018833Y008011D01*
X018783Y008134D01*
X018634Y008283D01*
X018439Y008363D01*
X018228Y008363D01*
X018033Y008283D01*
X017884Y008134D01*
X017833Y008011D01*
X017783Y008134D01*
X017634Y008283D01*
X017439Y008363D01*
X017228Y008363D01*
X017033Y008283D01*
X016884Y008134D01*
X016833Y008011D01*
X016783Y008134D01*
X016634Y008283D01*
X016439Y008363D01*
X016228Y008363D01*
X016033Y008283D01*
X015884Y008134D01*
X015833Y008011D01*
X015783Y008134D01*
X015634Y008283D01*
X015439Y008363D01*
X015228Y008363D01*
X015033Y008283D01*
X014884Y008134D01*
X014821Y007982D01*
X014806Y008029D01*
X014770Y008101D01*
X014722Y008166D01*
X014666Y008222D01*
X014601Y008270D01*
X014529Y008306D01*
X014453Y008331D01*
X014373Y008343D01*
X014373Y007873D01*
X014293Y007873D01*
X014293Y008343D01*
X014214Y008331D01*
X014138Y008306D01*
X014066Y008270D01*
X014001Y008222D01*
X013944Y008166D01*
X013897Y008101D01*
X013861Y008029D01*
X013845Y007982D01*
X013783Y008134D01*
X013634Y008283D01*
X013553Y008316D01*
X013553Y008613D01*
X022424Y008613D01*
X022553Y008742D01*
X023053Y009242D01*
X023053Y012924D01*
X022924Y013053D01*
X022293Y013685D01*
X022927Y013685D01*
X023021Y013779D01*
X023021Y014305D01*
X022927Y014399D01*
X020984Y014399D01*
X020890Y014305D01*
X020890Y014060D01*
X020533Y014416D01*
X020533Y014806D01*
X020416Y014923D01*
X020140Y015199D01*
X020222Y015282D01*
X020222Y015414D01*
X020016Y015620D01*
X020416Y016020D01*
X020527Y016131D01*
X020528Y016129D01*
X020629Y016028D01*
X020633Y016027D01*
X020633Y015700D01*
X020750Y015583D01*
X020890Y015444D01*
X020890Y015354D01*
X020984Y015260D01*
X022927Y015260D01*
X023021Y015354D01*
X023021Y015880D01*
X022927Y015974D01*
X021406Y015974D01*
X021537Y016028D01*
X021639Y016129D01*
X021693Y016262D01*
X021693Y016405D01*
X021659Y016487D01*
X021659Y017102D01*
X021683Y017102D01*
X021777Y017196D01*
X021777Y017579D01*
X021890Y017466D01*
X021853Y017502D02*
X021777Y017502D01*
X021777Y017345D02*
X021890Y017345D01*
X021890Y017267D02*
X021777Y017267D01*
X021769Y017188D02*
X021898Y017188D01*
X021976Y017110D02*
X021690Y017110D01*
X021659Y017031D02*
X023262Y017031D01*
X023183Y016953D02*
X021659Y016953D01*
X021659Y016874D02*
X023173Y016874D01*
X023173Y016796D02*
X021659Y016796D01*
X021659Y016717D02*
X023173Y016717D01*
X023173Y016639D02*
X021659Y016639D01*
X021659Y016560D02*
X023173Y016560D01*
X023173Y016482D02*
X021661Y016482D01*
X021693Y016403D02*
X023173Y016403D01*
X023173Y016325D02*
X021693Y016325D01*
X021687Y016246D02*
X023173Y016246D01*
X023186Y016168D02*
X021654Y016168D01*
X021598Y016089D02*
X023264Y016089D01*
X022968Y015932D02*
X024633Y015932D01*
X024633Y015854D02*
X023021Y015854D01*
X023021Y015775D02*
X024633Y015775D01*
X024633Y015697D02*
X023021Y015697D01*
X023021Y015618D02*
X024633Y015618D01*
X024633Y015540D02*
X023021Y015540D01*
X023021Y015461D02*
X024633Y015461D01*
X024633Y015383D02*
X023021Y015383D01*
X022972Y015304D02*
X024633Y015304D01*
X024633Y015226D02*
X020167Y015226D01*
X020192Y015147D02*
X020980Y015147D01*
X020964Y015138D02*
X020938Y015112D01*
X020919Y015080D01*
X020910Y015045D01*
X020910Y014869D01*
X021915Y014869D01*
X021915Y014789D01*
X021995Y014789D01*
X021995Y014493D01*
X022879Y014493D01*
X022915Y014502D01*
X022947Y014521D01*
X022973Y014547D01*
X022991Y014579D01*
X023001Y014614D01*
X023001Y014789D01*
X021995Y014789D01*
X021995Y014869D01*
X021915Y014869D01*
X021915Y015166D01*
X021031Y015166D01*
X020996Y015157D01*
X020964Y015138D01*
X020916Y015069D02*
X020271Y015069D01*
X020349Y014990D02*
X020910Y014990D01*
X020910Y014912D02*
X020428Y014912D01*
X020416Y014923D02*
X020416Y014923D01*
X020506Y014833D02*
X021915Y014833D01*
X021915Y014789D02*
X020910Y014789D01*
X020910Y014614D01*
X020919Y014579D01*
X020938Y014547D01*
X020964Y014521D01*
X020996Y014502D01*
X021031Y014493D01*
X021915Y014493D01*
X021915Y014789D01*
X021915Y014755D02*
X021995Y014755D01*
X021995Y014833D02*
X024633Y014833D01*
X024633Y014755D02*
X023001Y014755D01*
X023001Y014676D02*
X024633Y014676D01*
X024633Y014598D02*
X022997Y014598D01*
X022945Y014519D02*
X024633Y014519D01*
X024633Y014441D02*
X020533Y014441D01*
X020533Y014519D02*
X020966Y014519D01*
X020914Y014598D02*
X020533Y014598D01*
X020533Y014676D02*
X020910Y014676D01*
X020910Y014755D02*
X020533Y014755D01*
X020587Y014362D02*
X020947Y014362D01*
X020890Y014284D02*
X020666Y014284D01*
X020744Y014205D02*
X020890Y014205D01*
X020890Y014127D02*
X020823Y014127D01*
X020833Y013392D02*
X019808Y014418D01*
X019585Y014195D02*
X020333Y013447D01*
X020333Y013333D01*
X019833Y013333D02*
X019833Y013501D01*
X019362Y013972D01*
X019140Y013750D02*
X018833Y014056D01*
X018833Y014333D01*
X018833Y014833D02*
X017183Y014833D01*
X016833Y015183D01*
X016815Y015183D01*
X016304Y015694D01*
X016082Y015472D02*
X015833Y015720D01*
X015833Y016333D01*
X015473Y016325D02*
X015066Y016325D01*
X015144Y016246D02*
X015480Y016246D01*
X015473Y016262D02*
X015528Y016129D01*
X015629Y016028D01*
X015633Y016027D01*
X015633Y015757D01*
X014474Y016916D01*
X014357Y017033D01*
X013916Y017033D01*
X013765Y017184D01*
X013777Y017196D01*
X013777Y017613D01*
X013910Y017613D01*
X013910Y017478D01*
X014169Y017478D01*
X014169Y017401D01*
X014246Y017401D01*
X014246Y017478D01*
X014500Y017478D01*
X014512Y017473D01*
X014642Y017473D01*
X014642Y017196D01*
X014736Y017102D01*
X014781Y017102D01*
X015133Y016750D01*
X015250Y016633D01*
X015624Y016633D01*
X015528Y016537D01*
X015473Y016405D01*
X015473Y016262D01*
X015512Y016168D02*
X015223Y016168D01*
X015301Y016089D02*
X015568Y016089D01*
X015633Y016011D02*
X015380Y016011D01*
X015458Y015932D02*
X015633Y015932D01*
X015633Y015854D02*
X015537Y015854D01*
X015615Y015775D02*
X015633Y015775D01*
X015285Y015540D02*
X014788Y015540D01*
X014788Y015618D02*
X015207Y015618D01*
X015128Y015697D02*
X014783Y015697D01*
X014729Y015775D02*
X015050Y015775D01*
X014971Y015854D02*
X013753Y015854D01*
X013753Y015932D02*
X014893Y015932D01*
X014814Y016011D02*
X013753Y016011D01*
X013753Y016089D02*
X014736Y016089D01*
X014657Y016168D02*
X013710Y016168D01*
X013631Y016246D02*
X014579Y016246D01*
X014500Y016325D02*
X013553Y016325D01*
X013474Y016403D02*
X014422Y016403D01*
X014343Y016482D02*
X013396Y016482D01*
X013317Y016560D02*
X014265Y016560D01*
X014274Y016833D02*
X013833Y016833D01*
X013459Y017207D01*
X013459Y017440D01*
X013777Y017424D02*
X014169Y017424D01*
X014169Y017401D02*
X013910Y017401D01*
X013910Y017244D01*
X013919Y017208D01*
X013938Y017177D01*
X013964Y017150D01*
X013996Y017132D01*
X014031Y017122D01*
X014169Y017122D01*
X014169Y017401D01*
X014169Y017345D02*
X014246Y017345D01*
X014246Y017401D02*
X014246Y017122D01*
X014383Y017122D01*
X014419Y017132D01*
X014451Y017150D01*
X014477Y017177D01*
X014495Y017208D01*
X014505Y017244D01*
X014505Y017401D01*
X014246Y017401D01*
X014246Y017424D02*
X014642Y017424D01*
X014642Y017345D02*
X014505Y017345D01*
X014505Y017267D02*
X014642Y017267D01*
X014650Y017188D02*
X014484Y017188D01*
X014359Y017031D02*
X014852Y017031D01*
X014931Y016953D02*
X014438Y016953D01*
X014516Y016874D02*
X015009Y016874D01*
X015088Y016796D02*
X014595Y016796D01*
X014673Y016717D02*
X015166Y016717D01*
X015245Y016639D02*
X014752Y016639D01*
X014830Y016560D02*
X015551Y016560D01*
X015505Y016482D02*
X014909Y016482D01*
X014987Y016403D02*
X015473Y016403D01*
X015333Y016833D02*
X016947Y016833D01*
X017195Y016585D01*
X016972Y016362D02*
X017451Y015883D01*
X018283Y015883D01*
X018833Y015333D01*
X018784Y015693D02*
X018762Y015693D01*
X018758Y015692D01*
X018532Y015917D01*
X018560Y015945D01*
X018631Y015875D01*
X018896Y016140D01*
X018917Y016118D01*
X018652Y015853D01*
X018725Y015780D01*
X018725Y015752D01*
X018784Y015693D01*
X018780Y015697D02*
X018753Y015697D01*
X018725Y015775D02*
X018674Y015775D01*
X018652Y015854D02*
X018596Y015854D01*
X018573Y015932D02*
X018547Y015932D01*
X018688Y015932D02*
X018731Y015932D01*
X018767Y016011D02*
X018809Y016011D01*
X018845Y016089D02*
X018888Y016089D01*
X018938Y016140D02*
X019203Y016405D01*
X019277Y016332D01*
X019305Y016332D01*
X019554Y016082D01*
X019734Y015903D01*
X020133Y016303D01*
X020133Y016850D01*
X019716Y016433D01*
X019175Y016433D01*
X019182Y016426D01*
X018917Y016161D01*
X018938Y016140D01*
X018924Y016168D02*
X018966Y016168D01*
X019002Y016246D02*
X019045Y016246D01*
X019081Y016325D02*
X019123Y016325D01*
X019159Y016403D02*
X019202Y016403D01*
X019205Y016403D02*
X020133Y016403D01*
X020133Y016325D02*
X019312Y016325D01*
X019390Y016246D02*
X020077Y016246D01*
X019999Y016168D02*
X019469Y016168D01*
X019547Y016089D02*
X019920Y016089D01*
X019842Y016011D02*
X019626Y016011D01*
X019704Y015932D02*
X019763Y015932D01*
X020018Y015618D02*
X020715Y015618D01*
X020637Y015697D02*
X020093Y015697D01*
X020172Y015775D02*
X020633Y015775D01*
X020633Y015854D02*
X020250Y015854D01*
X020329Y015932D02*
X020633Y015932D01*
X020633Y016011D02*
X020407Y016011D01*
X020486Y016089D02*
X020568Y016089D01*
X020833Y016333D02*
X020833Y015783D01*
X021000Y015617D01*
X021955Y015617D01*
X021995Y015166D02*
X021995Y014869D01*
X023001Y014869D01*
X023001Y015045D01*
X022991Y015080D01*
X022973Y015112D01*
X022947Y015138D01*
X022915Y015157D01*
X022879Y015166D01*
X021995Y015166D01*
X021995Y015147D02*
X021915Y015147D01*
X021915Y015069D02*
X021995Y015069D01*
X021995Y014990D02*
X021915Y014990D01*
X021915Y014912D02*
X021995Y014912D01*
X021995Y014676D02*
X021915Y014676D01*
X021915Y014598D02*
X021995Y014598D01*
X021995Y014519D02*
X021915Y014519D01*
X022322Y013656D02*
X024633Y013656D01*
X024633Y013734D02*
X022976Y013734D01*
X023021Y013813D02*
X024633Y013813D01*
X024633Y013891D02*
X023021Y013891D01*
X023021Y013970D02*
X024633Y013970D01*
X024633Y014048D02*
X023021Y014048D01*
X023021Y014127D02*
X024633Y014127D01*
X024633Y014205D02*
X023021Y014205D01*
X023021Y014284D02*
X024633Y014284D01*
X024633Y014362D02*
X022964Y014362D01*
X023001Y014912D02*
X024633Y014912D01*
X024633Y014990D02*
X023001Y014990D01*
X022994Y015069D02*
X024633Y015069D01*
X024633Y015147D02*
X022931Y015147D01*
X021495Y016011D02*
X024633Y016011D01*
X024633Y017110D02*
X022438Y017110D01*
X022517Y017188D02*
X024633Y017188D01*
X024633Y017267D02*
X022525Y017267D01*
X022525Y017345D02*
X024633Y017345D01*
X024633Y017424D02*
X022525Y017424D01*
X022525Y017502D02*
X024633Y017502D01*
X024633Y017581D02*
X022525Y017581D01*
X022525Y017659D02*
X024633Y017659D01*
X024633Y017738D02*
X022470Y017738D01*
X022161Y017816D02*
X024633Y017816D01*
X024633Y017895D02*
X022083Y017895D01*
X022101Y017973D02*
X024633Y017973D01*
X024633Y018052D02*
X022151Y018052D01*
X022151Y018130D02*
X024633Y018130D01*
X024633Y018209D02*
X022151Y018209D01*
X022151Y018287D02*
X024633Y018287D01*
X024633Y018366D02*
X022151Y018366D01*
X022151Y018444D02*
X024633Y018444D01*
X024633Y018523D02*
X022138Y018523D01*
X022059Y018601D02*
X024633Y018601D01*
X024633Y018680D02*
X022033Y018680D01*
X022033Y018758D02*
X024633Y018758D01*
X024633Y018837D02*
X022033Y018837D01*
X022033Y018915D02*
X024633Y018915D01*
X024633Y018994D02*
X021956Y018994D01*
X021877Y019072D02*
X024633Y019072D01*
X024633Y019151D02*
X021799Y019151D01*
X021720Y019229D02*
X024633Y019229D01*
X024633Y019308D02*
X021642Y019308D01*
X021563Y019386D02*
X024633Y019386D01*
X024633Y019465D02*
X021485Y019465D01*
X021333Y019333D02*
X020333Y019333D01*
X020820Y019543D02*
X024633Y019543D01*
X024633Y019622D02*
X020787Y019622D01*
X020716Y019700D02*
X024633Y019700D01*
X024633Y019779D02*
X020637Y019779D01*
X020519Y019936D02*
X024633Y019936D01*
X024633Y020014D02*
X020811Y020014D01*
X020887Y020093D02*
X024633Y020093D01*
X024633Y020171D02*
X020887Y020171D01*
X020887Y020250D02*
X024633Y020250D01*
X024633Y020328D02*
X020887Y020328D01*
X020887Y020407D02*
X023660Y020407D01*
X023444Y020485D02*
X020887Y020485D01*
X020887Y020564D02*
X023304Y020564D01*
X023361Y020516D02*
X023361Y020516D01*
X023210Y020642D02*
X020821Y020642D01*
X020357Y020642D02*
X020310Y020642D01*
X019845Y020642D02*
X019821Y020642D01*
X019789Y020721D02*
X023116Y020721D01*
X023110Y020726D02*
X023110Y020726D01*
X023068Y020799D02*
X019789Y020799D01*
X019789Y020878D02*
X023022Y020878D01*
X022977Y020956D02*
X019789Y020956D01*
X019818Y021035D02*
X022942Y021035D01*
X022946Y021010D02*
X022946Y021010D01*
X022928Y021113D02*
X019896Y021113D01*
X019975Y021192D02*
X022914Y021192D01*
X022900Y021270D02*
X020053Y021270D01*
X019589Y021089D02*
X020333Y021833D01*
X020863Y021820D02*
X023040Y021820D01*
X022995Y021741D02*
X020863Y021741D01*
X020836Y021663D02*
X022950Y021663D01*
X022946Y021656D02*
X022946Y021656D01*
X022933Y021584D02*
X020804Y021584D01*
X020755Y021506D02*
X022919Y021506D01*
X022906Y021427D02*
X020677Y021427D01*
X020549Y021349D02*
X022892Y021349D01*
X022889Y021333D02*
X022889Y021333D01*
X023086Y021898D02*
X020863Y021898D01*
X020848Y021977D02*
X023153Y021977D01*
X023110Y021940D02*
X023110Y021940D01*
X023110Y021940D01*
X023247Y022055D02*
X020815Y022055D01*
X019589Y021089D02*
X019589Y020333D01*
X020077Y020333D02*
X020077Y020077D01*
X019333Y019333D01*
X019833Y019533D02*
X019833Y019033D01*
X020333Y018533D01*
X020333Y018266D01*
X019642Y017613D02*
X019642Y017196D01*
X019736Y017102D01*
X019759Y017102D01*
X019759Y017042D01*
X019550Y016833D01*
X019066Y016833D01*
X018916Y016983D01*
X018659Y016983D01*
X018659Y017102D01*
X018683Y017102D01*
X018777Y017196D01*
X018777Y017613D01*
X018910Y017613D01*
X018910Y017478D01*
X019169Y017478D01*
X019169Y017401D01*
X019246Y017401D01*
X019246Y017478D01*
X019505Y017478D01*
X019505Y017613D01*
X019642Y017613D01*
X019642Y017581D02*
X019505Y017581D01*
X019505Y017502D02*
X019642Y017502D01*
X019642Y017424D02*
X019246Y017424D01*
X019246Y017401D02*
X019505Y017401D01*
X019505Y017244D01*
X019495Y017208D01*
X019477Y017177D01*
X019451Y017150D01*
X019419Y017132D01*
X019383Y017122D01*
X019246Y017122D01*
X019246Y017401D01*
X019246Y017345D02*
X019169Y017345D01*
X019169Y017401D02*
X019169Y017122D01*
X019031Y017122D01*
X018996Y017132D01*
X018964Y017150D01*
X018938Y017177D01*
X018919Y017208D01*
X018910Y017244D01*
X018910Y017401D01*
X019169Y017401D01*
X019169Y017424D02*
X018777Y017424D01*
X018777Y017502D02*
X018910Y017502D01*
X018910Y017581D02*
X018777Y017581D01*
X018777Y017345D02*
X018910Y017345D01*
X018910Y017267D02*
X018777Y017267D01*
X018769Y017188D02*
X018931Y017188D01*
X018947Y016953D02*
X019670Y016953D01*
X019748Y017031D02*
X018659Y017031D01*
X018690Y017110D02*
X019728Y017110D01*
X019650Y017188D02*
X019484Y017188D01*
X019505Y017267D02*
X019642Y017267D01*
X019642Y017345D02*
X019505Y017345D01*
X019246Y017267D02*
X019169Y017267D01*
X019169Y017188D02*
X019246Y017188D01*
X019025Y016874D02*
X019591Y016874D01*
X019633Y016633D02*
X018983Y016633D01*
X018833Y016783D01*
X018670Y016783D01*
X018472Y016585D01*
X018694Y016362D02*
X018415Y016083D01*
X018183Y016083D01*
X017833Y016433D01*
X017833Y017333D01*
X018459Y017440D02*
X018459Y017018D01*
X018249Y016808D01*
X017418Y016808D02*
X017192Y017033D01*
X016683Y017033D01*
X016459Y017257D01*
X016459Y017440D01*
X015333Y016833D02*
X014959Y017207D01*
X014959Y017440D01*
X014728Y017110D02*
X013840Y017110D01*
X013769Y017188D02*
X013931Y017188D01*
X013910Y017267D02*
X013777Y017267D01*
X013777Y017345D02*
X013910Y017345D01*
X013910Y017502D02*
X013777Y017502D01*
X013777Y017581D02*
X013910Y017581D01*
X014169Y017267D02*
X014246Y017267D01*
X014246Y017188D02*
X014169Y017188D01*
X014274Y016833D02*
X015859Y015249D01*
X016082Y015472D02*
X017220Y014333D01*
X017333Y014333D01*
X016958Y014208D02*
X016958Y014181D01*
X016527Y013750D01*
X016325Y013972D02*
X016304Y013994D01*
X016569Y014259D01*
X016496Y014332D01*
X016496Y014360D01*
X016247Y014610D01*
X016223Y014633D01*
X016250Y014633D01*
X016689Y014195D01*
X016661Y014167D01*
X016591Y014238D01*
X016325Y013972D01*
X016286Y013970D02*
X016280Y013970D01*
X016244Y013891D02*
X016202Y013891D01*
X016166Y013813D02*
X016123Y013813D01*
X016087Y013734D02*
X016045Y013734D01*
X015991Y013734D02*
X015904Y013734D01*
X015825Y013656D02*
X016069Y013656D01*
X016119Y013577D02*
X015747Y013577D01*
X015668Y013499D02*
X016198Y013499D01*
X016276Y013420D02*
X015590Y013420D01*
X015533Y013342D02*
X016355Y013342D01*
X016462Y013263D02*
X015533Y013263D01*
X015533Y013185D02*
X016126Y013185D01*
X016047Y013106D02*
X015533Y013106D01*
X015533Y013028D02*
X016004Y013028D01*
X015973Y012949D02*
X015533Y012949D01*
X015533Y012871D02*
X015973Y012871D01*
X015981Y012792D02*
X015533Y012792D01*
X015533Y012714D02*
X016014Y012714D01*
X016072Y012635D02*
X015582Y012635D01*
X015938Y012557D02*
X016181Y012557D01*
X016183Y012478D02*
X016017Y012478D01*
X016025Y012400D02*
X016162Y012400D01*
X016162Y012321D02*
X016025Y012321D01*
X016025Y012243D02*
X016421Y012243D01*
X016421Y012188D02*
X016162Y012188D01*
X016162Y012031D01*
X016171Y011996D01*
X016190Y011964D01*
X016216Y011938D01*
X016248Y011919D01*
X016283Y011910D01*
X016421Y011910D01*
X016421Y012188D01*
X016421Y012164D02*
X016498Y012164D01*
X016498Y012086D02*
X016421Y012086D01*
X016421Y012007D02*
X016498Y012007D01*
X016498Y011929D02*
X016421Y011929D01*
X016231Y011929D02*
X015970Y011929D01*
X016025Y012007D02*
X016168Y012007D01*
X016162Y012086D02*
X016025Y012086D01*
X016025Y012164D02*
X016162Y012164D01*
X016498Y012243D02*
X016715Y012243D01*
X016757Y012164D02*
X016890Y012164D01*
X016890Y012086D02*
X016757Y012086D01*
X016750Y012007D02*
X016890Y012007D01*
X016945Y011929D02*
X016687Y011929D01*
X017101Y011693D02*
X018565Y011693D01*
X018516Y011615D02*
X017151Y011615D01*
X017151Y011536D02*
X018516Y011536D01*
X018516Y011458D02*
X017151Y011458D01*
X017470Y011929D02*
X018231Y011929D01*
X018216Y011938D02*
X018248Y011919D01*
X018283Y011910D01*
X018421Y011910D01*
X018421Y012188D01*
X018162Y012188D01*
X018162Y012031D01*
X018171Y011996D01*
X018190Y011964D01*
X018216Y011938D01*
X018168Y012007D02*
X017525Y012007D01*
X017719Y012086D02*
X018162Y012086D01*
X018162Y012164D02*
X017797Y012164D01*
X017876Y012243D02*
X018421Y012243D01*
X018498Y012243D02*
X018890Y012243D01*
X018890Y012321D02*
X018757Y012321D01*
X018757Y012164D02*
X018890Y012164D01*
X018890Y012086D02*
X018757Y012086D01*
X018750Y012007D02*
X018890Y012007D01*
X018945Y011929D02*
X018687Y011929D01*
X018498Y011929D02*
X018421Y011929D01*
X018421Y012007D02*
X018498Y012007D01*
X018498Y012086D02*
X018421Y012086D01*
X018421Y012164D02*
X018498Y012164D01*
X018162Y012321D02*
X017954Y012321D01*
X018033Y012400D02*
X018033Y012693D01*
X018213Y012513D01*
X018190Y012490D01*
X018171Y012458D01*
X018162Y012423D01*
X018183Y012478D02*
X018033Y012478D01*
X018033Y012557D02*
X018169Y012557D01*
X018091Y012635D02*
X018033Y012635D01*
X017833Y012483D02*
X017577Y012227D01*
X017207Y012227D01*
X017142Y012583D02*
X016833Y012583D01*
X017142Y012583D02*
X017418Y012859D01*
X017195Y013082D02*
X017017Y012903D01*
X016353Y012903D01*
X016333Y012883D01*
X016465Y013263D02*
X016507Y013263D01*
X016543Y013342D02*
X016586Y013342D01*
X016622Y013420D02*
X016664Y013420D01*
X016700Y013499D02*
X016743Y013499D01*
X016771Y013527D02*
X016750Y013548D01*
X017015Y013813D01*
X016944Y013884D01*
X016972Y013912D01*
X017133Y013750D01*
X017133Y013748D01*
X017107Y013721D01*
X017036Y013792D01*
X016771Y013527D01*
X016779Y013577D02*
X016821Y013577D01*
X016857Y013656D02*
X016900Y013656D01*
X016936Y013734D02*
X016978Y013734D01*
X017014Y013813D02*
X017071Y013813D01*
X017094Y013734D02*
X017120Y013734D01*
X016992Y013891D02*
X016951Y013891D01*
X016958Y014208D02*
X016333Y014833D01*
X015833Y014833D01*
X016259Y014598D02*
X016286Y014598D01*
X016337Y014519D02*
X016364Y014519D01*
X016416Y014441D02*
X016443Y014441D01*
X016494Y014362D02*
X016521Y014362D01*
X016544Y014284D02*
X016600Y014284D01*
X016623Y014205D02*
X016678Y014205D01*
X016558Y014205D02*
X016516Y014205D01*
X016480Y014127D02*
X016437Y014127D01*
X016401Y014048D02*
X016359Y014048D01*
X016082Y014195D02*
X015333Y013447D01*
X016972Y013304D02*
X017333Y013665D01*
X017333Y013833D01*
X016958Y014208D01*
X017833Y013333D02*
X017833Y012483D01*
X018249Y012859D02*
X018524Y012583D01*
X019083Y012583D01*
X019207Y012459D01*
X019207Y012227D01*
X019525Y012243D02*
X019921Y012243D01*
X019921Y012266D02*
X019921Y012188D01*
X019998Y012188D01*
X019998Y011910D01*
X020135Y011910D01*
X020171Y011919D01*
X020203Y011938D01*
X020229Y011964D01*
X020247Y011996D01*
X020257Y012031D01*
X020257Y012188D01*
X019998Y012188D01*
X019998Y012266D01*
X019921Y012266D01*
X019921Y012544D01*
X019783Y012544D01*
X019748Y012535D01*
X019716Y012516D01*
X019690Y012490D01*
X019671Y012458D01*
X019662Y012423D01*
X019662Y012266D01*
X019921Y012266D01*
X019921Y012321D02*
X019998Y012321D01*
X019998Y012266D02*
X019998Y012544D01*
X020135Y012544D01*
X020171Y012535D01*
X020203Y012516D01*
X020229Y012490D01*
X020247Y012458D01*
X020257Y012423D01*
X020257Y012266D01*
X019998Y012266D01*
X019998Y012243D02*
X020390Y012243D01*
X020390Y012321D02*
X020257Y012321D01*
X020257Y012400D02*
X020390Y012400D01*
X020398Y012478D02*
X020236Y012478D01*
X019998Y012478D02*
X019921Y012478D01*
X019921Y012400D02*
X019998Y012400D01*
X019921Y012188D02*
X019662Y012188D01*
X019662Y012031D01*
X019671Y011996D01*
X019690Y011964D01*
X019716Y011938D01*
X019748Y011919D01*
X019783Y011910D01*
X019921Y011910D01*
X019921Y012188D01*
X019921Y012164D02*
X019998Y012164D01*
X019998Y012086D02*
X019921Y012086D01*
X019921Y012007D02*
X019998Y012007D01*
X019998Y011929D02*
X019921Y011929D01*
X019731Y011929D02*
X019470Y011929D01*
X019525Y012007D02*
X019668Y012007D01*
X019662Y012086D02*
X019525Y012086D01*
X019525Y012164D02*
X019662Y012164D01*
X019662Y012321D02*
X019525Y012321D01*
X019525Y012400D02*
X019662Y012400D01*
X019683Y012478D02*
X019517Y012478D01*
X019438Y012557D02*
X020476Y012557D01*
X020583Y012783D02*
X020707Y012659D01*
X020707Y012227D01*
X020390Y012164D02*
X020257Y012164D01*
X020257Y012086D02*
X020390Y012086D01*
X020390Y012007D02*
X020250Y012007D01*
X020187Y011929D02*
X020445Y011929D01*
X020065Y011693D02*
X019101Y011693D01*
X019151Y011615D02*
X020016Y011615D01*
X020016Y011536D02*
X019151Y011536D01*
X019151Y011458D02*
X020016Y011458D01*
X020016Y011379D02*
X019151Y011379D01*
X019151Y011301D02*
X020016Y011301D01*
X020016Y011222D02*
X019151Y011222D01*
X019138Y011144D02*
X020029Y011144D01*
X020032Y011065D02*
X019059Y011065D01*
X019033Y010987D02*
X019954Y010987D01*
X020333Y011083D02*
X019833Y010583D01*
X019333Y010333D02*
X019333Y009833D01*
X019077Y009577D01*
X019077Y009333D01*
X018833Y009577D02*
X018589Y009333D01*
X018833Y009577D02*
X018833Y011400D01*
X020333Y011400D02*
X020333Y011083D01*
X021833Y011400D02*
X021833Y009833D01*
X021333Y009333D01*
X020589Y009333D01*
X020887Y009103D02*
X022292Y009103D01*
X022370Y009181D02*
X021464Y009181D01*
X021543Y009260D02*
X022449Y009260D01*
X022527Y009338D02*
X021621Y009338D01*
X021700Y009417D02*
X022606Y009417D01*
X022613Y009495D02*
X021778Y009495D01*
X021857Y009574D02*
X022613Y009574D01*
X022613Y009652D02*
X021935Y009652D01*
X021916Y009633D02*
X021916Y009633D01*
X022014Y009731D02*
X022613Y009731D01*
X022613Y009809D02*
X022033Y009809D01*
X022033Y009888D02*
X022613Y009888D01*
X022613Y009966D02*
X022033Y009966D01*
X022033Y010045D02*
X022613Y010045D01*
X022613Y010123D02*
X022033Y010123D01*
X022033Y010202D02*
X022613Y010202D01*
X022613Y010280D02*
X022033Y010280D01*
X022033Y010359D02*
X022613Y010359D01*
X022613Y010437D02*
X022033Y010437D01*
X022033Y010516D02*
X022613Y010516D01*
X022613Y010594D02*
X022033Y010594D01*
X022033Y010673D02*
X022613Y010673D01*
X022613Y010751D02*
X022033Y010751D01*
X022033Y010830D02*
X022613Y010830D01*
X022613Y010908D02*
X022033Y010908D01*
X022033Y010987D02*
X022613Y010987D01*
X022613Y011065D02*
X022059Y011065D01*
X022138Y011144D02*
X022613Y011144D01*
X022613Y011222D02*
X022151Y011222D01*
X022151Y011301D02*
X022613Y011301D01*
X022613Y011379D02*
X022151Y011379D01*
X022151Y011458D02*
X022613Y011458D01*
X022613Y011536D02*
X022151Y011536D01*
X022151Y011615D02*
X022613Y011615D01*
X022613Y011693D02*
X022101Y011693D01*
X022470Y011929D02*
X022613Y011929D01*
X022613Y012007D02*
X022525Y012007D01*
X022525Y012086D02*
X022613Y012086D01*
X022613Y012164D02*
X022525Y012164D01*
X023053Y012164D02*
X024633Y012164D01*
X024633Y012086D02*
X023053Y012086D01*
X023053Y012007D02*
X024633Y012007D01*
X024633Y011929D02*
X023053Y011929D01*
X023053Y011850D02*
X024633Y011850D01*
X024633Y011772D02*
X023053Y011772D01*
X023053Y011693D02*
X024633Y011693D01*
X024633Y011615D02*
X023053Y011615D01*
X023053Y011536D02*
X024633Y011536D01*
X024633Y011458D02*
X023053Y011458D01*
X023053Y011379D02*
X024633Y011379D01*
X024633Y011301D02*
X023053Y011301D01*
X023053Y011222D02*
X024633Y011222D01*
X024633Y011144D02*
X023053Y011144D01*
X023053Y011065D02*
X024633Y011065D01*
X024633Y010987D02*
X023053Y010987D01*
X023053Y010908D02*
X024633Y010908D01*
X024633Y010830D02*
X023053Y010830D01*
X023053Y010751D02*
X024633Y010751D01*
X024633Y010673D02*
X023053Y010673D01*
X023053Y010594D02*
X024633Y010594D01*
X024633Y010516D02*
X023053Y010516D01*
X023053Y010437D02*
X024633Y010437D01*
X024633Y010359D02*
X023053Y010359D01*
X023053Y010280D02*
X024633Y010280D01*
X024633Y010202D02*
X023053Y010202D01*
X023053Y010123D02*
X024633Y010123D01*
X024633Y010045D02*
X023053Y010045D01*
X023053Y009966D02*
X024633Y009966D01*
X024633Y009888D02*
X023053Y009888D01*
X023053Y009809D02*
X024633Y009809D01*
X024633Y009731D02*
X023053Y009731D01*
X023053Y009652D02*
X024633Y009652D01*
X024633Y009574D02*
X023053Y009574D01*
X023053Y009495D02*
X024633Y009495D01*
X024633Y009417D02*
X023053Y009417D01*
X023053Y009338D02*
X024633Y009338D01*
X024633Y009260D02*
X024007Y009260D01*
X024223Y009181D02*
X024633Y009181D01*
X024633Y009103D02*
X024363Y009103D01*
X024457Y009024D02*
X024633Y009024D01*
X024633Y008946D02*
X024550Y008946D01*
X024599Y008867D02*
X024633Y008867D01*
X023660Y009260D02*
X023053Y009260D01*
X022992Y009181D02*
X023444Y009181D01*
X023361Y009151D02*
X023361Y009151D01*
X023304Y009103D02*
X022914Y009103D01*
X022835Y009024D02*
X023210Y009024D01*
X023116Y008946D02*
X022757Y008946D01*
X022678Y008867D02*
X023068Y008867D01*
X023110Y008940D02*
X023110Y008940D01*
X023110Y008940D01*
X023022Y008789D02*
X022600Y008789D01*
X022521Y008710D02*
X022977Y008710D01*
X022946Y008656D02*
X022946Y008656D01*
X022942Y008632D02*
X022443Y008632D01*
X022549Y008318D02*
X022892Y008318D01*
X022889Y008333D02*
X022889Y008333D01*
X022900Y008396D02*
X013553Y008396D01*
X013553Y008318D02*
X014174Y008318D01*
X014293Y008318D02*
X014373Y008318D01*
X014373Y008343D02*
X014373Y008343D01*
X014293Y008343D02*
X014293Y008343D01*
X014293Y008239D02*
X014373Y008239D01*
X014373Y008161D02*
X014293Y008161D01*
X014293Y008082D02*
X014373Y008082D01*
X014373Y008004D02*
X014293Y008004D01*
X014293Y007925D02*
X014373Y007925D01*
X014726Y008161D02*
X014911Y008161D01*
X014863Y008082D02*
X014779Y008082D01*
X014814Y008004D02*
X014830Y008004D01*
X014990Y008239D02*
X014642Y008239D01*
X014493Y008318D02*
X015118Y008318D01*
X015549Y008318D02*
X016118Y008318D01*
X015990Y008239D02*
X015677Y008239D01*
X015755Y008161D02*
X015911Y008161D01*
X015863Y008082D02*
X015804Y008082D01*
X016549Y008318D02*
X017118Y008318D01*
X016990Y008239D02*
X016677Y008239D01*
X016755Y008161D02*
X016911Y008161D01*
X016863Y008082D02*
X016804Y008082D01*
X017549Y008318D02*
X018118Y008318D01*
X017990Y008239D02*
X017677Y008239D01*
X017755Y008161D02*
X017911Y008161D01*
X017863Y008082D02*
X017804Y008082D01*
X018549Y008318D02*
X019118Y008318D01*
X018990Y008239D02*
X018677Y008239D01*
X018755Y008161D02*
X018911Y008161D01*
X018863Y008082D02*
X018804Y008082D01*
X019549Y008318D02*
X020118Y008318D01*
X019990Y008239D02*
X019677Y008239D01*
X019755Y008161D02*
X019911Y008161D01*
X019863Y008082D02*
X019804Y008082D01*
X020549Y008318D02*
X021118Y008318D01*
X020990Y008239D02*
X020677Y008239D01*
X020755Y008161D02*
X020911Y008161D01*
X020863Y008082D02*
X020804Y008082D01*
X021549Y008318D02*
X022118Y008318D01*
X021990Y008239D02*
X021677Y008239D01*
X021755Y008161D02*
X021911Y008161D01*
X021863Y008082D02*
X021804Y008082D01*
X022677Y008239D02*
X022906Y008239D01*
X022919Y008161D02*
X022755Y008161D01*
X022804Y008082D02*
X022933Y008082D01*
X022946Y008010D02*
X022946Y008010D01*
X022950Y008004D02*
X022836Y008004D01*
X022863Y007925D02*
X022995Y007925D01*
X023040Y007847D02*
X022863Y007847D01*
X022863Y007768D02*
X023086Y007768D01*
X023110Y007726D02*
X023110Y007726D01*
X023153Y007690D02*
X022848Y007690D01*
X022815Y007611D02*
X023247Y007611D01*
X022914Y008475D02*
X013553Y008475D01*
X013553Y008553D02*
X022928Y008553D01*
X021369Y009652D02*
X020811Y009652D01*
X020887Y009574D02*
X021291Y009574D01*
X021448Y009731D02*
X020514Y009731D01*
X020533Y009809D02*
X021526Y009809D01*
X021605Y009888D02*
X020637Y009888D01*
X020970Y011929D02*
X021231Y011929D01*
X021168Y012007D02*
X021025Y012007D01*
X021025Y012086D02*
X021162Y012086D01*
X021162Y012164D02*
X021025Y012164D01*
X020583Y012783D02*
X018770Y012783D01*
X018472Y013082D01*
X018694Y013304D02*
X018990Y013008D01*
X021958Y013008D01*
X022714Y013263D02*
X023173Y013263D01*
X023173Y013185D02*
X022793Y013185D01*
X022871Y013106D02*
X023173Y013106D01*
X023173Y013028D02*
X022950Y013028D01*
X023028Y012949D02*
X023173Y012949D01*
X023173Y012871D02*
X023053Y012871D01*
X023053Y012792D02*
X023173Y012792D01*
X023175Y012714D02*
X023053Y012714D01*
X023053Y012635D02*
X023254Y012635D01*
X023053Y012557D02*
X024633Y012557D01*
X024633Y012478D02*
X023053Y012478D01*
X023053Y012400D02*
X024633Y012400D01*
X024633Y012321D02*
X023053Y012321D01*
X023053Y012243D02*
X024633Y012243D01*
X023173Y013342D02*
X022636Y013342D01*
X022557Y013420D02*
X023173Y013420D01*
X023194Y013499D02*
X022479Y013499D01*
X022400Y013577D02*
X024633Y013577D01*
X020833Y013392D02*
X020833Y013333D01*
X018917Y013527D02*
X018611Y013833D01*
X018333Y013833D01*
X017833Y013333D01*
X015362Y015147D02*
X015304Y015147D01*
X015304Y015226D02*
X015362Y015226D01*
X015362Y015304D02*
X015304Y015304D01*
X015442Y015383D02*
X014373Y015383D01*
X014373Y015461D02*
X014293Y015461D01*
X014293Y015540D02*
X014373Y015540D01*
X014373Y015618D02*
X014293Y015618D01*
X014293Y015697D02*
X014373Y015697D01*
X014373Y015775D02*
X014293Y015775D01*
X013938Y015775D02*
X013753Y015775D01*
X013753Y015697D02*
X013883Y015697D01*
X013878Y015618D02*
X013753Y015618D01*
X013753Y015540D02*
X013878Y015540D01*
X013313Y015741D02*
X013033Y015741D01*
X013000Y015709D01*
X012996Y015712D01*
X012960Y015721D01*
X012847Y015721D01*
X012847Y015359D01*
X012819Y015359D01*
X012819Y015721D01*
X012707Y015721D01*
X012671Y015712D01*
X012666Y015709D01*
X012634Y015741D01*
X012285Y015741D01*
X012191Y015648D01*
X012191Y015053D01*
X011778Y015053D01*
X011779Y015055D01*
X011788Y015090D01*
X011788Y015345D01*
X011373Y015345D01*
X011373Y015425D01*
X011293Y015425D01*
X011293Y015800D01*
X011033Y015800D01*
X011033Y020859D01*
X011110Y020726D01*
X011361Y020516D01*
X011669Y020403D01*
X011997Y020403D01*
X012306Y020516D01*
X012557Y020726D01*
X012721Y021010D01*
X012721Y021010D01*
X012778Y021333D01*
X012778Y021333D01*
X012721Y021656D01*
X012721Y021656D01*
X012557Y021940D01*
X012557Y021940D01*
X012327Y022133D01*
X014921Y022133D01*
X014897Y022101D01*
X014861Y022029D01*
X014836Y021953D01*
X014823Y021873D01*
X015293Y021873D01*
X015293Y021793D01*
X015373Y021793D01*
X015373Y021323D01*
X015373Y021323D01*
X015453Y021336D01*
X015529Y021361D01*
X015601Y021397D01*
X015666Y021444D01*
X015722Y021501D01*
X015770Y021566D01*
X015806Y021638D01*
X015821Y021685D01*
X015884Y021533D01*
X016033Y021384D01*
X016228Y021303D01*
X016439Y021303D01*
X016634Y021384D01*
X016783Y021533D01*
X016833Y021655D01*
X016884Y021533D01*
X017033Y021384D01*
X017113Y021351D01*
X017113Y021053D01*
X016742Y021053D01*
X016369Y020680D01*
X016369Y020655D01*
X016333Y020619D01*
X016281Y020670D01*
X016277Y020670D01*
X016277Y020672D01*
X016033Y020916D01*
X015916Y021033D01*
X014250Y021033D01*
X013929Y020711D01*
X013929Y019651D01*
X013905Y019651D01*
X013816Y019562D01*
X013808Y019577D01*
X013781Y019603D01*
X013750Y019621D01*
X013714Y019631D01*
X013577Y019631D01*
X013577Y019372D01*
X013499Y019372D01*
X013499Y019295D01*
X013241Y019295D01*
X013241Y019157D01*
X013250Y019122D01*
X013269Y019090D01*
X013295Y019064D01*
X013327Y019045D01*
X013362Y019036D01*
X013499Y019036D01*
X013499Y019295D01*
X013577Y019295D01*
X013577Y019036D01*
X013714Y019036D01*
X013750Y019045D01*
X013781Y019064D01*
X013808Y019090D01*
X013816Y019105D01*
X013905Y019016D01*
X013983Y019016D01*
X013883Y018916D01*
X013633Y018666D01*
X013633Y018604D01*
X013610Y018604D01*
X013516Y018510D01*
X013516Y018053D01*
X013170Y018053D01*
X013170Y018293D01*
X013077Y018387D01*
X012590Y018387D01*
X012496Y018293D01*
X012496Y018279D01*
X012389Y018172D01*
X012205Y017988D01*
X011856Y017988D01*
X011856Y018033D01*
X012223Y018033D01*
X012223Y018154D01*
X012214Y018190D01*
X012195Y018221D01*
X012169Y018248D01*
X012137Y018266D01*
X012102Y018275D01*
X011856Y018275D01*
X011856Y018033D01*
X011811Y018033D01*
X011811Y018275D01*
X011565Y018275D01*
X011529Y018266D01*
X011497Y018248D01*
X011471Y018221D01*
X011453Y018190D01*
X011443Y018154D01*
X011443Y018033D01*
X011811Y018033D01*
X011811Y017988D01*
X011443Y017988D01*
X011443Y017867D01*
X011423Y017847D01*
X011423Y017465D01*
X011517Y017371D01*
X011633Y017371D01*
X011633Y017140D01*
X011629Y017139D01*
X011528Y017037D01*
X011473Y016905D01*
X011473Y016762D01*
X011528Y016629D01*
X011629Y016528D01*
X011762Y016473D01*
X011905Y016473D01*
X012037Y016528D01*
X012139Y016629D01*
X012193Y016762D01*
X012193Y016905D01*
X012139Y017037D01*
X012037Y017139D01*
X012033Y017140D01*
X012033Y017371D01*
X012150Y017371D01*
X012235Y017456D01*
X012239Y017456D01*
X012356Y017573D01*
X012356Y017573D01*
X012496Y017713D01*
X012496Y017373D01*
X012590Y017280D01*
X012613Y017280D01*
X012613Y016642D01*
X013313Y015942D01*
X013313Y015741D01*
X013313Y015775D02*
X011729Y015775D01*
X011734Y015772D02*
X011702Y015791D01*
X011667Y015800D01*
X011373Y015800D01*
X011373Y015425D01*
X011788Y015425D01*
X011788Y015679D01*
X011779Y015714D01*
X011760Y015746D01*
X011734Y015772D01*
X011783Y015697D02*
X012240Y015697D01*
X012191Y015618D02*
X011788Y015618D01*
X011788Y015540D02*
X012191Y015540D01*
X012191Y015461D02*
X011788Y015461D01*
X011788Y015304D02*
X012191Y015304D01*
X012191Y015226D02*
X011788Y015226D01*
X011788Y015147D02*
X012191Y015147D01*
X012191Y015069D02*
X011782Y015069D01*
X011373Y015069D02*
X011293Y015069D01*
X011293Y015147D02*
X011373Y015147D01*
X011373Y015226D02*
X011293Y015226D01*
X011293Y015304D02*
X011373Y015304D01*
X011373Y015345D02*
X011373Y014984D01*
X011242Y014853D01*
X011113Y014724D01*
X011113Y014718D01*
X011033Y014718D01*
X011033Y014969D01*
X011293Y014969D01*
X011293Y015345D01*
X011373Y015345D01*
X011373Y015383D02*
X012191Y015383D01*
X012819Y015383D02*
X012847Y015383D01*
X012847Y015461D02*
X012819Y015461D01*
X012819Y015540D02*
X012847Y015540D01*
X012847Y015618D02*
X012819Y015618D01*
X012819Y015697D02*
X012847Y015697D01*
X013313Y015854D02*
X011033Y015854D01*
X011033Y015932D02*
X013313Y015932D01*
X013245Y016011D02*
X011033Y016011D01*
X011033Y016089D02*
X013166Y016089D01*
X013088Y016168D02*
X011033Y016168D01*
X011033Y016246D02*
X013009Y016246D01*
X012931Y016325D02*
X011033Y016325D01*
X011033Y016403D02*
X012852Y016403D01*
X012774Y016482D02*
X011925Y016482D01*
X012069Y016560D02*
X012695Y016560D01*
X012617Y016639D02*
X012142Y016639D01*
X012175Y016717D02*
X012613Y016717D01*
X012613Y016796D02*
X012193Y016796D01*
X012193Y016874D02*
X012613Y016874D01*
X012613Y016953D02*
X012173Y016953D01*
X012141Y017031D02*
X012613Y017031D01*
X012613Y017110D02*
X012066Y017110D01*
X012033Y017188D02*
X012613Y017188D01*
X012613Y017267D02*
X012033Y017267D01*
X012033Y017345D02*
X012524Y017345D01*
X012496Y017424D02*
X012202Y017424D01*
X012285Y017502D02*
X012496Y017502D01*
X012496Y017581D02*
X012364Y017581D01*
X012442Y017659D02*
X012496Y017659D01*
X012156Y017656D02*
X011833Y017656D01*
X011833Y016833D01*
X011493Y016953D02*
X011033Y016953D01*
X011033Y017031D02*
X011526Y017031D01*
X011601Y017110D02*
X011033Y017110D01*
X011033Y017188D02*
X011633Y017188D01*
X011633Y017267D02*
X011033Y017267D01*
X011033Y017345D02*
X011633Y017345D01*
X011464Y017424D02*
X011033Y017424D01*
X011033Y017502D02*
X011423Y017502D01*
X011423Y017581D02*
X011033Y017581D01*
X011033Y017659D02*
X011423Y017659D01*
X011423Y017738D02*
X011033Y017738D01*
X011033Y017816D02*
X011423Y017816D01*
X011443Y017895D02*
X011033Y017895D01*
X011033Y017973D02*
X011443Y017973D01*
X011443Y018052D02*
X011033Y018052D01*
X011033Y018130D02*
X011443Y018130D01*
X011464Y018209D02*
X011033Y018209D01*
X011033Y018287D02*
X012496Y018287D01*
X012426Y018209D02*
X012203Y018209D01*
X012223Y018130D02*
X012348Y018130D01*
X012389Y018172D02*
X012389Y018172D01*
X012269Y018052D02*
X012223Y018052D01*
X011856Y018052D02*
X011811Y018052D01*
X011811Y018130D02*
X011856Y018130D01*
X011856Y018209D02*
X011811Y018209D01*
X012156Y017656D02*
X012589Y018089D01*
X012833Y018089D01*
X013170Y018130D02*
X013516Y018130D01*
X013516Y018209D02*
X013170Y018209D01*
X013170Y018287D02*
X013516Y018287D01*
X013516Y018366D02*
X013098Y018366D01*
X013516Y018444D02*
X011033Y018444D01*
X011033Y018366D02*
X012569Y018366D01*
X012491Y018873D02*
X012184Y018873D01*
X012141Y018916D01*
X012098Y018873D01*
X011657Y018873D01*
X011590Y018940D01*
X011588Y018934D01*
X011573Y018927D01*
X011566Y018912D01*
X011497Y018889D01*
X011433Y018857D01*
X011417Y018862D01*
X011401Y018857D01*
X011336Y018889D01*
X011268Y018912D01*
X011260Y018927D01*
X011245Y018934D01*
X011222Y019003D01*
X011057Y019334D01*
X011112Y019499D01*
X011267Y019577D01*
X011417Y019527D01*
X011566Y019577D01*
X011638Y019541D01*
X011667Y019571D01*
X011790Y019694D01*
X011964Y019694D01*
X012074Y019584D01*
X012184Y019694D01*
X012491Y019694D01*
X012558Y019627D01*
X012558Y019627D01*
X012681Y019504D01*
X012681Y019063D01*
X012614Y018996D01*
X012491Y018873D01*
X012533Y018915D02*
X013883Y018915D01*
X013961Y018994D02*
X012612Y018994D01*
X012681Y019072D02*
X013286Y019072D01*
X013242Y019151D02*
X012681Y019151D01*
X012681Y019229D02*
X013241Y019229D01*
X013241Y019372D02*
X013241Y019509D01*
X013250Y019545D01*
X013269Y019577D01*
X013295Y019603D01*
X013327Y019621D01*
X013362Y019631D01*
X013499Y019631D01*
X013499Y019372D01*
X013241Y019372D01*
X013241Y019386D02*
X012681Y019386D01*
X012681Y019308D02*
X013499Y019308D01*
X013499Y019386D02*
X013577Y019386D01*
X013577Y019465D02*
X013499Y019465D01*
X013499Y019543D02*
X013577Y019543D01*
X013577Y019622D02*
X013499Y019622D01*
X013329Y019622D02*
X012563Y019622D01*
X012642Y019543D02*
X013250Y019543D01*
X013241Y019465D02*
X012681Y019465D01*
X012112Y019622D02*
X012036Y019622D01*
X011718Y019622D02*
X011033Y019622D01*
X011033Y019700D02*
X013929Y019700D01*
X013929Y019779D02*
X011033Y019779D01*
X011033Y019857D02*
X013929Y019857D01*
X013929Y019936D02*
X011033Y019936D01*
X011033Y020014D02*
X013929Y020014D01*
X013929Y020093D02*
X011033Y020093D01*
X011033Y020171D02*
X013929Y020171D01*
X013929Y020250D02*
X011033Y020250D01*
X011033Y020328D02*
X013929Y020328D01*
X013929Y020407D02*
X012007Y020407D01*
X012223Y020485D02*
X013929Y020485D01*
X013929Y020564D02*
X012363Y020564D01*
X012306Y020516D02*
X012306Y020516D01*
X012457Y020642D02*
X013929Y020642D01*
X013938Y020721D02*
X012550Y020721D01*
X012557Y020726D02*
X012557Y020726D01*
X012557Y020726D01*
X012599Y020799D02*
X014017Y020799D01*
X014095Y020878D02*
X012644Y020878D01*
X012690Y020956D02*
X014174Y020956D01*
X014333Y020833D02*
X014129Y020629D01*
X014129Y019333D01*
X013848Y019072D02*
X013790Y019072D01*
X013577Y019072D02*
X013499Y019072D01*
X013499Y019151D02*
X013577Y019151D01*
X013577Y019229D02*
X013499Y019229D01*
X013747Y019622D02*
X013876Y019622D01*
X014683Y019833D02*
X014683Y019116D01*
X014400Y018833D01*
X014083Y018833D01*
X013833Y018583D01*
X013833Y018266D01*
X013529Y018523D02*
X011033Y018523D01*
X011033Y018601D02*
X013607Y018601D01*
X013647Y018680D02*
X011033Y018680D01*
X011033Y018758D02*
X013726Y018758D01*
X013804Y018837D02*
X011033Y018837D01*
X011033Y018915D02*
X011266Y018915D01*
X011225Y018994D02*
X011033Y018994D01*
X011033Y019072D02*
X011187Y019072D01*
X011148Y019151D02*
X011033Y019151D01*
X011033Y019229D02*
X011109Y019229D01*
X011070Y019308D02*
X011033Y019308D01*
X011033Y019386D02*
X011074Y019386D01*
X011100Y019465D02*
X011033Y019465D01*
X011033Y019543D02*
X011200Y019543D01*
X011368Y019543D02*
X011466Y019543D01*
X011634Y019543D02*
X011640Y019543D01*
X011615Y018915D02*
X011568Y018915D01*
X012140Y018915D02*
X012142Y018915D01*
X011660Y020407D02*
X011033Y020407D01*
X011033Y020485D02*
X011444Y020485D01*
X011361Y020516D02*
X011361Y020516D01*
X011304Y020564D02*
X011033Y020564D01*
X011033Y020642D02*
X011210Y020642D01*
X011116Y020721D02*
X011033Y020721D01*
X011110Y020726D02*
X011110Y020726D01*
X011068Y020799D02*
X011033Y020799D01*
X012725Y021035D02*
X016724Y021035D01*
X016645Y020956D02*
X015993Y020956D01*
X016072Y020878D02*
X016567Y020878D01*
X016488Y020799D02*
X016150Y020799D01*
X016229Y020721D02*
X016410Y020721D01*
X016357Y020642D02*
X016310Y020642D01*
X016077Y020589D02*
X015833Y020833D01*
X014333Y020833D01*
X015077Y020333D02*
X015077Y020227D01*
X014683Y019833D01*
X015333Y019833D02*
X015333Y019333D01*
X015333Y019833D02*
X015589Y020089D01*
X015589Y020333D01*
X016077Y020333D02*
X016077Y020589D01*
X017077Y020333D02*
X017833Y019577D01*
X017833Y019083D01*
X018083Y018833D01*
X018483Y018833D01*
X018833Y018483D01*
X018833Y018266D01*
X019333Y018333D02*
X018833Y018833D01*
X018833Y020333D01*
X019077Y020333D01*
X018833Y020333D02*
X018589Y020333D01*
X017589Y020333D02*
X017589Y020077D01*
X018333Y019333D01*
X017333Y019333D02*
X016833Y018833D01*
X016833Y018266D01*
X015833Y018833D02*
X016333Y019333D01*
X015833Y018833D02*
X015633Y018833D01*
X015333Y018533D01*
X015333Y018266D01*
X013352Y017031D02*
X013053Y017031D01*
X013053Y016953D02*
X013431Y016953D01*
X013509Y016874D02*
X013053Y016874D01*
X013082Y016796D02*
X013588Y016796D01*
X013666Y016717D02*
X013160Y016717D01*
X013239Y016639D02*
X013745Y016639D01*
X013228Y017110D02*
X013053Y017110D01*
X013053Y017188D02*
X013150Y017188D01*
X013142Y017267D02*
X013053Y017267D01*
X011741Y016482D02*
X011033Y016482D01*
X011033Y016560D02*
X011597Y016560D01*
X011524Y016639D02*
X011033Y016639D01*
X011033Y016717D02*
X011492Y016717D01*
X011473Y016796D02*
X011033Y016796D01*
X011033Y016874D02*
X011473Y016874D01*
X011373Y015775D02*
X011293Y015775D01*
X011293Y015697D02*
X011373Y015697D01*
X011373Y015618D02*
X011293Y015618D01*
X011293Y015540D02*
X011373Y015540D01*
X011373Y015461D02*
X011293Y015461D01*
X011293Y014990D02*
X011373Y014990D01*
X011301Y014912D02*
X011033Y014912D01*
X011033Y014833D02*
X011222Y014833D01*
X011144Y014755D02*
X011033Y014755D01*
X011033Y013813D02*
X011113Y013813D01*
X011121Y013734D02*
X011033Y013734D01*
X011033Y013656D02*
X011200Y013656D01*
X011278Y013577D02*
X011033Y013577D01*
X011033Y013499D02*
X011357Y013499D01*
X011435Y013420D02*
X011033Y013420D01*
X011033Y013342D02*
X011514Y013342D01*
X011592Y013263D02*
X011033Y013263D01*
X011033Y013185D02*
X011671Y013185D01*
X011139Y012792D02*
X011033Y012792D01*
X011033Y012714D02*
X011055Y012714D01*
X013753Y014598D02*
X013858Y014598D01*
X013911Y014676D02*
X013753Y014676D01*
X014788Y015226D02*
X015016Y015226D01*
X015039Y015304D02*
X014788Y015304D01*
X014788Y015461D02*
X015364Y015461D01*
X016527Y015917D02*
X016911Y015533D01*
X016983Y015533D01*
X017183Y015333D01*
X017833Y015333D01*
X018033Y015683D02*
X017206Y015683D01*
X016750Y016140D01*
X018033Y015683D02*
X018333Y015383D01*
X018333Y015333D01*
X020097Y015540D02*
X020794Y015540D01*
X020872Y015461D02*
X020175Y015461D01*
X020222Y015383D02*
X020890Y015383D01*
X020939Y015304D02*
X020222Y015304D01*
X020133Y016482D02*
X019765Y016482D01*
X019843Y016560D02*
X020133Y016560D01*
X020133Y016639D02*
X019922Y016639D01*
X020000Y016717D02*
X020133Y016717D01*
X020133Y016796D02*
X020079Y016796D01*
X019959Y016959D02*
X019633Y016633D01*
X019959Y016959D02*
X019959Y017440D01*
X020669Y017345D02*
X020746Y017345D01*
X020746Y017267D02*
X020669Y017267D01*
X020669Y017188D02*
X020746Y017188D01*
X020630Y016639D02*
X020533Y016639D01*
X020533Y016560D02*
X020551Y016560D01*
X021833Y018266D02*
X021833Y018833D01*
X021333Y019333D01*
X020453Y019857D02*
X024633Y019857D01*
X024633Y020407D02*
X024007Y020407D01*
X024223Y020485D02*
X024633Y020485D01*
X024633Y020564D02*
X024363Y020564D01*
X024306Y020516D02*
X024306Y020516D01*
X024457Y020642D02*
X024633Y020642D01*
X024633Y020721D02*
X024550Y020721D01*
X024557Y020726D02*
X024557Y020726D01*
X024557Y020726D01*
X024599Y020799D02*
X024633Y020799D01*
X020589Y020333D02*
X020589Y020289D01*
X019833Y019533D01*
X017113Y021113D02*
X012739Y021113D01*
X012753Y021192D02*
X017113Y021192D01*
X017113Y021270D02*
X012767Y021270D01*
X012775Y021349D02*
X015174Y021349D01*
X015138Y021361D02*
X015214Y021336D01*
X015293Y021323D01*
X015293Y021323D01*
X015293Y021793D01*
X014823Y021793D01*
X014836Y021714D01*
X014861Y021638D01*
X014897Y021566D01*
X014944Y021501D01*
X015001Y021444D01*
X015066Y021397D01*
X015138Y021361D01*
X015024Y021427D02*
X012761Y021427D01*
X012747Y021506D02*
X014941Y021506D01*
X014888Y021584D02*
X012733Y021584D01*
X012717Y021663D02*
X014852Y021663D01*
X014832Y021741D02*
X012672Y021741D01*
X012626Y021820D02*
X015293Y021820D01*
X015293Y021741D02*
X015373Y021741D01*
X015373Y021663D02*
X015293Y021663D01*
X015293Y021584D02*
X015373Y021584D01*
X015373Y021506D02*
X015293Y021506D01*
X015293Y021427D02*
X015373Y021427D01*
X015373Y021349D02*
X015293Y021349D01*
X015493Y021349D02*
X016118Y021349D01*
X015990Y021427D02*
X015642Y021427D01*
X015726Y021506D02*
X015911Y021506D01*
X015863Y021584D02*
X015779Y021584D01*
X015814Y021663D02*
X015830Y021663D01*
X016549Y021349D02*
X017113Y021349D01*
X016990Y021427D02*
X016677Y021427D01*
X016755Y021506D02*
X016911Y021506D01*
X016863Y021584D02*
X016804Y021584D01*
X014874Y022055D02*
X012420Y022055D01*
X012513Y021977D02*
X014844Y021977D01*
X014827Y021898D02*
X012581Y021898D01*
X014823Y021873D02*
X014823Y021873D01*
X014823Y021793D02*
X014823Y021793D01*
X017033Y010830D02*
X017147Y010830D01*
X015333Y010333D02*
X014333Y010333D01*
X015833Y009577D02*
X016077Y009333D01*
X014024Y008239D02*
X013677Y008239D01*
X013755Y008161D02*
X013941Y008161D01*
X013888Y008082D02*
X013804Y008082D01*
X013836Y008004D02*
X013852Y008004D01*
X011444Y009181D02*
X011033Y009181D01*
X011033Y009103D02*
X011304Y009103D01*
X011361Y009151D02*
X011361Y009151D01*
X011210Y009024D02*
X011033Y009024D01*
X011033Y008946D02*
X011116Y008946D01*
X011110Y008940D02*
X011110Y008940D01*
X011110Y008940D01*
X011068Y008867D02*
X011033Y008867D01*
D11*
X011417Y019083D02*
X011550Y019350D01*
X011744Y019350D02*
X011877Y019484D01*
X011877Y019083D01*
X011744Y019083D02*
X012011Y019083D01*
X012204Y019150D02*
X012471Y019417D01*
X012471Y019150D01*
X012404Y019083D01*
X012271Y019083D01*
X012204Y019150D01*
X012204Y019417D01*
X012271Y019484D01*
X012404Y019484D01*
X012471Y019417D01*
X011417Y019083D02*
X011283Y019350D01*
D12*
X015333Y019333D03*
X016333Y019333D03*
X017333Y019333D03*
X018333Y019333D03*
X019333Y019333D03*
X020333Y019333D03*
X020333Y021833D03*
X019333Y021833D03*
X018333Y021833D03*
X017333Y021833D03*
X016333Y021833D03*
X015333Y021833D03*
X015333Y010333D03*
X016333Y010333D03*
X017333Y010333D03*
X018333Y010333D03*
X019333Y010333D03*
X020333Y010333D03*
X020333Y007833D03*
X021333Y007833D03*
X022333Y007833D03*
X019333Y007833D03*
X018333Y007833D03*
X017333Y007833D03*
X016333Y007833D03*
X015333Y007833D03*
X014333Y007833D03*
X013333Y007833D03*
D13*
X013833Y011400D03*
X013459Y012227D03*
X014207Y012227D03*
X014959Y012227D03*
X015707Y012227D03*
X016459Y012227D03*
X017207Y012227D03*
X018459Y012227D03*
X019207Y012227D03*
X019959Y012227D03*
X020707Y012227D03*
X021459Y012227D03*
X022207Y012227D03*
X021833Y011400D03*
X020333Y011400D03*
X018833Y011400D03*
X016833Y011400D03*
X015333Y011400D03*
X014959Y017440D03*
X014207Y017440D03*
X013459Y017440D03*
X013833Y018266D03*
X015333Y018266D03*
X015707Y017440D03*
X016459Y017440D03*
X017207Y017440D03*
X018459Y017440D03*
X019207Y017440D03*
X019959Y017440D03*
X020707Y017440D03*
X021459Y017440D03*
X022207Y017440D03*
X021833Y018266D03*
X020333Y018266D03*
X018833Y018266D03*
X016833Y018266D03*
D14*
X016589Y020333D03*
X017077Y020333D03*
X017589Y020333D03*
X018077Y020333D03*
X018589Y020333D03*
X019077Y020333D03*
X019589Y020333D03*
X020077Y020333D03*
X020589Y020333D03*
X016077Y020333D03*
X015589Y020333D03*
X015077Y020333D03*
X015077Y009333D03*
X015589Y009333D03*
X016077Y009333D03*
X016589Y009333D03*
X017077Y009333D03*
X017589Y009333D03*
X018077Y009333D03*
X018589Y009333D03*
X019077Y009333D03*
X019589Y009333D03*
X020077Y009333D03*
X020589Y009333D03*
D15*
G36*
X017672Y012957D02*
X017320Y012605D01*
X017164Y012761D01*
X017516Y013113D01*
X017672Y012957D01*
G37*
G36*
X017449Y013180D02*
X017097Y012828D01*
X016941Y012984D01*
X017293Y013336D01*
X017449Y013180D01*
G37*
G36*
X017226Y013402D02*
X016874Y013050D01*
X016718Y013206D01*
X017070Y013558D01*
X017226Y013402D01*
G37*
G36*
X017004Y013625D02*
X016652Y013273D01*
X016496Y013429D01*
X016848Y013781D01*
X017004Y013625D01*
G37*
G36*
X016781Y013848D02*
X016429Y013496D01*
X016273Y013652D01*
X016625Y014004D01*
X016781Y013848D01*
G37*
G36*
X016558Y014070D02*
X016206Y013718D01*
X016050Y013874D01*
X016402Y014226D01*
X016558Y014070D01*
G37*
G36*
X016336Y014293D02*
X015984Y013941D01*
X015828Y014097D01*
X016180Y014449D01*
X016336Y014293D01*
G37*
G36*
X016113Y014516D02*
X015761Y014164D01*
X015605Y014320D01*
X015957Y014672D01*
X016113Y014516D01*
G37*
G36*
X019171Y016238D02*
X018819Y015886D01*
X018663Y016042D01*
X019015Y016394D01*
X019171Y016238D01*
G37*
G36*
X018948Y016460D02*
X018596Y016108D01*
X018440Y016264D01*
X018792Y016616D01*
X018948Y016460D01*
G37*
G36*
X018726Y016683D02*
X018374Y016331D01*
X018218Y016487D01*
X018570Y016839D01*
X018726Y016683D01*
G37*
G36*
X018503Y016906D02*
X018151Y016554D01*
X017995Y016710D01*
X018347Y017062D01*
X018503Y016906D01*
G37*
G36*
X019394Y016015D02*
X019042Y015663D01*
X018886Y015819D01*
X019238Y016171D01*
X019394Y016015D01*
G37*
G36*
X019616Y015792D02*
X019264Y015440D01*
X019108Y015596D01*
X019460Y015948D01*
X019616Y015792D01*
G37*
G36*
X019839Y015570D02*
X019487Y015218D01*
X019331Y015374D01*
X019683Y015726D01*
X019839Y015570D01*
G37*
G36*
X020062Y015347D02*
X019710Y014995D01*
X019554Y015151D01*
X019906Y015503D01*
X020062Y015347D01*
G37*
D16*
G36*
X020062Y014320D02*
X019906Y014164D01*
X019554Y014516D01*
X019710Y014672D01*
X020062Y014320D01*
G37*
G36*
X019839Y014097D02*
X019683Y013941D01*
X019331Y014293D01*
X019487Y014449D01*
X019839Y014097D01*
G37*
G36*
X019616Y013874D02*
X019460Y013718D01*
X019108Y014070D01*
X019264Y014226D01*
X019616Y013874D01*
G37*
G36*
X019394Y013652D02*
X019238Y013496D01*
X018886Y013848D01*
X019042Y014004D01*
X019394Y013652D01*
G37*
G36*
X019171Y013429D02*
X019015Y013273D01*
X018663Y013625D01*
X018819Y013781D01*
X019171Y013429D01*
G37*
G36*
X018948Y013206D02*
X018792Y013050D01*
X018440Y013402D01*
X018596Y013558D01*
X018948Y013206D01*
G37*
G36*
X018726Y012984D02*
X018570Y012828D01*
X018218Y013180D01*
X018374Y013336D01*
X018726Y012984D01*
G37*
G36*
X018503Y012761D02*
X018347Y012605D01*
X017995Y012957D01*
X018151Y013113D01*
X018503Y012761D01*
G37*
G36*
X016113Y015151D02*
X015957Y014995D01*
X015605Y015347D01*
X015761Y015503D01*
X016113Y015151D01*
G37*
G36*
X016336Y015374D02*
X016180Y015218D01*
X015828Y015570D01*
X015984Y015726D01*
X016336Y015374D01*
G37*
G36*
X016558Y015596D02*
X016402Y015440D01*
X016050Y015792D01*
X016206Y015948D01*
X016558Y015596D01*
G37*
G36*
X016781Y015819D02*
X016625Y015663D01*
X016273Y016015D01*
X016429Y016171D01*
X016781Y015819D01*
G37*
G36*
X017004Y016042D02*
X016848Y015886D01*
X016496Y016238D01*
X016652Y016394D01*
X017004Y016042D01*
G37*
G36*
X017226Y016264D02*
X017070Y016108D01*
X016718Y016460D01*
X016874Y016616D01*
X017226Y016264D01*
G37*
G36*
X017449Y016487D02*
X017293Y016331D01*
X016941Y016683D01*
X017097Y016839D01*
X017449Y016487D01*
G37*
G36*
X017672Y016710D02*
X017516Y016554D01*
X017164Y016906D01*
X017320Y017062D01*
X017672Y016710D01*
G37*
D17*
X011833Y017656D03*
X011833Y018010D03*
X011333Y012010D03*
X011333Y011656D03*
X012333Y011656D03*
X012333Y012010D03*
D18*
X011333Y014282D03*
X011333Y015385D03*
X014333Y015385D03*
X014333Y014282D03*
D19*
X014129Y019333D03*
X013538Y019333D03*
D20*
X012833Y018089D03*
X012833Y017577D03*
X015333Y015089D03*
X015333Y014577D03*
D21*
X013207Y014321D03*
X012459Y014321D03*
X012459Y015345D03*
X012833Y015345D03*
X013207Y015345D03*
D22*
X011183Y021333D02*
X011185Y021383D01*
X011191Y021433D01*
X011201Y021483D01*
X011214Y021531D01*
X011231Y021579D01*
X011252Y021625D01*
X011276Y021669D01*
X011304Y021711D01*
X011335Y021751D01*
X011369Y021788D01*
X011406Y021823D01*
X011445Y021854D01*
X011486Y021883D01*
X011530Y021908D01*
X011576Y021930D01*
X011623Y021948D01*
X011671Y021962D01*
X011720Y021973D01*
X011770Y021980D01*
X011820Y021983D01*
X011871Y021982D01*
X011921Y021977D01*
X011971Y021968D01*
X012019Y021956D01*
X012067Y021939D01*
X012113Y021919D01*
X012158Y021896D01*
X012201Y021869D01*
X012241Y021839D01*
X012279Y021806D01*
X012314Y021770D01*
X012347Y021731D01*
X012376Y021690D01*
X012402Y021647D01*
X012425Y021602D01*
X012444Y021555D01*
X012459Y021507D01*
X012471Y021458D01*
X012479Y021408D01*
X012483Y021358D01*
X012483Y021308D01*
X012479Y021258D01*
X012471Y021208D01*
X012459Y021159D01*
X012444Y021111D01*
X012425Y021064D01*
X012402Y021019D01*
X012376Y020976D01*
X012347Y020935D01*
X012314Y020896D01*
X012279Y020860D01*
X012241Y020827D01*
X012201Y020797D01*
X012158Y020770D01*
X012113Y020747D01*
X012067Y020727D01*
X012019Y020710D01*
X011971Y020698D01*
X011921Y020689D01*
X011871Y020684D01*
X011820Y020683D01*
X011770Y020686D01*
X011720Y020693D01*
X011671Y020704D01*
X011623Y020718D01*
X011576Y020736D01*
X011530Y020758D01*
X011486Y020783D01*
X011445Y020812D01*
X011406Y020843D01*
X011369Y020878D01*
X011335Y020915D01*
X011304Y020955D01*
X011276Y020997D01*
X011252Y021041D01*
X011231Y021087D01*
X011214Y021135D01*
X011201Y021183D01*
X011191Y021233D01*
X011185Y021283D01*
X011183Y021333D01*
X023183Y021333D02*
X023185Y021383D01*
X023191Y021433D01*
X023201Y021483D01*
X023214Y021531D01*
X023231Y021579D01*
X023252Y021625D01*
X023276Y021669D01*
X023304Y021711D01*
X023335Y021751D01*
X023369Y021788D01*
X023406Y021823D01*
X023445Y021854D01*
X023486Y021883D01*
X023530Y021908D01*
X023576Y021930D01*
X023623Y021948D01*
X023671Y021962D01*
X023720Y021973D01*
X023770Y021980D01*
X023820Y021983D01*
X023871Y021982D01*
X023921Y021977D01*
X023971Y021968D01*
X024019Y021956D01*
X024067Y021939D01*
X024113Y021919D01*
X024158Y021896D01*
X024201Y021869D01*
X024241Y021839D01*
X024279Y021806D01*
X024314Y021770D01*
X024347Y021731D01*
X024376Y021690D01*
X024402Y021647D01*
X024425Y021602D01*
X024444Y021555D01*
X024459Y021507D01*
X024471Y021458D01*
X024479Y021408D01*
X024483Y021358D01*
X024483Y021308D01*
X024479Y021258D01*
X024471Y021208D01*
X024459Y021159D01*
X024444Y021111D01*
X024425Y021064D01*
X024402Y021019D01*
X024376Y020976D01*
X024347Y020935D01*
X024314Y020896D01*
X024279Y020860D01*
X024241Y020827D01*
X024201Y020797D01*
X024158Y020770D01*
X024113Y020747D01*
X024067Y020727D01*
X024019Y020710D01*
X023971Y020698D01*
X023921Y020689D01*
X023871Y020684D01*
X023820Y020683D01*
X023770Y020686D01*
X023720Y020693D01*
X023671Y020704D01*
X023623Y020718D01*
X023576Y020736D01*
X023530Y020758D01*
X023486Y020783D01*
X023445Y020812D01*
X023406Y020843D01*
X023369Y020878D01*
X023335Y020915D01*
X023304Y020955D01*
X023276Y020997D01*
X023252Y021041D01*
X023231Y021087D01*
X023214Y021135D01*
X023201Y021183D01*
X023191Y021233D01*
X023185Y021283D01*
X023183Y021333D01*
X023183Y008333D02*
X023185Y008383D01*
X023191Y008433D01*
X023201Y008483D01*
X023214Y008531D01*
X023231Y008579D01*
X023252Y008625D01*
X023276Y008669D01*
X023304Y008711D01*
X023335Y008751D01*
X023369Y008788D01*
X023406Y008823D01*
X023445Y008854D01*
X023486Y008883D01*
X023530Y008908D01*
X023576Y008930D01*
X023623Y008948D01*
X023671Y008962D01*
X023720Y008973D01*
X023770Y008980D01*
X023820Y008983D01*
X023871Y008982D01*
X023921Y008977D01*
X023971Y008968D01*
X024019Y008956D01*
X024067Y008939D01*
X024113Y008919D01*
X024158Y008896D01*
X024201Y008869D01*
X024241Y008839D01*
X024279Y008806D01*
X024314Y008770D01*
X024347Y008731D01*
X024376Y008690D01*
X024402Y008647D01*
X024425Y008602D01*
X024444Y008555D01*
X024459Y008507D01*
X024471Y008458D01*
X024479Y008408D01*
X024483Y008358D01*
X024483Y008308D01*
X024479Y008258D01*
X024471Y008208D01*
X024459Y008159D01*
X024444Y008111D01*
X024425Y008064D01*
X024402Y008019D01*
X024376Y007976D01*
X024347Y007935D01*
X024314Y007896D01*
X024279Y007860D01*
X024241Y007827D01*
X024201Y007797D01*
X024158Y007770D01*
X024113Y007747D01*
X024067Y007727D01*
X024019Y007710D01*
X023971Y007698D01*
X023921Y007689D01*
X023871Y007684D01*
X023820Y007683D01*
X023770Y007686D01*
X023720Y007693D01*
X023671Y007704D01*
X023623Y007718D01*
X023576Y007736D01*
X023530Y007758D01*
X023486Y007783D01*
X023445Y007812D01*
X023406Y007843D01*
X023369Y007878D01*
X023335Y007915D01*
X023304Y007955D01*
X023276Y007997D01*
X023252Y008041D01*
X023231Y008087D01*
X023214Y008135D01*
X023201Y008183D01*
X023191Y008233D01*
X023185Y008283D01*
X023183Y008333D01*
X011183Y008333D02*
X011185Y008383D01*
X011191Y008433D01*
X011201Y008483D01*
X011214Y008531D01*
X011231Y008579D01*
X011252Y008625D01*
X011276Y008669D01*
X011304Y008711D01*
X011335Y008751D01*
X011369Y008788D01*
X011406Y008823D01*
X011445Y008854D01*
X011486Y008883D01*
X011530Y008908D01*
X011576Y008930D01*
X011623Y008948D01*
X011671Y008962D01*
X011720Y008973D01*
X011770Y008980D01*
X011820Y008983D01*
X011871Y008982D01*
X011921Y008977D01*
X011971Y008968D01*
X012019Y008956D01*
X012067Y008939D01*
X012113Y008919D01*
X012158Y008896D01*
X012201Y008869D01*
X012241Y008839D01*
X012279Y008806D01*
X012314Y008770D01*
X012347Y008731D01*
X012376Y008690D01*
X012402Y008647D01*
X012425Y008602D01*
X012444Y008555D01*
X012459Y008507D01*
X012471Y008458D01*
X012479Y008408D01*
X012483Y008358D01*
X012483Y008308D01*
X012479Y008258D01*
X012471Y008208D01*
X012459Y008159D01*
X012444Y008111D01*
X012425Y008064D01*
X012402Y008019D01*
X012376Y007976D01*
X012347Y007935D01*
X012314Y007896D01*
X012279Y007860D01*
X012241Y007827D01*
X012201Y007797D01*
X012158Y007770D01*
X012113Y007747D01*
X012067Y007727D01*
X012019Y007710D01*
X011971Y007698D01*
X011921Y007689D01*
X011871Y007684D01*
X011820Y007683D01*
X011770Y007686D01*
X011720Y007693D01*
X011671Y007704D01*
X011623Y007718D01*
X011576Y007736D01*
X011530Y007758D01*
X011486Y007783D01*
X011445Y007812D01*
X011406Y007843D01*
X011369Y007878D01*
X011335Y007915D01*
X011304Y007955D01*
X011276Y007997D01*
X011252Y008041D01*
X011231Y008087D01*
X011214Y008135D01*
X011201Y008183D01*
X011191Y008233D01*
X011185Y008283D01*
X011183Y008333D01*
D23*
X021955Y014042D03*
X021955Y014829D03*
X021955Y015617D03*
D24*
X024003Y016562D03*
X024003Y013097D03*
D25*
X021333Y013333D03*
X020833Y013333D03*
X020333Y013333D03*
X019833Y013333D03*
X018833Y014333D03*
X018833Y014833D03*
X018833Y015333D03*
X018333Y015333D03*
X017833Y015333D03*
X016833Y015183D03*
X017333Y014333D03*
X015993Y013533D03*
X016333Y012883D03*
X016833Y012583D03*
X015083Y014133D03*
X012333Y012483D03*
X011333Y012483D03*
X014333Y010833D03*
X014333Y009333D03*
X011833Y009583D03*
X022333Y011083D03*
X023333Y014833D03*
X021333Y016333D03*
X020833Y016333D03*
X020833Y016833D03*
X019833Y016333D03*
X019483Y016983D03*
X017833Y017333D03*
X019333Y018333D03*
X015833Y016333D03*
X015333Y016333D03*
X014333Y016083D03*
X011833Y016833D03*
X014583Y017833D03*
D26*
X013089Y017833D01*
X012833Y017577D01*
X012833Y016733D01*
X013533Y016033D01*
X013533Y014321D01*
X013533Y012783D01*
X013459Y012709D01*
X013459Y012227D01*
X013459Y010707D01*
X014433Y009733D01*
X015383Y009733D01*
X015589Y009527D01*
X015589Y009333D01*
X013333Y008833D02*
X013333Y007833D01*
X013333Y008833D02*
X022333Y008833D01*
X022833Y009333D01*
X022833Y012833D01*
X021955Y013711D01*
X021955Y014042D01*
X022207Y017440D02*
X022207Y017459D01*
X021833Y017833D01*
X020333Y017833D01*
X017183Y017833D01*
X017207Y017809D01*
X017207Y017440D01*
X017183Y017833D02*
X015733Y017833D01*
X015707Y017807D01*
X015707Y017440D01*
X015733Y017833D02*
X014583Y017833D01*
X013207Y015345D02*
X013207Y014957D01*
X013083Y014833D01*
X012483Y014833D01*
X012459Y014857D01*
X012459Y015345D01*
X012483Y014833D02*
X011533Y014833D01*
X011333Y014633D01*
X011333Y014282D01*
X011333Y013833D01*
X011833Y013333D01*
X012833Y013333D01*
X013083Y013083D01*
X013083Y010333D01*
X013333Y010083D01*
X013333Y008833D01*
X013835Y014282D02*
X014333Y014282D01*
X014629Y014577D01*
X015333Y014577D01*
X013835Y014282D02*
X013795Y014321D01*
X013533Y014321D01*
X013207Y014321D01*
X016589Y020333D02*
X016589Y020589D01*
X016833Y020833D01*
X017333Y020833D01*
X017333Y021833D01*
X017333Y020833D02*
X017833Y020833D01*
X018077Y020589D01*
X018077Y020333D01*
M02*
